G04 #@! TF.GenerationSoftware,KiCad,Pcbnew,(5.1.5)-3*
G04 #@! TF.CreationDate,2021-02-20T21:47:20+01:00*
G04 #@! TF.ProjectId,brievenbusmelder,62726965-7665-46e6-9275-736d656c6465,rev?*
G04 #@! TF.SameCoordinates,Original*
G04 #@! TF.FileFunction,Paste,Top*
G04 #@! TF.FilePolarity,Positive*
%FSLAX46Y46*%
G04 Gerber Fmt 4.6, Leading zero omitted, Abs format (unit mm)*
G04 Created by KiCad (PCBNEW (5.1.5)-3) date 2021-02-20 21:47:20*
%MOMM*%
%LPD*%
G04 APERTURE LIST*
%ADD10C,0.100000*%
%ADD11R,0.650000X0.750000*%
%ADD12R,1.981200X0.558800*%
%ADD13R,0.700000X0.750000*%
%ADD14R,1.350000X0.650000*%
%ADD15O,0.250000X0.500000*%
G04 APERTURE END LIST*
D10*
G36*
X28589504Y-79770204D02*
G01*
X28613773Y-79773804D01*
X28637571Y-79779765D01*
X28660671Y-79788030D01*
X28682849Y-79798520D01*
X28703893Y-79811133D01*
X28723598Y-79825747D01*
X28741777Y-79842223D01*
X28758253Y-79860402D01*
X28772867Y-79880107D01*
X28785480Y-79901151D01*
X28795970Y-79923329D01*
X28804235Y-79946429D01*
X28810196Y-79970227D01*
X28813796Y-79994496D01*
X28815000Y-80019000D01*
X28815000Y-80944000D01*
X28813796Y-80968504D01*
X28810196Y-80992773D01*
X28804235Y-81016571D01*
X28795970Y-81039671D01*
X28785480Y-81061849D01*
X28772867Y-81082893D01*
X28758253Y-81102598D01*
X28741777Y-81120777D01*
X28723598Y-81137253D01*
X28703893Y-81151867D01*
X28682849Y-81164480D01*
X28660671Y-81174970D01*
X28637571Y-81183235D01*
X28613773Y-81189196D01*
X28589504Y-81192796D01*
X28565000Y-81194000D01*
X27315000Y-81194000D01*
X27290496Y-81192796D01*
X27266227Y-81189196D01*
X27242429Y-81183235D01*
X27219329Y-81174970D01*
X27197151Y-81164480D01*
X27176107Y-81151867D01*
X27156402Y-81137253D01*
X27138223Y-81120777D01*
X27121747Y-81102598D01*
X27107133Y-81082893D01*
X27094520Y-81061849D01*
X27084030Y-81039671D01*
X27075765Y-81016571D01*
X27069804Y-80992773D01*
X27066204Y-80968504D01*
X27065000Y-80944000D01*
X27065000Y-80019000D01*
X27066204Y-79994496D01*
X27069804Y-79970227D01*
X27075765Y-79946429D01*
X27084030Y-79923329D01*
X27094520Y-79901151D01*
X27107133Y-79880107D01*
X27121747Y-79860402D01*
X27138223Y-79842223D01*
X27156402Y-79825747D01*
X27176107Y-79811133D01*
X27197151Y-79798520D01*
X27219329Y-79788030D01*
X27242429Y-79779765D01*
X27266227Y-79773804D01*
X27290496Y-79770204D01*
X27315000Y-79769000D01*
X28565000Y-79769000D01*
X28589504Y-79770204D01*
G37*
G36*
X28589504Y-76795204D02*
G01*
X28613773Y-76798804D01*
X28637571Y-76804765D01*
X28660671Y-76813030D01*
X28682849Y-76823520D01*
X28703893Y-76836133D01*
X28723598Y-76850747D01*
X28741777Y-76867223D01*
X28758253Y-76885402D01*
X28772867Y-76905107D01*
X28785480Y-76926151D01*
X28795970Y-76948329D01*
X28804235Y-76971429D01*
X28810196Y-76995227D01*
X28813796Y-77019496D01*
X28815000Y-77044000D01*
X28815000Y-77969000D01*
X28813796Y-77993504D01*
X28810196Y-78017773D01*
X28804235Y-78041571D01*
X28795970Y-78064671D01*
X28785480Y-78086849D01*
X28772867Y-78107893D01*
X28758253Y-78127598D01*
X28741777Y-78145777D01*
X28723598Y-78162253D01*
X28703893Y-78176867D01*
X28682849Y-78189480D01*
X28660671Y-78199970D01*
X28637571Y-78208235D01*
X28613773Y-78214196D01*
X28589504Y-78217796D01*
X28565000Y-78219000D01*
X27315000Y-78219000D01*
X27290496Y-78217796D01*
X27266227Y-78214196D01*
X27242429Y-78208235D01*
X27219329Y-78199970D01*
X27197151Y-78189480D01*
X27176107Y-78176867D01*
X27156402Y-78162253D01*
X27138223Y-78145777D01*
X27121747Y-78127598D01*
X27107133Y-78107893D01*
X27094520Y-78086849D01*
X27084030Y-78064671D01*
X27075765Y-78041571D01*
X27069804Y-78017773D01*
X27066204Y-77993504D01*
X27065000Y-77969000D01*
X27065000Y-77044000D01*
X27066204Y-77019496D01*
X27069804Y-76995227D01*
X27075765Y-76971429D01*
X27084030Y-76948329D01*
X27094520Y-76926151D01*
X27107133Y-76905107D01*
X27121747Y-76885402D01*
X27138223Y-76867223D01*
X27156402Y-76850747D01*
X27176107Y-76836133D01*
X27197151Y-76823520D01*
X27219329Y-76813030D01*
X27242429Y-76804765D01*
X27266227Y-76798804D01*
X27290496Y-76795204D01*
X27315000Y-76794000D01*
X28565000Y-76794000D01*
X28589504Y-76795204D01*
G37*
G36*
X63261504Y-40782204D02*
G01*
X63285773Y-40785804D01*
X63309571Y-40791765D01*
X63332671Y-40800030D01*
X63354849Y-40810520D01*
X63375893Y-40823133D01*
X63395598Y-40837747D01*
X63413777Y-40854223D01*
X63430253Y-40872402D01*
X63444867Y-40892107D01*
X63457480Y-40913151D01*
X63467970Y-40935329D01*
X63476235Y-40958429D01*
X63482196Y-40982227D01*
X63485796Y-41006496D01*
X63487000Y-41031000D01*
X63487000Y-42281000D01*
X63485796Y-42305504D01*
X63482196Y-42329773D01*
X63476235Y-42353571D01*
X63467970Y-42376671D01*
X63457480Y-42398849D01*
X63444867Y-42419893D01*
X63430253Y-42439598D01*
X63413777Y-42457777D01*
X63395598Y-42474253D01*
X63375893Y-42488867D01*
X63354849Y-42501480D01*
X63332671Y-42511970D01*
X63309571Y-42520235D01*
X63285773Y-42526196D01*
X63261504Y-42529796D01*
X63237000Y-42531000D01*
X62312000Y-42531000D01*
X62287496Y-42529796D01*
X62263227Y-42526196D01*
X62239429Y-42520235D01*
X62216329Y-42511970D01*
X62194151Y-42501480D01*
X62173107Y-42488867D01*
X62153402Y-42474253D01*
X62135223Y-42457777D01*
X62118747Y-42439598D01*
X62104133Y-42419893D01*
X62091520Y-42398849D01*
X62081030Y-42376671D01*
X62072765Y-42353571D01*
X62066804Y-42329773D01*
X62063204Y-42305504D01*
X62062000Y-42281000D01*
X62062000Y-41031000D01*
X62063204Y-41006496D01*
X62066804Y-40982227D01*
X62072765Y-40958429D01*
X62081030Y-40935329D01*
X62091520Y-40913151D01*
X62104133Y-40892107D01*
X62118747Y-40872402D01*
X62135223Y-40854223D01*
X62153402Y-40837747D01*
X62173107Y-40823133D01*
X62194151Y-40810520D01*
X62216329Y-40800030D01*
X62239429Y-40791765D01*
X62263227Y-40785804D01*
X62287496Y-40782204D01*
X62312000Y-40781000D01*
X63237000Y-40781000D01*
X63261504Y-40782204D01*
G37*
G36*
X66236504Y-40782204D02*
G01*
X66260773Y-40785804D01*
X66284571Y-40791765D01*
X66307671Y-40800030D01*
X66329849Y-40810520D01*
X66350893Y-40823133D01*
X66370598Y-40837747D01*
X66388777Y-40854223D01*
X66405253Y-40872402D01*
X66419867Y-40892107D01*
X66432480Y-40913151D01*
X66442970Y-40935329D01*
X66451235Y-40958429D01*
X66457196Y-40982227D01*
X66460796Y-41006496D01*
X66462000Y-41031000D01*
X66462000Y-42281000D01*
X66460796Y-42305504D01*
X66457196Y-42329773D01*
X66451235Y-42353571D01*
X66442970Y-42376671D01*
X66432480Y-42398849D01*
X66419867Y-42419893D01*
X66405253Y-42439598D01*
X66388777Y-42457777D01*
X66370598Y-42474253D01*
X66350893Y-42488867D01*
X66329849Y-42501480D01*
X66307671Y-42511970D01*
X66284571Y-42520235D01*
X66260773Y-42526196D01*
X66236504Y-42529796D01*
X66212000Y-42531000D01*
X65287000Y-42531000D01*
X65262496Y-42529796D01*
X65238227Y-42526196D01*
X65214429Y-42520235D01*
X65191329Y-42511970D01*
X65169151Y-42501480D01*
X65148107Y-42488867D01*
X65128402Y-42474253D01*
X65110223Y-42457777D01*
X65093747Y-42439598D01*
X65079133Y-42419893D01*
X65066520Y-42398849D01*
X65056030Y-42376671D01*
X65047765Y-42353571D01*
X65041804Y-42329773D01*
X65038204Y-42305504D01*
X65037000Y-42281000D01*
X65037000Y-41031000D01*
X65038204Y-41006496D01*
X65041804Y-40982227D01*
X65047765Y-40958429D01*
X65056030Y-40935329D01*
X65066520Y-40913151D01*
X65079133Y-40892107D01*
X65093747Y-40872402D01*
X65110223Y-40854223D01*
X65128402Y-40837747D01*
X65148107Y-40823133D01*
X65169151Y-40810520D01*
X65191329Y-40800030D01*
X65214429Y-40791765D01*
X65238227Y-40785804D01*
X65262496Y-40782204D01*
X65287000Y-40781000D01*
X66212000Y-40781000D01*
X66236504Y-40782204D01*
G37*
G36*
X63261504Y-46370204D02*
G01*
X63285773Y-46373804D01*
X63309571Y-46379765D01*
X63332671Y-46388030D01*
X63354849Y-46398520D01*
X63375893Y-46411133D01*
X63395598Y-46425747D01*
X63413777Y-46442223D01*
X63430253Y-46460402D01*
X63444867Y-46480107D01*
X63457480Y-46501151D01*
X63467970Y-46523329D01*
X63476235Y-46546429D01*
X63482196Y-46570227D01*
X63485796Y-46594496D01*
X63487000Y-46619000D01*
X63487000Y-47869000D01*
X63485796Y-47893504D01*
X63482196Y-47917773D01*
X63476235Y-47941571D01*
X63467970Y-47964671D01*
X63457480Y-47986849D01*
X63444867Y-48007893D01*
X63430253Y-48027598D01*
X63413777Y-48045777D01*
X63395598Y-48062253D01*
X63375893Y-48076867D01*
X63354849Y-48089480D01*
X63332671Y-48099970D01*
X63309571Y-48108235D01*
X63285773Y-48114196D01*
X63261504Y-48117796D01*
X63237000Y-48119000D01*
X62312000Y-48119000D01*
X62287496Y-48117796D01*
X62263227Y-48114196D01*
X62239429Y-48108235D01*
X62216329Y-48099970D01*
X62194151Y-48089480D01*
X62173107Y-48076867D01*
X62153402Y-48062253D01*
X62135223Y-48045777D01*
X62118747Y-48027598D01*
X62104133Y-48007893D01*
X62091520Y-47986849D01*
X62081030Y-47964671D01*
X62072765Y-47941571D01*
X62066804Y-47917773D01*
X62063204Y-47893504D01*
X62062000Y-47869000D01*
X62062000Y-46619000D01*
X62063204Y-46594496D01*
X62066804Y-46570227D01*
X62072765Y-46546429D01*
X62081030Y-46523329D01*
X62091520Y-46501151D01*
X62104133Y-46480107D01*
X62118747Y-46460402D01*
X62135223Y-46442223D01*
X62153402Y-46425747D01*
X62173107Y-46411133D01*
X62194151Y-46398520D01*
X62216329Y-46388030D01*
X62239429Y-46379765D01*
X62263227Y-46373804D01*
X62287496Y-46370204D01*
X62312000Y-46369000D01*
X63237000Y-46369000D01*
X63261504Y-46370204D01*
G37*
G36*
X66236504Y-46370204D02*
G01*
X66260773Y-46373804D01*
X66284571Y-46379765D01*
X66307671Y-46388030D01*
X66329849Y-46398520D01*
X66350893Y-46411133D01*
X66370598Y-46425747D01*
X66388777Y-46442223D01*
X66405253Y-46460402D01*
X66419867Y-46480107D01*
X66432480Y-46501151D01*
X66442970Y-46523329D01*
X66451235Y-46546429D01*
X66457196Y-46570227D01*
X66460796Y-46594496D01*
X66462000Y-46619000D01*
X66462000Y-47869000D01*
X66460796Y-47893504D01*
X66457196Y-47917773D01*
X66451235Y-47941571D01*
X66442970Y-47964671D01*
X66432480Y-47986849D01*
X66419867Y-48007893D01*
X66405253Y-48027598D01*
X66388777Y-48045777D01*
X66370598Y-48062253D01*
X66350893Y-48076867D01*
X66329849Y-48089480D01*
X66307671Y-48099970D01*
X66284571Y-48108235D01*
X66260773Y-48114196D01*
X66236504Y-48117796D01*
X66212000Y-48119000D01*
X65287000Y-48119000D01*
X65262496Y-48117796D01*
X65238227Y-48114196D01*
X65214429Y-48108235D01*
X65191329Y-48099970D01*
X65169151Y-48089480D01*
X65148107Y-48076867D01*
X65128402Y-48062253D01*
X65110223Y-48045777D01*
X65093747Y-48027598D01*
X65079133Y-48007893D01*
X65066520Y-47986849D01*
X65056030Y-47964671D01*
X65047765Y-47941571D01*
X65041804Y-47917773D01*
X65038204Y-47893504D01*
X65037000Y-47869000D01*
X65037000Y-46619000D01*
X65038204Y-46594496D01*
X65041804Y-46570227D01*
X65047765Y-46546429D01*
X65056030Y-46523329D01*
X65066520Y-46501151D01*
X65079133Y-46480107D01*
X65093747Y-46460402D01*
X65110223Y-46442223D01*
X65128402Y-46425747D01*
X65148107Y-46411133D01*
X65169151Y-46398520D01*
X65191329Y-46388030D01*
X65214429Y-46379765D01*
X65238227Y-46373804D01*
X65262496Y-46370204D01*
X65287000Y-46369000D01*
X66212000Y-46369000D01*
X66236504Y-46370204D01*
G37*
G36*
X66998504Y-73802204D02*
G01*
X67022773Y-73805804D01*
X67046571Y-73811765D01*
X67069671Y-73820030D01*
X67091849Y-73830520D01*
X67112893Y-73843133D01*
X67132598Y-73857747D01*
X67150777Y-73874223D01*
X67167253Y-73892402D01*
X67181867Y-73912107D01*
X67194480Y-73933151D01*
X67204970Y-73955329D01*
X67213235Y-73978429D01*
X67219196Y-74002227D01*
X67222796Y-74026496D01*
X67224000Y-74051000D01*
X67224000Y-75301000D01*
X67222796Y-75325504D01*
X67219196Y-75349773D01*
X67213235Y-75373571D01*
X67204970Y-75396671D01*
X67194480Y-75418849D01*
X67181867Y-75439893D01*
X67167253Y-75459598D01*
X67150777Y-75477777D01*
X67132598Y-75494253D01*
X67112893Y-75508867D01*
X67091849Y-75521480D01*
X67069671Y-75531970D01*
X67046571Y-75540235D01*
X67022773Y-75546196D01*
X66998504Y-75549796D01*
X66974000Y-75551000D01*
X66049000Y-75551000D01*
X66024496Y-75549796D01*
X66000227Y-75546196D01*
X65976429Y-75540235D01*
X65953329Y-75531970D01*
X65931151Y-75521480D01*
X65910107Y-75508867D01*
X65890402Y-75494253D01*
X65872223Y-75477777D01*
X65855747Y-75459598D01*
X65841133Y-75439893D01*
X65828520Y-75418849D01*
X65818030Y-75396671D01*
X65809765Y-75373571D01*
X65803804Y-75349773D01*
X65800204Y-75325504D01*
X65799000Y-75301000D01*
X65799000Y-74051000D01*
X65800204Y-74026496D01*
X65803804Y-74002227D01*
X65809765Y-73978429D01*
X65818030Y-73955329D01*
X65828520Y-73933151D01*
X65841133Y-73912107D01*
X65855747Y-73892402D01*
X65872223Y-73874223D01*
X65890402Y-73857747D01*
X65910107Y-73843133D01*
X65931151Y-73830520D01*
X65953329Y-73820030D01*
X65976429Y-73811765D01*
X66000227Y-73805804D01*
X66024496Y-73802204D01*
X66049000Y-73801000D01*
X66974000Y-73801000D01*
X66998504Y-73802204D01*
G37*
G36*
X64023504Y-73802204D02*
G01*
X64047773Y-73805804D01*
X64071571Y-73811765D01*
X64094671Y-73820030D01*
X64116849Y-73830520D01*
X64137893Y-73843133D01*
X64157598Y-73857747D01*
X64175777Y-73874223D01*
X64192253Y-73892402D01*
X64206867Y-73912107D01*
X64219480Y-73933151D01*
X64229970Y-73955329D01*
X64238235Y-73978429D01*
X64244196Y-74002227D01*
X64247796Y-74026496D01*
X64249000Y-74051000D01*
X64249000Y-75301000D01*
X64247796Y-75325504D01*
X64244196Y-75349773D01*
X64238235Y-75373571D01*
X64229970Y-75396671D01*
X64219480Y-75418849D01*
X64206867Y-75439893D01*
X64192253Y-75459598D01*
X64175777Y-75477777D01*
X64157598Y-75494253D01*
X64137893Y-75508867D01*
X64116849Y-75521480D01*
X64094671Y-75531970D01*
X64071571Y-75540235D01*
X64047773Y-75546196D01*
X64023504Y-75549796D01*
X63999000Y-75551000D01*
X63074000Y-75551000D01*
X63049496Y-75549796D01*
X63025227Y-75546196D01*
X63001429Y-75540235D01*
X62978329Y-75531970D01*
X62956151Y-75521480D01*
X62935107Y-75508867D01*
X62915402Y-75494253D01*
X62897223Y-75477777D01*
X62880747Y-75459598D01*
X62866133Y-75439893D01*
X62853520Y-75418849D01*
X62843030Y-75396671D01*
X62834765Y-75373571D01*
X62828804Y-75349773D01*
X62825204Y-75325504D01*
X62824000Y-75301000D01*
X62824000Y-74051000D01*
X62825204Y-74026496D01*
X62828804Y-74002227D01*
X62834765Y-73978429D01*
X62843030Y-73955329D01*
X62853520Y-73933151D01*
X62866133Y-73912107D01*
X62880747Y-73892402D01*
X62897223Y-73874223D01*
X62915402Y-73857747D01*
X62935107Y-73843133D01*
X62956151Y-73830520D01*
X62978329Y-73820030D01*
X63001429Y-73811765D01*
X63025227Y-73805804D01*
X63049496Y-73802204D01*
X63074000Y-73801000D01*
X63999000Y-73801000D01*
X64023504Y-73802204D01*
G37*
G36*
X63261504Y-43322204D02*
G01*
X63285773Y-43325804D01*
X63309571Y-43331765D01*
X63332671Y-43340030D01*
X63354849Y-43350520D01*
X63375893Y-43363133D01*
X63395598Y-43377747D01*
X63413777Y-43394223D01*
X63430253Y-43412402D01*
X63444867Y-43432107D01*
X63457480Y-43453151D01*
X63467970Y-43475329D01*
X63476235Y-43498429D01*
X63482196Y-43522227D01*
X63485796Y-43546496D01*
X63487000Y-43571000D01*
X63487000Y-44821000D01*
X63485796Y-44845504D01*
X63482196Y-44869773D01*
X63476235Y-44893571D01*
X63467970Y-44916671D01*
X63457480Y-44938849D01*
X63444867Y-44959893D01*
X63430253Y-44979598D01*
X63413777Y-44997777D01*
X63395598Y-45014253D01*
X63375893Y-45028867D01*
X63354849Y-45041480D01*
X63332671Y-45051970D01*
X63309571Y-45060235D01*
X63285773Y-45066196D01*
X63261504Y-45069796D01*
X63237000Y-45071000D01*
X62312000Y-45071000D01*
X62287496Y-45069796D01*
X62263227Y-45066196D01*
X62239429Y-45060235D01*
X62216329Y-45051970D01*
X62194151Y-45041480D01*
X62173107Y-45028867D01*
X62153402Y-45014253D01*
X62135223Y-44997777D01*
X62118747Y-44979598D01*
X62104133Y-44959893D01*
X62091520Y-44938849D01*
X62081030Y-44916671D01*
X62072765Y-44893571D01*
X62066804Y-44869773D01*
X62063204Y-44845504D01*
X62062000Y-44821000D01*
X62062000Y-43571000D01*
X62063204Y-43546496D01*
X62066804Y-43522227D01*
X62072765Y-43498429D01*
X62081030Y-43475329D01*
X62091520Y-43453151D01*
X62104133Y-43432107D01*
X62118747Y-43412402D01*
X62135223Y-43394223D01*
X62153402Y-43377747D01*
X62173107Y-43363133D01*
X62194151Y-43350520D01*
X62216329Y-43340030D01*
X62239429Y-43331765D01*
X62263227Y-43325804D01*
X62287496Y-43322204D01*
X62312000Y-43321000D01*
X63237000Y-43321000D01*
X63261504Y-43322204D01*
G37*
G36*
X66236504Y-43322204D02*
G01*
X66260773Y-43325804D01*
X66284571Y-43331765D01*
X66307671Y-43340030D01*
X66329849Y-43350520D01*
X66350893Y-43363133D01*
X66370598Y-43377747D01*
X66388777Y-43394223D01*
X66405253Y-43412402D01*
X66419867Y-43432107D01*
X66432480Y-43453151D01*
X66442970Y-43475329D01*
X66451235Y-43498429D01*
X66457196Y-43522227D01*
X66460796Y-43546496D01*
X66462000Y-43571000D01*
X66462000Y-44821000D01*
X66460796Y-44845504D01*
X66457196Y-44869773D01*
X66451235Y-44893571D01*
X66442970Y-44916671D01*
X66432480Y-44938849D01*
X66419867Y-44959893D01*
X66405253Y-44979598D01*
X66388777Y-44997777D01*
X66370598Y-45014253D01*
X66350893Y-45028867D01*
X66329849Y-45041480D01*
X66307671Y-45051970D01*
X66284571Y-45060235D01*
X66260773Y-45066196D01*
X66236504Y-45069796D01*
X66212000Y-45071000D01*
X65287000Y-45071000D01*
X65262496Y-45069796D01*
X65238227Y-45066196D01*
X65214429Y-45060235D01*
X65191329Y-45051970D01*
X65169151Y-45041480D01*
X65148107Y-45028867D01*
X65128402Y-45014253D01*
X65110223Y-44997777D01*
X65093747Y-44979598D01*
X65079133Y-44959893D01*
X65066520Y-44938849D01*
X65056030Y-44916671D01*
X65047765Y-44893571D01*
X65041804Y-44869773D01*
X65038204Y-44845504D01*
X65037000Y-44821000D01*
X65037000Y-43571000D01*
X65038204Y-43546496D01*
X65041804Y-43522227D01*
X65047765Y-43498429D01*
X65056030Y-43475329D01*
X65066520Y-43453151D01*
X65079133Y-43432107D01*
X65093747Y-43412402D01*
X65110223Y-43394223D01*
X65128402Y-43377747D01*
X65148107Y-43363133D01*
X65169151Y-43350520D01*
X65191329Y-43340030D01*
X65214429Y-43331765D01*
X65238227Y-43325804D01*
X65262496Y-43322204D01*
X65287000Y-43321000D01*
X66212000Y-43321000D01*
X66236504Y-43322204D01*
G37*
G36*
X66236504Y-49926204D02*
G01*
X66260773Y-49929804D01*
X66284571Y-49935765D01*
X66307671Y-49944030D01*
X66329849Y-49954520D01*
X66350893Y-49967133D01*
X66370598Y-49981747D01*
X66388777Y-49998223D01*
X66405253Y-50016402D01*
X66419867Y-50036107D01*
X66432480Y-50057151D01*
X66442970Y-50079329D01*
X66451235Y-50102429D01*
X66457196Y-50126227D01*
X66460796Y-50150496D01*
X66462000Y-50175000D01*
X66462000Y-51425000D01*
X66460796Y-51449504D01*
X66457196Y-51473773D01*
X66451235Y-51497571D01*
X66442970Y-51520671D01*
X66432480Y-51542849D01*
X66419867Y-51563893D01*
X66405253Y-51583598D01*
X66388777Y-51601777D01*
X66370598Y-51618253D01*
X66350893Y-51632867D01*
X66329849Y-51645480D01*
X66307671Y-51655970D01*
X66284571Y-51664235D01*
X66260773Y-51670196D01*
X66236504Y-51673796D01*
X66212000Y-51675000D01*
X65287000Y-51675000D01*
X65262496Y-51673796D01*
X65238227Y-51670196D01*
X65214429Y-51664235D01*
X65191329Y-51655970D01*
X65169151Y-51645480D01*
X65148107Y-51632867D01*
X65128402Y-51618253D01*
X65110223Y-51601777D01*
X65093747Y-51583598D01*
X65079133Y-51563893D01*
X65066520Y-51542849D01*
X65056030Y-51520671D01*
X65047765Y-51497571D01*
X65041804Y-51473773D01*
X65038204Y-51449504D01*
X65037000Y-51425000D01*
X65037000Y-50175000D01*
X65038204Y-50150496D01*
X65041804Y-50126227D01*
X65047765Y-50102429D01*
X65056030Y-50079329D01*
X65066520Y-50057151D01*
X65079133Y-50036107D01*
X65093747Y-50016402D01*
X65110223Y-49998223D01*
X65128402Y-49981747D01*
X65148107Y-49967133D01*
X65169151Y-49954520D01*
X65191329Y-49944030D01*
X65214429Y-49935765D01*
X65238227Y-49929804D01*
X65262496Y-49926204D01*
X65287000Y-49925000D01*
X66212000Y-49925000D01*
X66236504Y-49926204D01*
G37*
G36*
X63261504Y-49926204D02*
G01*
X63285773Y-49929804D01*
X63309571Y-49935765D01*
X63332671Y-49944030D01*
X63354849Y-49954520D01*
X63375893Y-49967133D01*
X63395598Y-49981747D01*
X63413777Y-49998223D01*
X63430253Y-50016402D01*
X63444867Y-50036107D01*
X63457480Y-50057151D01*
X63467970Y-50079329D01*
X63476235Y-50102429D01*
X63482196Y-50126227D01*
X63485796Y-50150496D01*
X63487000Y-50175000D01*
X63487000Y-51425000D01*
X63485796Y-51449504D01*
X63482196Y-51473773D01*
X63476235Y-51497571D01*
X63467970Y-51520671D01*
X63457480Y-51542849D01*
X63444867Y-51563893D01*
X63430253Y-51583598D01*
X63413777Y-51601777D01*
X63395598Y-51618253D01*
X63375893Y-51632867D01*
X63354849Y-51645480D01*
X63332671Y-51655970D01*
X63309571Y-51664235D01*
X63285773Y-51670196D01*
X63261504Y-51673796D01*
X63237000Y-51675000D01*
X62312000Y-51675000D01*
X62287496Y-51673796D01*
X62263227Y-51670196D01*
X62239429Y-51664235D01*
X62216329Y-51655970D01*
X62194151Y-51645480D01*
X62173107Y-51632867D01*
X62153402Y-51618253D01*
X62135223Y-51601777D01*
X62118747Y-51583598D01*
X62104133Y-51563893D01*
X62091520Y-51542849D01*
X62081030Y-51520671D01*
X62072765Y-51497571D01*
X62066804Y-51473773D01*
X62063204Y-51449504D01*
X62062000Y-51425000D01*
X62062000Y-50175000D01*
X62063204Y-50150496D01*
X62066804Y-50126227D01*
X62072765Y-50102429D01*
X62081030Y-50079329D01*
X62091520Y-50057151D01*
X62104133Y-50036107D01*
X62118747Y-50016402D01*
X62135223Y-49998223D01*
X62153402Y-49981747D01*
X62173107Y-49967133D01*
X62194151Y-49954520D01*
X62216329Y-49944030D01*
X62239429Y-49935765D01*
X62263227Y-49929804D01*
X62287496Y-49926204D01*
X62312000Y-49925000D01*
X63237000Y-49925000D01*
X63261504Y-49926204D01*
G37*
G36*
X41671504Y-44846204D02*
G01*
X41695773Y-44849804D01*
X41719571Y-44855765D01*
X41742671Y-44864030D01*
X41764849Y-44874520D01*
X41785893Y-44887133D01*
X41805598Y-44901747D01*
X41823777Y-44918223D01*
X41840253Y-44936402D01*
X41854867Y-44956107D01*
X41867480Y-44977151D01*
X41877970Y-44999329D01*
X41886235Y-45022429D01*
X41892196Y-45046227D01*
X41895796Y-45070496D01*
X41897000Y-45095000D01*
X41897000Y-46345000D01*
X41895796Y-46369504D01*
X41892196Y-46393773D01*
X41886235Y-46417571D01*
X41877970Y-46440671D01*
X41867480Y-46462849D01*
X41854867Y-46483893D01*
X41840253Y-46503598D01*
X41823777Y-46521777D01*
X41805598Y-46538253D01*
X41785893Y-46552867D01*
X41764849Y-46565480D01*
X41742671Y-46575970D01*
X41719571Y-46584235D01*
X41695773Y-46590196D01*
X41671504Y-46593796D01*
X41647000Y-46595000D01*
X40722000Y-46595000D01*
X40697496Y-46593796D01*
X40673227Y-46590196D01*
X40649429Y-46584235D01*
X40626329Y-46575970D01*
X40604151Y-46565480D01*
X40583107Y-46552867D01*
X40563402Y-46538253D01*
X40545223Y-46521777D01*
X40528747Y-46503598D01*
X40514133Y-46483893D01*
X40501520Y-46462849D01*
X40491030Y-46440671D01*
X40482765Y-46417571D01*
X40476804Y-46393773D01*
X40473204Y-46369504D01*
X40472000Y-46345000D01*
X40472000Y-45095000D01*
X40473204Y-45070496D01*
X40476804Y-45046227D01*
X40482765Y-45022429D01*
X40491030Y-44999329D01*
X40501520Y-44977151D01*
X40514133Y-44956107D01*
X40528747Y-44936402D01*
X40545223Y-44918223D01*
X40563402Y-44901747D01*
X40583107Y-44887133D01*
X40604151Y-44874520D01*
X40626329Y-44864030D01*
X40649429Y-44855765D01*
X40673227Y-44849804D01*
X40697496Y-44846204D01*
X40722000Y-44845000D01*
X41647000Y-44845000D01*
X41671504Y-44846204D01*
G37*
G36*
X44646504Y-44846204D02*
G01*
X44670773Y-44849804D01*
X44694571Y-44855765D01*
X44717671Y-44864030D01*
X44739849Y-44874520D01*
X44760893Y-44887133D01*
X44780598Y-44901747D01*
X44798777Y-44918223D01*
X44815253Y-44936402D01*
X44829867Y-44956107D01*
X44842480Y-44977151D01*
X44852970Y-44999329D01*
X44861235Y-45022429D01*
X44867196Y-45046227D01*
X44870796Y-45070496D01*
X44872000Y-45095000D01*
X44872000Y-46345000D01*
X44870796Y-46369504D01*
X44867196Y-46393773D01*
X44861235Y-46417571D01*
X44852970Y-46440671D01*
X44842480Y-46462849D01*
X44829867Y-46483893D01*
X44815253Y-46503598D01*
X44798777Y-46521777D01*
X44780598Y-46538253D01*
X44760893Y-46552867D01*
X44739849Y-46565480D01*
X44717671Y-46575970D01*
X44694571Y-46584235D01*
X44670773Y-46590196D01*
X44646504Y-46593796D01*
X44622000Y-46595000D01*
X43697000Y-46595000D01*
X43672496Y-46593796D01*
X43648227Y-46590196D01*
X43624429Y-46584235D01*
X43601329Y-46575970D01*
X43579151Y-46565480D01*
X43558107Y-46552867D01*
X43538402Y-46538253D01*
X43520223Y-46521777D01*
X43503747Y-46503598D01*
X43489133Y-46483893D01*
X43476520Y-46462849D01*
X43466030Y-46440671D01*
X43457765Y-46417571D01*
X43451804Y-46393773D01*
X43448204Y-46369504D01*
X43447000Y-46345000D01*
X43447000Y-45095000D01*
X43448204Y-45070496D01*
X43451804Y-45046227D01*
X43457765Y-45022429D01*
X43466030Y-44999329D01*
X43476520Y-44977151D01*
X43489133Y-44956107D01*
X43503747Y-44936402D01*
X43520223Y-44918223D01*
X43538402Y-44901747D01*
X43558107Y-44887133D01*
X43579151Y-44874520D01*
X43601329Y-44864030D01*
X43624429Y-44855765D01*
X43648227Y-44849804D01*
X43672496Y-44846204D01*
X43697000Y-44845000D01*
X44622000Y-44845000D01*
X44646504Y-44846204D01*
G37*
G36*
X35575504Y-44846204D02*
G01*
X35599773Y-44849804D01*
X35623571Y-44855765D01*
X35646671Y-44864030D01*
X35668849Y-44874520D01*
X35689893Y-44887133D01*
X35709598Y-44901747D01*
X35727777Y-44918223D01*
X35744253Y-44936402D01*
X35758867Y-44956107D01*
X35771480Y-44977151D01*
X35781970Y-44999329D01*
X35790235Y-45022429D01*
X35796196Y-45046227D01*
X35799796Y-45070496D01*
X35801000Y-45095000D01*
X35801000Y-46345000D01*
X35799796Y-46369504D01*
X35796196Y-46393773D01*
X35790235Y-46417571D01*
X35781970Y-46440671D01*
X35771480Y-46462849D01*
X35758867Y-46483893D01*
X35744253Y-46503598D01*
X35727777Y-46521777D01*
X35709598Y-46538253D01*
X35689893Y-46552867D01*
X35668849Y-46565480D01*
X35646671Y-46575970D01*
X35623571Y-46584235D01*
X35599773Y-46590196D01*
X35575504Y-46593796D01*
X35551000Y-46595000D01*
X34626000Y-46595000D01*
X34601496Y-46593796D01*
X34577227Y-46590196D01*
X34553429Y-46584235D01*
X34530329Y-46575970D01*
X34508151Y-46565480D01*
X34487107Y-46552867D01*
X34467402Y-46538253D01*
X34449223Y-46521777D01*
X34432747Y-46503598D01*
X34418133Y-46483893D01*
X34405520Y-46462849D01*
X34395030Y-46440671D01*
X34386765Y-46417571D01*
X34380804Y-46393773D01*
X34377204Y-46369504D01*
X34376000Y-46345000D01*
X34376000Y-45095000D01*
X34377204Y-45070496D01*
X34380804Y-45046227D01*
X34386765Y-45022429D01*
X34395030Y-44999329D01*
X34405520Y-44977151D01*
X34418133Y-44956107D01*
X34432747Y-44936402D01*
X34449223Y-44918223D01*
X34467402Y-44901747D01*
X34487107Y-44887133D01*
X34508151Y-44874520D01*
X34530329Y-44864030D01*
X34553429Y-44855765D01*
X34577227Y-44849804D01*
X34601496Y-44846204D01*
X34626000Y-44845000D01*
X35551000Y-44845000D01*
X35575504Y-44846204D01*
G37*
G36*
X38550504Y-44846204D02*
G01*
X38574773Y-44849804D01*
X38598571Y-44855765D01*
X38621671Y-44864030D01*
X38643849Y-44874520D01*
X38664893Y-44887133D01*
X38684598Y-44901747D01*
X38702777Y-44918223D01*
X38719253Y-44936402D01*
X38733867Y-44956107D01*
X38746480Y-44977151D01*
X38756970Y-44999329D01*
X38765235Y-45022429D01*
X38771196Y-45046227D01*
X38774796Y-45070496D01*
X38776000Y-45095000D01*
X38776000Y-46345000D01*
X38774796Y-46369504D01*
X38771196Y-46393773D01*
X38765235Y-46417571D01*
X38756970Y-46440671D01*
X38746480Y-46462849D01*
X38733867Y-46483893D01*
X38719253Y-46503598D01*
X38702777Y-46521777D01*
X38684598Y-46538253D01*
X38664893Y-46552867D01*
X38643849Y-46565480D01*
X38621671Y-46575970D01*
X38598571Y-46584235D01*
X38574773Y-46590196D01*
X38550504Y-46593796D01*
X38526000Y-46595000D01*
X37601000Y-46595000D01*
X37576496Y-46593796D01*
X37552227Y-46590196D01*
X37528429Y-46584235D01*
X37505329Y-46575970D01*
X37483151Y-46565480D01*
X37462107Y-46552867D01*
X37442402Y-46538253D01*
X37424223Y-46521777D01*
X37407747Y-46503598D01*
X37393133Y-46483893D01*
X37380520Y-46462849D01*
X37370030Y-46440671D01*
X37361765Y-46417571D01*
X37355804Y-46393773D01*
X37352204Y-46369504D01*
X37351000Y-46345000D01*
X37351000Y-45095000D01*
X37352204Y-45070496D01*
X37355804Y-45046227D01*
X37361765Y-45022429D01*
X37370030Y-44999329D01*
X37380520Y-44977151D01*
X37393133Y-44956107D01*
X37407747Y-44936402D01*
X37424223Y-44918223D01*
X37442402Y-44901747D01*
X37462107Y-44887133D01*
X37483151Y-44874520D01*
X37505329Y-44864030D01*
X37528429Y-44855765D01*
X37552227Y-44849804D01*
X37576496Y-44846204D01*
X37601000Y-44845000D01*
X38526000Y-44845000D01*
X38550504Y-44846204D01*
G37*
G36*
X38550504Y-50942204D02*
G01*
X38574773Y-50945804D01*
X38598571Y-50951765D01*
X38621671Y-50960030D01*
X38643849Y-50970520D01*
X38664893Y-50983133D01*
X38684598Y-50997747D01*
X38702777Y-51014223D01*
X38719253Y-51032402D01*
X38733867Y-51052107D01*
X38746480Y-51073151D01*
X38756970Y-51095329D01*
X38765235Y-51118429D01*
X38771196Y-51142227D01*
X38774796Y-51166496D01*
X38776000Y-51191000D01*
X38776000Y-52441000D01*
X38774796Y-52465504D01*
X38771196Y-52489773D01*
X38765235Y-52513571D01*
X38756970Y-52536671D01*
X38746480Y-52558849D01*
X38733867Y-52579893D01*
X38719253Y-52599598D01*
X38702777Y-52617777D01*
X38684598Y-52634253D01*
X38664893Y-52648867D01*
X38643849Y-52661480D01*
X38621671Y-52671970D01*
X38598571Y-52680235D01*
X38574773Y-52686196D01*
X38550504Y-52689796D01*
X38526000Y-52691000D01*
X37601000Y-52691000D01*
X37576496Y-52689796D01*
X37552227Y-52686196D01*
X37528429Y-52680235D01*
X37505329Y-52671970D01*
X37483151Y-52661480D01*
X37462107Y-52648867D01*
X37442402Y-52634253D01*
X37424223Y-52617777D01*
X37407747Y-52599598D01*
X37393133Y-52579893D01*
X37380520Y-52558849D01*
X37370030Y-52536671D01*
X37361765Y-52513571D01*
X37355804Y-52489773D01*
X37352204Y-52465504D01*
X37351000Y-52441000D01*
X37351000Y-51191000D01*
X37352204Y-51166496D01*
X37355804Y-51142227D01*
X37361765Y-51118429D01*
X37370030Y-51095329D01*
X37380520Y-51073151D01*
X37393133Y-51052107D01*
X37407747Y-51032402D01*
X37424223Y-51014223D01*
X37442402Y-50997747D01*
X37462107Y-50983133D01*
X37483151Y-50970520D01*
X37505329Y-50960030D01*
X37528429Y-50951765D01*
X37552227Y-50945804D01*
X37576496Y-50942204D01*
X37601000Y-50941000D01*
X38526000Y-50941000D01*
X38550504Y-50942204D01*
G37*
G36*
X35575504Y-50942204D02*
G01*
X35599773Y-50945804D01*
X35623571Y-50951765D01*
X35646671Y-50960030D01*
X35668849Y-50970520D01*
X35689893Y-50983133D01*
X35709598Y-50997747D01*
X35727777Y-51014223D01*
X35744253Y-51032402D01*
X35758867Y-51052107D01*
X35771480Y-51073151D01*
X35781970Y-51095329D01*
X35790235Y-51118429D01*
X35796196Y-51142227D01*
X35799796Y-51166496D01*
X35801000Y-51191000D01*
X35801000Y-52441000D01*
X35799796Y-52465504D01*
X35796196Y-52489773D01*
X35790235Y-52513571D01*
X35781970Y-52536671D01*
X35771480Y-52558849D01*
X35758867Y-52579893D01*
X35744253Y-52599598D01*
X35727777Y-52617777D01*
X35709598Y-52634253D01*
X35689893Y-52648867D01*
X35668849Y-52661480D01*
X35646671Y-52671970D01*
X35623571Y-52680235D01*
X35599773Y-52686196D01*
X35575504Y-52689796D01*
X35551000Y-52691000D01*
X34626000Y-52691000D01*
X34601496Y-52689796D01*
X34577227Y-52686196D01*
X34553429Y-52680235D01*
X34530329Y-52671970D01*
X34508151Y-52661480D01*
X34487107Y-52648867D01*
X34467402Y-52634253D01*
X34449223Y-52617777D01*
X34432747Y-52599598D01*
X34418133Y-52579893D01*
X34405520Y-52558849D01*
X34395030Y-52536671D01*
X34386765Y-52513571D01*
X34380804Y-52489773D01*
X34377204Y-52465504D01*
X34376000Y-52441000D01*
X34376000Y-51191000D01*
X34377204Y-51166496D01*
X34380804Y-51142227D01*
X34386765Y-51118429D01*
X34395030Y-51095329D01*
X34405520Y-51073151D01*
X34418133Y-51052107D01*
X34432747Y-51032402D01*
X34449223Y-51014223D01*
X34467402Y-50997747D01*
X34487107Y-50983133D01*
X34508151Y-50970520D01*
X34530329Y-50960030D01*
X34553429Y-50951765D01*
X34577227Y-50945804D01*
X34601496Y-50942204D01*
X34626000Y-50941000D01*
X35551000Y-50941000D01*
X35575504Y-50942204D01*
G37*
G36*
X38550504Y-47894204D02*
G01*
X38574773Y-47897804D01*
X38598571Y-47903765D01*
X38621671Y-47912030D01*
X38643849Y-47922520D01*
X38664893Y-47935133D01*
X38684598Y-47949747D01*
X38702777Y-47966223D01*
X38719253Y-47984402D01*
X38733867Y-48004107D01*
X38746480Y-48025151D01*
X38756970Y-48047329D01*
X38765235Y-48070429D01*
X38771196Y-48094227D01*
X38774796Y-48118496D01*
X38776000Y-48143000D01*
X38776000Y-49393000D01*
X38774796Y-49417504D01*
X38771196Y-49441773D01*
X38765235Y-49465571D01*
X38756970Y-49488671D01*
X38746480Y-49510849D01*
X38733867Y-49531893D01*
X38719253Y-49551598D01*
X38702777Y-49569777D01*
X38684598Y-49586253D01*
X38664893Y-49600867D01*
X38643849Y-49613480D01*
X38621671Y-49623970D01*
X38598571Y-49632235D01*
X38574773Y-49638196D01*
X38550504Y-49641796D01*
X38526000Y-49643000D01*
X37601000Y-49643000D01*
X37576496Y-49641796D01*
X37552227Y-49638196D01*
X37528429Y-49632235D01*
X37505329Y-49623970D01*
X37483151Y-49613480D01*
X37462107Y-49600867D01*
X37442402Y-49586253D01*
X37424223Y-49569777D01*
X37407747Y-49551598D01*
X37393133Y-49531893D01*
X37380520Y-49510849D01*
X37370030Y-49488671D01*
X37361765Y-49465571D01*
X37355804Y-49441773D01*
X37352204Y-49417504D01*
X37351000Y-49393000D01*
X37351000Y-48143000D01*
X37352204Y-48118496D01*
X37355804Y-48094227D01*
X37361765Y-48070429D01*
X37370030Y-48047329D01*
X37380520Y-48025151D01*
X37393133Y-48004107D01*
X37407747Y-47984402D01*
X37424223Y-47966223D01*
X37442402Y-47949747D01*
X37462107Y-47935133D01*
X37483151Y-47922520D01*
X37505329Y-47912030D01*
X37528429Y-47903765D01*
X37552227Y-47897804D01*
X37576496Y-47894204D01*
X37601000Y-47893000D01*
X38526000Y-47893000D01*
X38550504Y-47894204D01*
G37*
G36*
X35575504Y-47894204D02*
G01*
X35599773Y-47897804D01*
X35623571Y-47903765D01*
X35646671Y-47912030D01*
X35668849Y-47922520D01*
X35689893Y-47935133D01*
X35709598Y-47949747D01*
X35727777Y-47966223D01*
X35744253Y-47984402D01*
X35758867Y-48004107D01*
X35771480Y-48025151D01*
X35781970Y-48047329D01*
X35790235Y-48070429D01*
X35796196Y-48094227D01*
X35799796Y-48118496D01*
X35801000Y-48143000D01*
X35801000Y-49393000D01*
X35799796Y-49417504D01*
X35796196Y-49441773D01*
X35790235Y-49465571D01*
X35781970Y-49488671D01*
X35771480Y-49510849D01*
X35758867Y-49531893D01*
X35744253Y-49551598D01*
X35727777Y-49569777D01*
X35709598Y-49586253D01*
X35689893Y-49600867D01*
X35668849Y-49613480D01*
X35646671Y-49623970D01*
X35623571Y-49632235D01*
X35599773Y-49638196D01*
X35575504Y-49641796D01*
X35551000Y-49643000D01*
X34626000Y-49643000D01*
X34601496Y-49641796D01*
X34577227Y-49638196D01*
X34553429Y-49632235D01*
X34530329Y-49623970D01*
X34508151Y-49613480D01*
X34487107Y-49600867D01*
X34467402Y-49586253D01*
X34449223Y-49569777D01*
X34432747Y-49551598D01*
X34418133Y-49531893D01*
X34405520Y-49510849D01*
X34395030Y-49488671D01*
X34386765Y-49465571D01*
X34380804Y-49441773D01*
X34377204Y-49417504D01*
X34376000Y-49393000D01*
X34376000Y-48143000D01*
X34377204Y-48118496D01*
X34380804Y-48094227D01*
X34386765Y-48070429D01*
X34395030Y-48047329D01*
X34405520Y-48025151D01*
X34418133Y-48004107D01*
X34432747Y-47984402D01*
X34449223Y-47966223D01*
X34467402Y-47949747D01*
X34487107Y-47935133D01*
X34508151Y-47922520D01*
X34530329Y-47912030D01*
X34553429Y-47903765D01*
X34577227Y-47897804D01*
X34601496Y-47894204D01*
X34626000Y-47893000D01*
X35551000Y-47893000D01*
X35575504Y-47894204D01*
G37*
G36*
X31438504Y-60594204D02*
G01*
X31462773Y-60597804D01*
X31486571Y-60603765D01*
X31509671Y-60612030D01*
X31531849Y-60622520D01*
X31552893Y-60635133D01*
X31572598Y-60649747D01*
X31590777Y-60666223D01*
X31607253Y-60684402D01*
X31621867Y-60704107D01*
X31634480Y-60725151D01*
X31644970Y-60747329D01*
X31653235Y-60770429D01*
X31659196Y-60794227D01*
X31662796Y-60818496D01*
X31664000Y-60843000D01*
X31664000Y-62093000D01*
X31662796Y-62117504D01*
X31659196Y-62141773D01*
X31653235Y-62165571D01*
X31644970Y-62188671D01*
X31634480Y-62210849D01*
X31621867Y-62231893D01*
X31607253Y-62251598D01*
X31590777Y-62269777D01*
X31572598Y-62286253D01*
X31552893Y-62300867D01*
X31531849Y-62313480D01*
X31509671Y-62323970D01*
X31486571Y-62332235D01*
X31462773Y-62338196D01*
X31438504Y-62341796D01*
X31414000Y-62343000D01*
X30489000Y-62343000D01*
X30464496Y-62341796D01*
X30440227Y-62338196D01*
X30416429Y-62332235D01*
X30393329Y-62323970D01*
X30371151Y-62313480D01*
X30350107Y-62300867D01*
X30330402Y-62286253D01*
X30312223Y-62269777D01*
X30295747Y-62251598D01*
X30281133Y-62231893D01*
X30268520Y-62210849D01*
X30258030Y-62188671D01*
X30249765Y-62165571D01*
X30243804Y-62141773D01*
X30240204Y-62117504D01*
X30239000Y-62093000D01*
X30239000Y-60843000D01*
X30240204Y-60818496D01*
X30243804Y-60794227D01*
X30249765Y-60770429D01*
X30258030Y-60747329D01*
X30268520Y-60725151D01*
X30281133Y-60704107D01*
X30295747Y-60684402D01*
X30312223Y-60666223D01*
X30330402Y-60649747D01*
X30350107Y-60635133D01*
X30371151Y-60622520D01*
X30393329Y-60612030D01*
X30416429Y-60603765D01*
X30440227Y-60597804D01*
X30464496Y-60594204D01*
X30489000Y-60593000D01*
X31414000Y-60593000D01*
X31438504Y-60594204D01*
G37*
G36*
X28463504Y-60594204D02*
G01*
X28487773Y-60597804D01*
X28511571Y-60603765D01*
X28534671Y-60612030D01*
X28556849Y-60622520D01*
X28577893Y-60635133D01*
X28597598Y-60649747D01*
X28615777Y-60666223D01*
X28632253Y-60684402D01*
X28646867Y-60704107D01*
X28659480Y-60725151D01*
X28669970Y-60747329D01*
X28678235Y-60770429D01*
X28684196Y-60794227D01*
X28687796Y-60818496D01*
X28689000Y-60843000D01*
X28689000Y-62093000D01*
X28687796Y-62117504D01*
X28684196Y-62141773D01*
X28678235Y-62165571D01*
X28669970Y-62188671D01*
X28659480Y-62210849D01*
X28646867Y-62231893D01*
X28632253Y-62251598D01*
X28615777Y-62269777D01*
X28597598Y-62286253D01*
X28577893Y-62300867D01*
X28556849Y-62313480D01*
X28534671Y-62323970D01*
X28511571Y-62332235D01*
X28487773Y-62338196D01*
X28463504Y-62341796D01*
X28439000Y-62343000D01*
X27514000Y-62343000D01*
X27489496Y-62341796D01*
X27465227Y-62338196D01*
X27441429Y-62332235D01*
X27418329Y-62323970D01*
X27396151Y-62313480D01*
X27375107Y-62300867D01*
X27355402Y-62286253D01*
X27337223Y-62269777D01*
X27320747Y-62251598D01*
X27306133Y-62231893D01*
X27293520Y-62210849D01*
X27283030Y-62188671D01*
X27274765Y-62165571D01*
X27268804Y-62141773D01*
X27265204Y-62117504D01*
X27264000Y-62093000D01*
X27264000Y-60843000D01*
X27265204Y-60818496D01*
X27268804Y-60794227D01*
X27274765Y-60770429D01*
X27283030Y-60747329D01*
X27293520Y-60725151D01*
X27306133Y-60704107D01*
X27320747Y-60684402D01*
X27337223Y-60666223D01*
X27355402Y-60649747D01*
X27375107Y-60635133D01*
X27396151Y-60622520D01*
X27418329Y-60612030D01*
X27441429Y-60603765D01*
X27465227Y-60597804D01*
X27489496Y-60594204D01*
X27514000Y-60593000D01*
X28439000Y-60593000D01*
X28463504Y-60594204D01*
G37*
D11*
X57669000Y-44247000D03*
X57669000Y-43197000D03*
X57669000Y-42147000D03*
X57669000Y-41097000D03*
X59679000Y-41097000D03*
X59679000Y-42147000D03*
X59679000Y-43197000D03*
X59679000Y-44247000D03*
D12*
X62560200Y-82931000D03*
X62560200Y-81661000D03*
X62560200Y-80391000D03*
X62560200Y-79121000D03*
X67487800Y-79121000D03*
X67487800Y-80391000D03*
X67487800Y-81661000D03*
X67487800Y-82931000D03*
D13*
X40587000Y-59421000D03*
X40587000Y-60471000D03*
X40587000Y-61521000D03*
X40587000Y-62571000D03*
X38627000Y-62571000D03*
X38627000Y-61521000D03*
X38627000Y-60471000D03*
X38627000Y-59421000D03*
D10*
G36*
X34488505Y-79653203D02*
G01*
X34512774Y-79656803D01*
X34536572Y-79662764D01*
X34559672Y-79671029D01*
X34581850Y-79681519D01*
X34602894Y-79694132D01*
X34622599Y-79708746D01*
X34640778Y-79725222D01*
X34657254Y-79743401D01*
X34671868Y-79763106D01*
X34684481Y-79784150D01*
X34694971Y-79806328D01*
X34703236Y-79829428D01*
X34709197Y-79853226D01*
X34712797Y-79877495D01*
X34714001Y-79901999D01*
X34714001Y-80826999D01*
X34712797Y-80851503D01*
X34709197Y-80875772D01*
X34703236Y-80899570D01*
X34694971Y-80922670D01*
X34684481Y-80944848D01*
X34671868Y-80965892D01*
X34657254Y-80985597D01*
X34640778Y-81003776D01*
X34622599Y-81020252D01*
X34602894Y-81034866D01*
X34581850Y-81047479D01*
X34559672Y-81057969D01*
X34536572Y-81066234D01*
X34512774Y-81072195D01*
X34488505Y-81075795D01*
X34464001Y-81076999D01*
X33214001Y-81076999D01*
X33189497Y-81075795D01*
X33165228Y-81072195D01*
X33141430Y-81066234D01*
X33118330Y-81057969D01*
X33096152Y-81047479D01*
X33075108Y-81034866D01*
X33055403Y-81020252D01*
X33037224Y-81003776D01*
X33020748Y-80985597D01*
X33006134Y-80965892D01*
X32993521Y-80944848D01*
X32983031Y-80922670D01*
X32974766Y-80899570D01*
X32968805Y-80875772D01*
X32965205Y-80851503D01*
X32964001Y-80826999D01*
X32964001Y-79901999D01*
X32965205Y-79877495D01*
X32968805Y-79853226D01*
X32974766Y-79829428D01*
X32983031Y-79806328D01*
X32993521Y-79784150D01*
X33006134Y-79763106D01*
X33020748Y-79743401D01*
X33037224Y-79725222D01*
X33055403Y-79708746D01*
X33075108Y-79694132D01*
X33096152Y-79681519D01*
X33118330Y-79671029D01*
X33141430Y-79662764D01*
X33165228Y-79656803D01*
X33189497Y-79653203D01*
X33214001Y-79651999D01*
X34464001Y-79651999D01*
X34488505Y-79653203D01*
G37*
G36*
X34488505Y-76678203D02*
G01*
X34512774Y-76681803D01*
X34536572Y-76687764D01*
X34559672Y-76696029D01*
X34581850Y-76706519D01*
X34602894Y-76719132D01*
X34622599Y-76733746D01*
X34640778Y-76750222D01*
X34657254Y-76768401D01*
X34671868Y-76788106D01*
X34684481Y-76809150D01*
X34694971Y-76831328D01*
X34703236Y-76854428D01*
X34709197Y-76878226D01*
X34712797Y-76902495D01*
X34714001Y-76926999D01*
X34714001Y-77851999D01*
X34712797Y-77876503D01*
X34709197Y-77900772D01*
X34703236Y-77924570D01*
X34694971Y-77947670D01*
X34684481Y-77969848D01*
X34671868Y-77990892D01*
X34657254Y-78010597D01*
X34640778Y-78028776D01*
X34622599Y-78045252D01*
X34602894Y-78059866D01*
X34581850Y-78072479D01*
X34559672Y-78082969D01*
X34536572Y-78091234D01*
X34512774Y-78097195D01*
X34488505Y-78100795D01*
X34464001Y-78101999D01*
X33214001Y-78101999D01*
X33189497Y-78100795D01*
X33165228Y-78097195D01*
X33141430Y-78091234D01*
X33118330Y-78082969D01*
X33096152Y-78072479D01*
X33075108Y-78059866D01*
X33055403Y-78045252D01*
X33037224Y-78028776D01*
X33020748Y-78010597D01*
X33006134Y-77990892D01*
X32993521Y-77969848D01*
X32983031Y-77947670D01*
X32974766Y-77924570D01*
X32968805Y-77900772D01*
X32965205Y-77876503D01*
X32964001Y-77851999D01*
X32964001Y-76926999D01*
X32965205Y-76902495D01*
X32968805Y-76878226D01*
X32974766Y-76854428D01*
X32983031Y-76831328D01*
X32993521Y-76809150D01*
X33006134Y-76788106D01*
X33020748Y-76768401D01*
X33037224Y-76750222D01*
X33055403Y-76733746D01*
X33075108Y-76719132D01*
X33096152Y-76706519D01*
X33118330Y-76696029D01*
X33141430Y-76687764D01*
X33165228Y-76681803D01*
X33189497Y-76678203D01*
X33214001Y-76676999D01*
X34464001Y-76676999D01*
X34488505Y-76678203D01*
G37*
G36*
X31637504Y-76795204D02*
G01*
X31661773Y-76798804D01*
X31685571Y-76804765D01*
X31708671Y-76813030D01*
X31730849Y-76823520D01*
X31751893Y-76836133D01*
X31771598Y-76850747D01*
X31789777Y-76867223D01*
X31806253Y-76885402D01*
X31820867Y-76905107D01*
X31833480Y-76926151D01*
X31843970Y-76948329D01*
X31852235Y-76971429D01*
X31858196Y-76995227D01*
X31861796Y-77019496D01*
X31863000Y-77044000D01*
X31863000Y-77969000D01*
X31861796Y-77993504D01*
X31858196Y-78017773D01*
X31852235Y-78041571D01*
X31843970Y-78064671D01*
X31833480Y-78086849D01*
X31820867Y-78107893D01*
X31806253Y-78127598D01*
X31789777Y-78145777D01*
X31771598Y-78162253D01*
X31751893Y-78176867D01*
X31730849Y-78189480D01*
X31708671Y-78199970D01*
X31685571Y-78208235D01*
X31661773Y-78214196D01*
X31637504Y-78217796D01*
X31613000Y-78219000D01*
X30363000Y-78219000D01*
X30338496Y-78217796D01*
X30314227Y-78214196D01*
X30290429Y-78208235D01*
X30267329Y-78199970D01*
X30245151Y-78189480D01*
X30224107Y-78176867D01*
X30204402Y-78162253D01*
X30186223Y-78145777D01*
X30169747Y-78127598D01*
X30155133Y-78107893D01*
X30142520Y-78086849D01*
X30132030Y-78064671D01*
X30123765Y-78041571D01*
X30117804Y-78017773D01*
X30114204Y-77993504D01*
X30113000Y-77969000D01*
X30113000Y-77044000D01*
X30114204Y-77019496D01*
X30117804Y-76995227D01*
X30123765Y-76971429D01*
X30132030Y-76948329D01*
X30142520Y-76926151D01*
X30155133Y-76905107D01*
X30169747Y-76885402D01*
X30186223Y-76867223D01*
X30204402Y-76850747D01*
X30224107Y-76836133D01*
X30245151Y-76823520D01*
X30267329Y-76813030D01*
X30290429Y-76804765D01*
X30314227Y-76798804D01*
X30338496Y-76795204D01*
X30363000Y-76794000D01*
X31613000Y-76794000D01*
X31637504Y-76795204D01*
G37*
G36*
X31637504Y-79770204D02*
G01*
X31661773Y-79773804D01*
X31685571Y-79779765D01*
X31708671Y-79788030D01*
X31730849Y-79798520D01*
X31751893Y-79811133D01*
X31771598Y-79825747D01*
X31789777Y-79842223D01*
X31806253Y-79860402D01*
X31820867Y-79880107D01*
X31833480Y-79901151D01*
X31843970Y-79923329D01*
X31852235Y-79946429D01*
X31858196Y-79970227D01*
X31861796Y-79994496D01*
X31863000Y-80019000D01*
X31863000Y-80944000D01*
X31861796Y-80968504D01*
X31858196Y-80992773D01*
X31852235Y-81016571D01*
X31843970Y-81039671D01*
X31833480Y-81061849D01*
X31820867Y-81082893D01*
X31806253Y-81102598D01*
X31789777Y-81120777D01*
X31771598Y-81137253D01*
X31751893Y-81151867D01*
X31730849Y-81164480D01*
X31708671Y-81174970D01*
X31685571Y-81183235D01*
X31661773Y-81189196D01*
X31637504Y-81192796D01*
X31613000Y-81194000D01*
X30363000Y-81194000D01*
X30338496Y-81192796D01*
X30314227Y-81189196D01*
X30290429Y-81183235D01*
X30267329Y-81174970D01*
X30245151Y-81164480D01*
X30224107Y-81151867D01*
X30204402Y-81137253D01*
X30186223Y-81120777D01*
X30169747Y-81102598D01*
X30155133Y-81082893D01*
X30142520Y-81061849D01*
X30132030Y-81039671D01*
X30123765Y-81016571D01*
X30117804Y-80992773D01*
X30114204Y-80968504D01*
X30113000Y-80944000D01*
X30113000Y-80019000D01*
X30114204Y-79994496D01*
X30117804Y-79970227D01*
X30123765Y-79946429D01*
X30132030Y-79923329D01*
X30142520Y-79901151D01*
X30155133Y-79880107D01*
X30169747Y-79860402D01*
X30186223Y-79842223D01*
X30204402Y-79825747D01*
X30224107Y-79811133D01*
X30245151Y-79798520D01*
X30267329Y-79788030D01*
X30290429Y-79779765D01*
X30314227Y-79773804D01*
X30338496Y-79770204D01*
X30363000Y-79769000D01*
X31613000Y-79769000D01*
X31637504Y-79770204D01*
G37*
G36*
X37778505Y-76678203D02*
G01*
X37802774Y-76681803D01*
X37826572Y-76687764D01*
X37849672Y-76696029D01*
X37871850Y-76706519D01*
X37892894Y-76719132D01*
X37912599Y-76733746D01*
X37930778Y-76750222D01*
X37947254Y-76768401D01*
X37961868Y-76788106D01*
X37974481Y-76809150D01*
X37984971Y-76831328D01*
X37993236Y-76854428D01*
X37999197Y-76878226D01*
X38002797Y-76902495D01*
X38004001Y-76926999D01*
X38004001Y-77851999D01*
X38002797Y-77876503D01*
X37999197Y-77900772D01*
X37993236Y-77924570D01*
X37984971Y-77947670D01*
X37974481Y-77969848D01*
X37961868Y-77990892D01*
X37947254Y-78010597D01*
X37930778Y-78028776D01*
X37912599Y-78045252D01*
X37892894Y-78059866D01*
X37871850Y-78072479D01*
X37849672Y-78082969D01*
X37826572Y-78091234D01*
X37802774Y-78097195D01*
X37778505Y-78100795D01*
X37754001Y-78101999D01*
X36504001Y-78101999D01*
X36479497Y-78100795D01*
X36455228Y-78097195D01*
X36431430Y-78091234D01*
X36408330Y-78082969D01*
X36386152Y-78072479D01*
X36365108Y-78059866D01*
X36345403Y-78045252D01*
X36327224Y-78028776D01*
X36310748Y-78010597D01*
X36296134Y-77990892D01*
X36283521Y-77969848D01*
X36273031Y-77947670D01*
X36264766Y-77924570D01*
X36258805Y-77900772D01*
X36255205Y-77876503D01*
X36254001Y-77851999D01*
X36254001Y-76926999D01*
X36255205Y-76902495D01*
X36258805Y-76878226D01*
X36264766Y-76854428D01*
X36273031Y-76831328D01*
X36283521Y-76809150D01*
X36296134Y-76788106D01*
X36310748Y-76768401D01*
X36327224Y-76750222D01*
X36345403Y-76733746D01*
X36365108Y-76719132D01*
X36386152Y-76706519D01*
X36408330Y-76696029D01*
X36431430Y-76687764D01*
X36455228Y-76681803D01*
X36479497Y-76678203D01*
X36504001Y-76676999D01*
X37754001Y-76676999D01*
X37778505Y-76678203D01*
G37*
G36*
X37778505Y-79653203D02*
G01*
X37802774Y-79656803D01*
X37826572Y-79662764D01*
X37849672Y-79671029D01*
X37871850Y-79681519D01*
X37892894Y-79694132D01*
X37912599Y-79708746D01*
X37930778Y-79725222D01*
X37947254Y-79743401D01*
X37961868Y-79763106D01*
X37974481Y-79784150D01*
X37984971Y-79806328D01*
X37993236Y-79829428D01*
X37999197Y-79853226D01*
X38002797Y-79877495D01*
X38004001Y-79901999D01*
X38004001Y-80826999D01*
X38002797Y-80851503D01*
X37999197Y-80875772D01*
X37993236Y-80899570D01*
X37984971Y-80922670D01*
X37974481Y-80944848D01*
X37961868Y-80965892D01*
X37947254Y-80985597D01*
X37930778Y-81003776D01*
X37912599Y-81020252D01*
X37892894Y-81034866D01*
X37871850Y-81047479D01*
X37849672Y-81057969D01*
X37826572Y-81066234D01*
X37802774Y-81072195D01*
X37778505Y-81075795D01*
X37754001Y-81076999D01*
X36504001Y-81076999D01*
X36479497Y-81075795D01*
X36455228Y-81072195D01*
X36431430Y-81066234D01*
X36408330Y-81057969D01*
X36386152Y-81047479D01*
X36365108Y-81034866D01*
X36345403Y-81020252D01*
X36327224Y-81003776D01*
X36310748Y-80985597D01*
X36296134Y-80965892D01*
X36283521Y-80944848D01*
X36273031Y-80922670D01*
X36264766Y-80899570D01*
X36258805Y-80875772D01*
X36255205Y-80851503D01*
X36254001Y-80826999D01*
X36254001Y-79901999D01*
X36255205Y-79877495D01*
X36258805Y-79853226D01*
X36264766Y-79829428D01*
X36273031Y-79806328D01*
X36283521Y-79784150D01*
X36296134Y-79763106D01*
X36310748Y-79743401D01*
X36327224Y-79725222D01*
X36345403Y-79708746D01*
X36365108Y-79694132D01*
X36386152Y-79681519D01*
X36408330Y-79671029D01*
X36431430Y-79662764D01*
X36455228Y-79656803D01*
X36479497Y-79653203D01*
X36504001Y-79651999D01*
X37754001Y-79651999D01*
X37778505Y-79653203D01*
G37*
G36*
X60648504Y-46370204D02*
G01*
X60672773Y-46373804D01*
X60696571Y-46379765D01*
X60719671Y-46388030D01*
X60741849Y-46398520D01*
X60762893Y-46411133D01*
X60782598Y-46425747D01*
X60800777Y-46442223D01*
X60817253Y-46460402D01*
X60831867Y-46480107D01*
X60844480Y-46501151D01*
X60854970Y-46523329D01*
X60863235Y-46546429D01*
X60869196Y-46570227D01*
X60872796Y-46594496D01*
X60874000Y-46619000D01*
X60874000Y-47869000D01*
X60872796Y-47893504D01*
X60869196Y-47917773D01*
X60863235Y-47941571D01*
X60854970Y-47964671D01*
X60844480Y-47986849D01*
X60831867Y-48007893D01*
X60817253Y-48027598D01*
X60800777Y-48045777D01*
X60782598Y-48062253D01*
X60762893Y-48076867D01*
X60741849Y-48089480D01*
X60719671Y-48099970D01*
X60696571Y-48108235D01*
X60672773Y-48114196D01*
X60648504Y-48117796D01*
X60624000Y-48119000D01*
X59699000Y-48119000D01*
X59674496Y-48117796D01*
X59650227Y-48114196D01*
X59626429Y-48108235D01*
X59603329Y-48099970D01*
X59581151Y-48089480D01*
X59560107Y-48076867D01*
X59540402Y-48062253D01*
X59522223Y-48045777D01*
X59505747Y-48027598D01*
X59491133Y-48007893D01*
X59478520Y-47986849D01*
X59468030Y-47964671D01*
X59459765Y-47941571D01*
X59453804Y-47917773D01*
X59450204Y-47893504D01*
X59449000Y-47869000D01*
X59449000Y-46619000D01*
X59450204Y-46594496D01*
X59453804Y-46570227D01*
X59459765Y-46546429D01*
X59468030Y-46523329D01*
X59478520Y-46501151D01*
X59491133Y-46480107D01*
X59505747Y-46460402D01*
X59522223Y-46442223D01*
X59540402Y-46425747D01*
X59560107Y-46411133D01*
X59581151Y-46398520D01*
X59603329Y-46388030D01*
X59626429Y-46379765D01*
X59650227Y-46373804D01*
X59674496Y-46370204D01*
X59699000Y-46369000D01*
X60624000Y-46369000D01*
X60648504Y-46370204D01*
G37*
G36*
X57673504Y-46370204D02*
G01*
X57697773Y-46373804D01*
X57721571Y-46379765D01*
X57744671Y-46388030D01*
X57766849Y-46398520D01*
X57787893Y-46411133D01*
X57807598Y-46425747D01*
X57825777Y-46442223D01*
X57842253Y-46460402D01*
X57856867Y-46480107D01*
X57869480Y-46501151D01*
X57879970Y-46523329D01*
X57888235Y-46546429D01*
X57894196Y-46570227D01*
X57897796Y-46594496D01*
X57899000Y-46619000D01*
X57899000Y-47869000D01*
X57897796Y-47893504D01*
X57894196Y-47917773D01*
X57888235Y-47941571D01*
X57879970Y-47964671D01*
X57869480Y-47986849D01*
X57856867Y-48007893D01*
X57842253Y-48027598D01*
X57825777Y-48045777D01*
X57807598Y-48062253D01*
X57787893Y-48076867D01*
X57766849Y-48089480D01*
X57744671Y-48099970D01*
X57721571Y-48108235D01*
X57697773Y-48114196D01*
X57673504Y-48117796D01*
X57649000Y-48119000D01*
X56724000Y-48119000D01*
X56699496Y-48117796D01*
X56675227Y-48114196D01*
X56651429Y-48108235D01*
X56628329Y-48099970D01*
X56606151Y-48089480D01*
X56585107Y-48076867D01*
X56565402Y-48062253D01*
X56547223Y-48045777D01*
X56530747Y-48027598D01*
X56516133Y-48007893D01*
X56503520Y-47986849D01*
X56493030Y-47964671D01*
X56484765Y-47941571D01*
X56478804Y-47917773D01*
X56475204Y-47893504D01*
X56474000Y-47869000D01*
X56474000Y-46619000D01*
X56475204Y-46594496D01*
X56478804Y-46570227D01*
X56484765Y-46546429D01*
X56493030Y-46523329D01*
X56503520Y-46501151D01*
X56516133Y-46480107D01*
X56530747Y-46460402D01*
X56547223Y-46442223D01*
X56565402Y-46425747D01*
X56585107Y-46411133D01*
X56606151Y-46398520D01*
X56628329Y-46388030D01*
X56651429Y-46379765D01*
X56675227Y-46373804D01*
X56699496Y-46370204D01*
X56724000Y-46369000D01*
X57649000Y-46369000D01*
X57673504Y-46370204D01*
G37*
G36*
X60648504Y-49962704D02*
G01*
X60672773Y-49966304D01*
X60696571Y-49972265D01*
X60719671Y-49980530D01*
X60741849Y-49991020D01*
X60762893Y-50003633D01*
X60782598Y-50018247D01*
X60800777Y-50034723D01*
X60817253Y-50052902D01*
X60831867Y-50072607D01*
X60844480Y-50093651D01*
X60854970Y-50115829D01*
X60863235Y-50138929D01*
X60869196Y-50162727D01*
X60872796Y-50186996D01*
X60874000Y-50211500D01*
X60874000Y-51461500D01*
X60872796Y-51486004D01*
X60869196Y-51510273D01*
X60863235Y-51534071D01*
X60854970Y-51557171D01*
X60844480Y-51579349D01*
X60831867Y-51600393D01*
X60817253Y-51620098D01*
X60800777Y-51638277D01*
X60782598Y-51654753D01*
X60762893Y-51669367D01*
X60741849Y-51681980D01*
X60719671Y-51692470D01*
X60696571Y-51700735D01*
X60672773Y-51706696D01*
X60648504Y-51710296D01*
X60624000Y-51711500D01*
X59699000Y-51711500D01*
X59674496Y-51710296D01*
X59650227Y-51706696D01*
X59626429Y-51700735D01*
X59603329Y-51692470D01*
X59581151Y-51681980D01*
X59560107Y-51669367D01*
X59540402Y-51654753D01*
X59522223Y-51638277D01*
X59505747Y-51620098D01*
X59491133Y-51600393D01*
X59478520Y-51579349D01*
X59468030Y-51557171D01*
X59459765Y-51534071D01*
X59453804Y-51510273D01*
X59450204Y-51486004D01*
X59449000Y-51461500D01*
X59449000Y-50211500D01*
X59450204Y-50186996D01*
X59453804Y-50162727D01*
X59459765Y-50138929D01*
X59468030Y-50115829D01*
X59478520Y-50093651D01*
X59491133Y-50072607D01*
X59505747Y-50052902D01*
X59522223Y-50034723D01*
X59540402Y-50018247D01*
X59560107Y-50003633D01*
X59581151Y-49991020D01*
X59603329Y-49980530D01*
X59626429Y-49972265D01*
X59650227Y-49966304D01*
X59674496Y-49962704D01*
X59699000Y-49961500D01*
X60624000Y-49961500D01*
X60648504Y-49962704D01*
G37*
G36*
X57673504Y-49962704D02*
G01*
X57697773Y-49966304D01*
X57721571Y-49972265D01*
X57744671Y-49980530D01*
X57766849Y-49991020D01*
X57787893Y-50003633D01*
X57807598Y-50018247D01*
X57825777Y-50034723D01*
X57842253Y-50052902D01*
X57856867Y-50072607D01*
X57869480Y-50093651D01*
X57879970Y-50115829D01*
X57888235Y-50138929D01*
X57894196Y-50162727D01*
X57897796Y-50186996D01*
X57899000Y-50211500D01*
X57899000Y-51461500D01*
X57897796Y-51486004D01*
X57894196Y-51510273D01*
X57888235Y-51534071D01*
X57879970Y-51557171D01*
X57869480Y-51579349D01*
X57856867Y-51600393D01*
X57842253Y-51620098D01*
X57825777Y-51638277D01*
X57807598Y-51654753D01*
X57787893Y-51669367D01*
X57766849Y-51681980D01*
X57744671Y-51692470D01*
X57721571Y-51700735D01*
X57697773Y-51706696D01*
X57673504Y-51710296D01*
X57649000Y-51711500D01*
X56724000Y-51711500D01*
X56699496Y-51710296D01*
X56675227Y-51706696D01*
X56651429Y-51700735D01*
X56628329Y-51692470D01*
X56606151Y-51681980D01*
X56585107Y-51669367D01*
X56565402Y-51654753D01*
X56547223Y-51638277D01*
X56530747Y-51620098D01*
X56516133Y-51600393D01*
X56503520Y-51579349D01*
X56493030Y-51557171D01*
X56484765Y-51534071D01*
X56478804Y-51510273D01*
X56475204Y-51486004D01*
X56474000Y-51461500D01*
X56474000Y-50211500D01*
X56475204Y-50186996D01*
X56478804Y-50162727D01*
X56484765Y-50138929D01*
X56493030Y-50115829D01*
X56503520Y-50093651D01*
X56516133Y-50072607D01*
X56530747Y-50052902D01*
X56547223Y-50034723D01*
X56565402Y-50018247D01*
X56585107Y-50003633D01*
X56606151Y-49991020D01*
X56628329Y-49980530D01*
X56651429Y-49972265D01*
X56675227Y-49966304D01*
X56699496Y-49962704D01*
X56724000Y-49961500D01*
X57649000Y-49961500D01*
X57673504Y-49962704D01*
G37*
G36*
X55259504Y-50125204D02*
G01*
X55283773Y-50128804D01*
X55307571Y-50134765D01*
X55330671Y-50143030D01*
X55352849Y-50153520D01*
X55373893Y-50166133D01*
X55393598Y-50180747D01*
X55411777Y-50197223D01*
X55428253Y-50215402D01*
X55442867Y-50235107D01*
X55455480Y-50256151D01*
X55465970Y-50278329D01*
X55474235Y-50301429D01*
X55480196Y-50325227D01*
X55483796Y-50349496D01*
X55485000Y-50374000D01*
X55485000Y-51299000D01*
X55483796Y-51323504D01*
X55480196Y-51347773D01*
X55474235Y-51371571D01*
X55465970Y-51394671D01*
X55455480Y-51416849D01*
X55442867Y-51437893D01*
X55428253Y-51457598D01*
X55411777Y-51475777D01*
X55393598Y-51492253D01*
X55373893Y-51506867D01*
X55352849Y-51519480D01*
X55330671Y-51529970D01*
X55307571Y-51538235D01*
X55283773Y-51544196D01*
X55259504Y-51547796D01*
X55235000Y-51549000D01*
X53985000Y-51549000D01*
X53960496Y-51547796D01*
X53936227Y-51544196D01*
X53912429Y-51538235D01*
X53889329Y-51529970D01*
X53867151Y-51519480D01*
X53846107Y-51506867D01*
X53826402Y-51492253D01*
X53808223Y-51475777D01*
X53791747Y-51457598D01*
X53777133Y-51437893D01*
X53764520Y-51416849D01*
X53754030Y-51394671D01*
X53745765Y-51371571D01*
X53739804Y-51347773D01*
X53736204Y-51323504D01*
X53735000Y-51299000D01*
X53735000Y-50374000D01*
X53736204Y-50349496D01*
X53739804Y-50325227D01*
X53745765Y-50301429D01*
X53754030Y-50278329D01*
X53764520Y-50256151D01*
X53777133Y-50235107D01*
X53791747Y-50215402D01*
X53808223Y-50197223D01*
X53826402Y-50180747D01*
X53846107Y-50166133D01*
X53867151Y-50153520D01*
X53889329Y-50143030D01*
X53912429Y-50134765D01*
X53936227Y-50128804D01*
X53960496Y-50125204D01*
X53985000Y-50124000D01*
X55235000Y-50124000D01*
X55259504Y-50125204D01*
G37*
G36*
X55259504Y-53100204D02*
G01*
X55283773Y-53103804D01*
X55307571Y-53109765D01*
X55330671Y-53118030D01*
X55352849Y-53128520D01*
X55373893Y-53141133D01*
X55393598Y-53155747D01*
X55411777Y-53172223D01*
X55428253Y-53190402D01*
X55442867Y-53210107D01*
X55455480Y-53231151D01*
X55465970Y-53253329D01*
X55474235Y-53276429D01*
X55480196Y-53300227D01*
X55483796Y-53324496D01*
X55485000Y-53349000D01*
X55485000Y-54274000D01*
X55483796Y-54298504D01*
X55480196Y-54322773D01*
X55474235Y-54346571D01*
X55465970Y-54369671D01*
X55455480Y-54391849D01*
X55442867Y-54412893D01*
X55428253Y-54432598D01*
X55411777Y-54450777D01*
X55393598Y-54467253D01*
X55373893Y-54481867D01*
X55352849Y-54494480D01*
X55330671Y-54504970D01*
X55307571Y-54513235D01*
X55283773Y-54519196D01*
X55259504Y-54522796D01*
X55235000Y-54524000D01*
X53985000Y-54524000D01*
X53960496Y-54522796D01*
X53936227Y-54519196D01*
X53912429Y-54513235D01*
X53889329Y-54504970D01*
X53867151Y-54494480D01*
X53846107Y-54481867D01*
X53826402Y-54467253D01*
X53808223Y-54450777D01*
X53791747Y-54432598D01*
X53777133Y-54412893D01*
X53764520Y-54391849D01*
X53754030Y-54369671D01*
X53745765Y-54346571D01*
X53739804Y-54322773D01*
X53736204Y-54298504D01*
X53735000Y-54274000D01*
X53735000Y-53349000D01*
X53736204Y-53324496D01*
X53739804Y-53300227D01*
X53745765Y-53276429D01*
X53754030Y-53253329D01*
X53764520Y-53231151D01*
X53777133Y-53210107D01*
X53791747Y-53190402D01*
X53808223Y-53172223D01*
X53826402Y-53155747D01*
X53846107Y-53141133D01*
X53867151Y-53128520D01*
X53889329Y-53118030D01*
X53912429Y-53109765D01*
X53936227Y-53103804D01*
X53960496Y-53100204D01*
X53985000Y-53099000D01*
X55235000Y-53099000D01*
X55259504Y-53100204D01*
G37*
G36*
X44646504Y-51450204D02*
G01*
X44670773Y-51453804D01*
X44694571Y-51459765D01*
X44717671Y-51468030D01*
X44739849Y-51478520D01*
X44760893Y-51491133D01*
X44780598Y-51505747D01*
X44798777Y-51522223D01*
X44815253Y-51540402D01*
X44829867Y-51560107D01*
X44842480Y-51581151D01*
X44852970Y-51603329D01*
X44861235Y-51626429D01*
X44867196Y-51650227D01*
X44870796Y-51674496D01*
X44872000Y-51699000D01*
X44872000Y-52949000D01*
X44870796Y-52973504D01*
X44867196Y-52997773D01*
X44861235Y-53021571D01*
X44852970Y-53044671D01*
X44842480Y-53066849D01*
X44829867Y-53087893D01*
X44815253Y-53107598D01*
X44798777Y-53125777D01*
X44780598Y-53142253D01*
X44760893Y-53156867D01*
X44739849Y-53169480D01*
X44717671Y-53179970D01*
X44694571Y-53188235D01*
X44670773Y-53194196D01*
X44646504Y-53197796D01*
X44622000Y-53199000D01*
X43697000Y-53199000D01*
X43672496Y-53197796D01*
X43648227Y-53194196D01*
X43624429Y-53188235D01*
X43601329Y-53179970D01*
X43579151Y-53169480D01*
X43558107Y-53156867D01*
X43538402Y-53142253D01*
X43520223Y-53125777D01*
X43503747Y-53107598D01*
X43489133Y-53087893D01*
X43476520Y-53066849D01*
X43466030Y-53044671D01*
X43457765Y-53021571D01*
X43451804Y-52997773D01*
X43448204Y-52973504D01*
X43447000Y-52949000D01*
X43447000Y-51699000D01*
X43448204Y-51674496D01*
X43451804Y-51650227D01*
X43457765Y-51626429D01*
X43466030Y-51603329D01*
X43476520Y-51581151D01*
X43489133Y-51560107D01*
X43503747Y-51540402D01*
X43520223Y-51522223D01*
X43538402Y-51505747D01*
X43558107Y-51491133D01*
X43579151Y-51478520D01*
X43601329Y-51468030D01*
X43624429Y-51459765D01*
X43648227Y-51453804D01*
X43672496Y-51450204D01*
X43697000Y-51449000D01*
X44622000Y-51449000D01*
X44646504Y-51450204D01*
G37*
G36*
X41671504Y-51450204D02*
G01*
X41695773Y-51453804D01*
X41719571Y-51459765D01*
X41742671Y-51468030D01*
X41764849Y-51478520D01*
X41785893Y-51491133D01*
X41805598Y-51505747D01*
X41823777Y-51522223D01*
X41840253Y-51540402D01*
X41854867Y-51560107D01*
X41867480Y-51581151D01*
X41877970Y-51603329D01*
X41886235Y-51626429D01*
X41892196Y-51650227D01*
X41895796Y-51674496D01*
X41897000Y-51699000D01*
X41897000Y-52949000D01*
X41895796Y-52973504D01*
X41892196Y-52997773D01*
X41886235Y-53021571D01*
X41877970Y-53044671D01*
X41867480Y-53066849D01*
X41854867Y-53087893D01*
X41840253Y-53107598D01*
X41823777Y-53125777D01*
X41805598Y-53142253D01*
X41785893Y-53156867D01*
X41764849Y-53169480D01*
X41742671Y-53179970D01*
X41719571Y-53188235D01*
X41695773Y-53194196D01*
X41671504Y-53197796D01*
X41647000Y-53199000D01*
X40722000Y-53199000D01*
X40697496Y-53197796D01*
X40673227Y-53194196D01*
X40649429Y-53188235D01*
X40626329Y-53179970D01*
X40604151Y-53169480D01*
X40583107Y-53156867D01*
X40563402Y-53142253D01*
X40545223Y-53125777D01*
X40528747Y-53107598D01*
X40514133Y-53087893D01*
X40501520Y-53066849D01*
X40491030Y-53044671D01*
X40482765Y-53021571D01*
X40476804Y-52997773D01*
X40473204Y-52973504D01*
X40472000Y-52949000D01*
X40472000Y-51699000D01*
X40473204Y-51674496D01*
X40476804Y-51650227D01*
X40482765Y-51626429D01*
X40491030Y-51603329D01*
X40501520Y-51581151D01*
X40514133Y-51560107D01*
X40528747Y-51540402D01*
X40545223Y-51522223D01*
X40563402Y-51505747D01*
X40583107Y-51491133D01*
X40604151Y-51478520D01*
X40626329Y-51468030D01*
X40649429Y-51459765D01*
X40673227Y-51453804D01*
X40697496Y-51450204D01*
X40722000Y-51449000D01*
X41647000Y-51449000D01*
X41671504Y-51450204D01*
G37*
G36*
X41671504Y-55514204D02*
G01*
X41695773Y-55517804D01*
X41719571Y-55523765D01*
X41742671Y-55532030D01*
X41764849Y-55542520D01*
X41785893Y-55555133D01*
X41805598Y-55569747D01*
X41823777Y-55586223D01*
X41840253Y-55604402D01*
X41854867Y-55624107D01*
X41867480Y-55645151D01*
X41877970Y-55667329D01*
X41886235Y-55690429D01*
X41892196Y-55714227D01*
X41895796Y-55738496D01*
X41897000Y-55763000D01*
X41897000Y-57013000D01*
X41895796Y-57037504D01*
X41892196Y-57061773D01*
X41886235Y-57085571D01*
X41877970Y-57108671D01*
X41867480Y-57130849D01*
X41854867Y-57151893D01*
X41840253Y-57171598D01*
X41823777Y-57189777D01*
X41805598Y-57206253D01*
X41785893Y-57220867D01*
X41764849Y-57233480D01*
X41742671Y-57243970D01*
X41719571Y-57252235D01*
X41695773Y-57258196D01*
X41671504Y-57261796D01*
X41647000Y-57263000D01*
X40722000Y-57263000D01*
X40697496Y-57261796D01*
X40673227Y-57258196D01*
X40649429Y-57252235D01*
X40626329Y-57243970D01*
X40604151Y-57233480D01*
X40583107Y-57220867D01*
X40563402Y-57206253D01*
X40545223Y-57189777D01*
X40528747Y-57171598D01*
X40514133Y-57151893D01*
X40501520Y-57130849D01*
X40491030Y-57108671D01*
X40482765Y-57085571D01*
X40476804Y-57061773D01*
X40473204Y-57037504D01*
X40472000Y-57013000D01*
X40472000Y-55763000D01*
X40473204Y-55738496D01*
X40476804Y-55714227D01*
X40482765Y-55690429D01*
X40491030Y-55667329D01*
X40501520Y-55645151D01*
X40514133Y-55624107D01*
X40528747Y-55604402D01*
X40545223Y-55586223D01*
X40563402Y-55569747D01*
X40583107Y-55555133D01*
X40604151Y-55542520D01*
X40626329Y-55532030D01*
X40649429Y-55523765D01*
X40673227Y-55517804D01*
X40697496Y-55514204D01*
X40722000Y-55513000D01*
X41647000Y-55513000D01*
X41671504Y-55514204D01*
G37*
G36*
X44646504Y-55514204D02*
G01*
X44670773Y-55517804D01*
X44694571Y-55523765D01*
X44717671Y-55532030D01*
X44739849Y-55542520D01*
X44760893Y-55555133D01*
X44780598Y-55569747D01*
X44798777Y-55586223D01*
X44815253Y-55604402D01*
X44829867Y-55624107D01*
X44842480Y-55645151D01*
X44852970Y-55667329D01*
X44861235Y-55690429D01*
X44867196Y-55714227D01*
X44870796Y-55738496D01*
X44872000Y-55763000D01*
X44872000Y-57013000D01*
X44870796Y-57037504D01*
X44867196Y-57061773D01*
X44861235Y-57085571D01*
X44852970Y-57108671D01*
X44842480Y-57130849D01*
X44829867Y-57151893D01*
X44815253Y-57171598D01*
X44798777Y-57189777D01*
X44780598Y-57206253D01*
X44760893Y-57220867D01*
X44739849Y-57233480D01*
X44717671Y-57243970D01*
X44694571Y-57252235D01*
X44670773Y-57258196D01*
X44646504Y-57261796D01*
X44622000Y-57263000D01*
X43697000Y-57263000D01*
X43672496Y-57261796D01*
X43648227Y-57258196D01*
X43624429Y-57252235D01*
X43601329Y-57243970D01*
X43579151Y-57233480D01*
X43558107Y-57220867D01*
X43538402Y-57206253D01*
X43520223Y-57189777D01*
X43503747Y-57171598D01*
X43489133Y-57151893D01*
X43476520Y-57130849D01*
X43466030Y-57108671D01*
X43457765Y-57085571D01*
X43451804Y-57061773D01*
X43448204Y-57037504D01*
X43447000Y-57013000D01*
X43447000Y-55763000D01*
X43448204Y-55738496D01*
X43451804Y-55714227D01*
X43457765Y-55690429D01*
X43466030Y-55667329D01*
X43476520Y-55645151D01*
X43489133Y-55624107D01*
X43503747Y-55604402D01*
X43520223Y-55586223D01*
X43538402Y-55569747D01*
X43558107Y-55555133D01*
X43579151Y-55542520D01*
X43601329Y-55532030D01*
X43624429Y-55523765D01*
X43648227Y-55517804D01*
X43672496Y-55514204D01*
X43697000Y-55513000D01*
X44622000Y-55513000D01*
X44646504Y-55514204D01*
G37*
G36*
X44646504Y-47894204D02*
G01*
X44670773Y-47897804D01*
X44694571Y-47903765D01*
X44717671Y-47912030D01*
X44739849Y-47922520D01*
X44760893Y-47935133D01*
X44780598Y-47949747D01*
X44798777Y-47966223D01*
X44815253Y-47984402D01*
X44829867Y-48004107D01*
X44842480Y-48025151D01*
X44852970Y-48047329D01*
X44861235Y-48070429D01*
X44867196Y-48094227D01*
X44870796Y-48118496D01*
X44872000Y-48143000D01*
X44872000Y-49393000D01*
X44870796Y-49417504D01*
X44867196Y-49441773D01*
X44861235Y-49465571D01*
X44852970Y-49488671D01*
X44842480Y-49510849D01*
X44829867Y-49531893D01*
X44815253Y-49551598D01*
X44798777Y-49569777D01*
X44780598Y-49586253D01*
X44760893Y-49600867D01*
X44739849Y-49613480D01*
X44717671Y-49623970D01*
X44694571Y-49632235D01*
X44670773Y-49638196D01*
X44646504Y-49641796D01*
X44622000Y-49643000D01*
X43697000Y-49643000D01*
X43672496Y-49641796D01*
X43648227Y-49638196D01*
X43624429Y-49632235D01*
X43601329Y-49623970D01*
X43579151Y-49613480D01*
X43558107Y-49600867D01*
X43538402Y-49586253D01*
X43520223Y-49569777D01*
X43503747Y-49551598D01*
X43489133Y-49531893D01*
X43476520Y-49510849D01*
X43466030Y-49488671D01*
X43457765Y-49465571D01*
X43451804Y-49441773D01*
X43448204Y-49417504D01*
X43447000Y-49393000D01*
X43447000Y-48143000D01*
X43448204Y-48118496D01*
X43451804Y-48094227D01*
X43457765Y-48070429D01*
X43466030Y-48047329D01*
X43476520Y-48025151D01*
X43489133Y-48004107D01*
X43503747Y-47984402D01*
X43520223Y-47966223D01*
X43538402Y-47949747D01*
X43558107Y-47935133D01*
X43579151Y-47922520D01*
X43601329Y-47912030D01*
X43624429Y-47903765D01*
X43648227Y-47897804D01*
X43672496Y-47894204D01*
X43697000Y-47893000D01*
X44622000Y-47893000D01*
X44646504Y-47894204D01*
G37*
G36*
X41671504Y-47894204D02*
G01*
X41695773Y-47897804D01*
X41719571Y-47903765D01*
X41742671Y-47912030D01*
X41764849Y-47922520D01*
X41785893Y-47935133D01*
X41805598Y-47949747D01*
X41823777Y-47966223D01*
X41840253Y-47984402D01*
X41854867Y-48004107D01*
X41867480Y-48025151D01*
X41877970Y-48047329D01*
X41886235Y-48070429D01*
X41892196Y-48094227D01*
X41895796Y-48118496D01*
X41897000Y-48143000D01*
X41897000Y-49393000D01*
X41895796Y-49417504D01*
X41892196Y-49441773D01*
X41886235Y-49465571D01*
X41877970Y-49488671D01*
X41867480Y-49510849D01*
X41854867Y-49531893D01*
X41840253Y-49551598D01*
X41823777Y-49569777D01*
X41805598Y-49586253D01*
X41785893Y-49600867D01*
X41764849Y-49613480D01*
X41742671Y-49623970D01*
X41719571Y-49632235D01*
X41695773Y-49638196D01*
X41671504Y-49641796D01*
X41647000Y-49643000D01*
X40722000Y-49643000D01*
X40697496Y-49641796D01*
X40673227Y-49638196D01*
X40649429Y-49632235D01*
X40626329Y-49623970D01*
X40604151Y-49613480D01*
X40583107Y-49600867D01*
X40563402Y-49586253D01*
X40545223Y-49569777D01*
X40528747Y-49551598D01*
X40514133Y-49531893D01*
X40501520Y-49510849D01*
X40491030Y-49488671D01*
X40482765Y-49465571D01*
X40476804Y-49441773D01*
X40473204Y-49417504D01*
X40472000Y-49393000D01*
X40472000Y-48143000D01*
X40473204Y-48118496D01*
X40476804Y-48094227D01*
X40482765Y-48070429D01*
X40491030Y-48047329D01*
X40501520Y-48025151D01*
X40514133Y-48004107D01*
X40528747Y-47984402D01*
X40545223Y-47966223D01*
X40563402Y-47949747D01*
X40583107Y-47935133D01*
X40604151Y-47922520D01*
X40626329Y-47912030D01*
X40649429Y-47903765D01*
X40673227Y-47897804D01*
X40697496Y-47894204D01*
X40722000Y-47893000D01*
X41647000Y-47893000D01*
X41671504Y-47894204D01*
G37*
G36*
X39058504Y-55514204D02*
G01*
X39082773Y-55517804D01*
X39106571Y-55523765D01*
X39129671Y-55532030D01*
X39151849Y-55542520D01*
X39172893Y-55555133D01*
X39192598Y-55569747D01*
X39210777Y-55586223D01*
X39227253Y-55604402D01*
X39241867Y-55624107D01*
X39254480Y-55645151D01*
X39264970Y-55667329D01*
X39273235Y-55690429D01*
X39279196Y-55714227D01*
X39282796Y-55738496D01*
X39284000Y-55763000D01*
X39284000Y-57013000D01*
X39282796Y-57037504D01*
X39279196Y-57061773D01*
X39273235Y-57085571D01*
X39264970Y-57108671D01*
X39254480Y-57130849D01*
X39241867Y-57151893D01*
X39227253Y-57171598D01*
X39210777Y-57189777D01*
X39192598Y-57206253D01*
X39172893Y-57220867D01*
X39151849Y-57233480D01*
X39129671Y-57243970D01*
X39106571Y-57252235D01*
X39082773Y-57258196D01*
X39058504Y-57261796D01*
X39034000Y-57263000D01*
X38109000Y-57263000D01*
X38084496Y-57261796D01*
X38060227Y-57258196D01*
X38036429Y-57252235D01*
X38013329Y-57243970D01*
X37991151Y-57233480D01*
X37970107Y-57220867D01*
X37950402Y-57206253D01*
X37932223Y-57189777D01*
X37915747Y-57171598D01*
X37901133Y-57151893D01*
X37888520Y-57130849D01*
X37878030Y-57108671D01*
X37869765Y-57085571D01*
X37863804Y-57061773D01*
X37860204Y-57037504D01*
X37859000Y-57013000D01*
X37859000Y-55763000D01*
X37860204Y-55738496D01*
X37863804Y-55714227D01*
X37869765Y-55690429D01*
X37878030Y-55667329D01*
X37888520Y-55645151D01*
X37901133Y-55624107D01*
X37915747Y-55604402D01*
X37932223Y-55586223D01*
X37950402Y-55569747D01*
X37970107Y-55555133D01*
X37991151Y-55542520D01*
X38013329Y-55532030D01*
X38036429Y-55523765D01*
X38060227Y-55517804D01*
X38084496Y-55514204D01*
X38109000Y-55513000D01*
X39034000Y-55513000D01*
X39058504Y-55514204D01*
G37*
G36*
X36083504Y-55514204D02*
G01*
X36107773Y-55517804D01*
X36131571Y-55523765D01*
X36154671Y-55532030D01*
X36176849Y-55542520D01*
X36197893Y-55555133D01*
X36217598Y-55569747D01*
X36235777Y-55586223D01*
X36252253Y-55604402D01*
X36266867Y-55624107D01*
X36279480Y-55645151D01*
X36289970Y-55667329D01*
X36298235Y-55690429D01*
X36304196Y-55714227D01*
X36307796Y-55738496D01*
X36309000Y-55763000D01*
X36309000Y-57013000D01*
X36307796Y-57037504D01*
X36304196Y-57061773D01*
X36298235Y-57085571D01*
X36289970Y-57108671D01*
X36279480Y-57130849D01*
X36266867Y-57151893D01*
X36252253Y-57171598D01*
X36235777Y-57189777D01*
X36217598Y-57206253D01*
X36197893Y-57220867D01*
X36176849Y-57233480D01*
X36154671Y-57243970D01*
X36131571Y-57252235D01*
X36107773Y-57258196D01*
X36083504Y-57261796D01*
X36059000Y-57263000D01*
X35134000Y-57263000D01*
X35109496Y-57261796D01*
X35085227Y-57258196D01*
X35061429Y-57252235D01*
X35038329Y-57243970D01*
X35016151Y-57233480D01*
X34995107Y-57220867D01*
X34975402Y-57206253D01*
X34957223Y-57189777D01*
X34940747Y-57171598D01*
X34926133Y-57151893D01*
X34913520Y-57130849D01*
X34903030Y-57108671D01*
X34894765Y-57085571D01*
X34888804Y-57061773D01*
X34885204Y-57037504D01*
X34884000Y-57013000D01*
X34884000Y-55763000D01*
X34885204Y-55738496D01*
X34888804Y-55714227D01*
X34894765Y-55690429D01*
X34903030Y-55667329D01*
X34913520Y-55645151D01*
X34926133Y-55624107D01*
X34940747Y-55604402D01*
X34957223Y-55586223D01*
X34975402Y-55569747D01*
X34995107Y-55555133D01*
X35016151Y-55542520D01*
X35038329Y-55532030D01*
X35061429Y-55523765D01*
X35085227Y-55517804D01*
X35109496Y-55514204D01*
X35134000Y-55513000D01*
X36059000Y-55513000D01*
X36083504Y-55514204D01*
G37*
D14*
X32004000Y-84457000D03*
D15*
X31354000Y-83507000D03*
X32004000Y-83507000D03*
X32654000Y-83507000D03*
X32654000Y-85407000D03*
X32004000Y-85407000D03*
X31354000Y-85407000D03*
M02*
