G04 #@! TF.GenerationSoftware,KiCad,Pcbnew,(5.1.5)-3*
G04 #@! TF.CreationDate,2021-02-20T21:47:20+01:00*
G04 #@! TF.ProjectId,brievenbusmelder,62726965-7665-46e6-9275-736d656c6465,rev?*
G04 #@! TF.SameCoordinates,Original*
G04 #@! TF.FileFunction,Legend,Top*
G04 #@! TF.FilePolarity,Positive*
%FSLAX46Y46*%
G04 Gerber Fmt 4.6, Leading zero omitted, Abs format (unit mm)*
G04 Created by KiCad (PCBNEW (5.1.5)-3) date 2021-02-20 21:47:20*
%MOMM*%
%LPD*%
G04 APERTURE LIST*
%ADD10C,0.100000*%
%ADD11C,0.120000*%
%ADD12C,0.200000*%
%ADD13C,0.152400*%
%ADD14C,0.150000*%
%ADD15C,0.254000*%
G04 APERTURE END LIST*
D10*
X59392000Y-66040000D02*
G75*
G02X59392000Y-68580000I0J-1270000D01*
G01*
X64052000Y-66040000D02*
G75*
G03X64052000Y-68580000I0J-1270000D01*
G01*
X49276000Y-80054000D02*
G75*
G02X51816000Y-80054000I1270000J0D01*
G01*
X49276000Y-75394000D02*
G75*
G03X51816000Y-75394000I1270000J0D01*
G01*
X48260000Y-53130000D02*
G75*
G02X50800000Y-53130000I1270000J0D01*
G01*
X48260000Y-48470000D02*
G75*
G03X50800000Y-48470000I1270000J0D01*
G01*
X31960000Y-66040000D02*
G75*
G02X31960000Y-68580000I0J-1270000D01*
G01*
X36620000Y-66040000D02*
G75*
G03X36620000Y-68580000I0J-1270000D01*
G01*
D11*
X27030000Y-79596064D02*
X27030000Y-78391936D01*
X28850000Y-79596064D02*
X28850000Y-78391936D01*
X64864064Y-40746000D02*
X63659936Y-40746000D01*
X64864064Y-42566000D02*
X63659936Y-42566000D01*
X64864064Y-46334000D02*
X63659936Y-46334000D01*
X64864064Y-48154000D02*
X63659936Y-48154000D01*
X65626064Y-75586000D02*
X64421936Y-75586000D01*
X65626064Y-73766000D02*
X64421936Y-73766000D01*
X64864064Y-43286000D02*
X63659936Y-43286000D01*
X64864064Y-45106000D02*
X63659936Y-45106000D01*
X64864064Y-51710000D02*
X63659936Y-51710000D01*
X64864064Y-49890000D02*
X63659936Y-49890000D01*
X42069936Y-44810000D02*
X43274064Y-44810000D01*
X42069936Y-46630000D02*
X43274064Y-46630000D01*
X35973936Y-44810000D02*
X37178064Y-44810000D01*
X35973936Y-46630000D02*
X37178064Y-46630000D01*
X35973936Y-52726000D02*
X37178064Y-52726000D01*
X35973936Y-50906000D02*
X37178064Y-50906000D01*
X35973936Y-49678000D02*
X37178064Y-49678000D01*
X35973936Y-47858000D02*
X37178064Y-47858000D01*
X27004000Y-62603000D02*
X31064000Y-62603000D01*
X27004000Y-60333000D02*
X27004000Y-62603000D01*
X31064000Y-60333000D02*
X27004000Y-60333000D01*
D10*
X29664000Y-59096000D02*
G75*
G02X29564000Y-59096000I-50000J0D01*
G01*
X29564000Y-59096000D02*
G75*
G02X29664000Y-59096000I50000J0D01*
G01*
D12*
X32449000Y-55626000D02*
G75*
G02X26479000Y-55626000I-2985000J0D01*
G01*
X26479000Y-55626000D02*
G75*
G02X32449000Y-55626000I2985000J0D01*
G01*
D10*
X29564000Y-59096000D02*
X29564000Y-59096000D01*
X29664000Y-59096000D02*
X29664000Y-59096000D01*
D12*
X26479000Y-55626000D02*
X26479000Y-55626000D01*
X32449000Y-55626000D02*
X32449000Y-55626000D01*
D10*
X60474000Y-44272000D02*
G75*
G02X60474000Y-44372000I0J-50000D01*
G01*
X60474000Y-44372000D02*
G75*
G02X60474000Y-44272000I0J50000D01*
G01*
X60474000Y-44372000D02*
X60474000Y-44372000D01*
X60474000Y-44272000D02*
X60474000Y-44272000D01*
D13*
X65328800Y-83515200D02*
X66395600Y-83515200D01*
X64719200Y-83515200D02*
X65328800Y-83515200D01*
X63652400Y-83515200D02*
X64719200Y-83515200D01*
X66395600Y-78536800D02*
X63652400Y-78536800D01*
D12*
X37507000Y-59421000D02*
G75*
G02X37407000Y-59421000I-50000J0D01*
G01*
X37407000Y-59421000D02*
G75*
G02X37507000Y-59421000I50000J0D01*
G01*
X37507000Y-59421000D02*
G75*
G02X37407000Y-59421000I-50000J0D01*
G01*
X37407000Y-59421000D02*
X37407000Y-59421000D01*
X37507000Y-59421000D02*
X37507000Y-59421000D01*
X37407000Y-59421000D02*
X37407000Y-59421000D01*
D10*
X39857000Y-58996000D02*
X39357000Y-58996000D01*
X39857000Y-58996000D02*
X39857000Y-58996000D01*
X39357000Y-58996000D02*
X39857000Y-58996000D01*
X39357000Y-58996000D02*
X39357000Y-58996000D01*
X39857000Y-62996000D02*
X39357000Y-62996000D01*
X39857000Y-62996000D02*
X39857000Y-62996000D01*
X39357000Y-62996000D02*
X39857000Y-62996000D01*
X39357000Y-62996000D02*
X39357000Y-62996000D01*
D11*
X26610000Y-75244000D02*
X26610000Y-73914000D01*
X27940000Y-75244000D02*
X26610000Y-75244000D01*
X29210000Y-75244000D02*
X29210000Y-72584000D01*
X29210000Y-72584000D02*
X39430000Y-72584000D01*
X29210000Y-75244000D02*
X39430000Y-75244000D01*
X39430000Y-75244000D02*
X39430000Y-72584000D01*
X66862000Y-57090000D02*
X66862000Y-58420000D01*
X65532000Y-57090000D02*
X66862000Y-57090000D01*
X64262000Y-57090000D02*
X64262000Y-59750000D01*
X64262000Y-59750000D02*
X54042000Y-59750000D01*
X64262000Y-57090000D02*
X54042000Y-57090000D01*
X54042000Y-57090000D02*
X54042000Y-59750000D01*
X56582000Y-73092000D02*
X57912000Y-73092000D01*
X56582000Y-74422000D02*
X56582000Y-73092000D01*
X56582000Y-75692000D02*
X59242000Y-75692000D01*
X59242000Y-75692000D02*
X59242000Y-83372000D01*
X56582000Y-75692000D02*
X56582000Y-83372000D01*
X56582000Y-83372000D02*
X59242000Y-83372000D01*
X29150000Y-39310000D02*
X29150000Y-41970000D01*
X39370000Y-39310000D02*
X29150000Y-39310000D01*
X39370000Y-41970000D02*
X29150000Y-41970000D01*
X39370000Y-39310000D02*
X39370000Y-41970000D01*
X40640000Y-39310000D02*
X41970000Y-39310000D01*
X41970000Y-39310000D02*
X41970000Y-40640000D01*
X26102000Y-45406000D02*
X27432000Y-45406000D01*
X26102000Y-46736000D02*
X26102000Y-45406000D01*
X26102000Y-48006000D02*
X28762000Y-48006000D01*
X28762000Y-48006000D02*
X28762000Y-50606000D01*
X26102000Y-48006000D02*
X26102000Y-50606000D01*
X26102000Y-50606000D02*
X28762000Y-50606000D01*
X30166000Y-50606000D02*
X32826000Y-50606000D01*
X30166000Y-48006000D02*
X30166000Y-50606000D01*
X32826000Y-48006000D02*
X32826000Y-50606000D01*
X30166000Y-48006000D02*
X32826000Y-48006000D01*
X30166000Y-46736000D02*
X30166000Y-45406000D01*
X30166000Y-45406000D02*
X31496000Y-45406000D01*
X32929001Y-79479063D02*
X32929001Y-78274935D01*
X34749001Y-79479063D02*
X34749001Y-78274935D01*
X31898000Y-78391936D02*
X31898000Y-79596064D01*
X30078000Y-78391936D02*
X30078000Y-79596064D01*
X38039001Y-79479063D02*
X38039001Y-78274935D01*
X36219001Y-79479063D02*
X36219001Y-78274935D01*
X59276064Y-48154000D02*
X58071936Y-48154000D01*
X59276064Y-46334000D02*
X58071936Y-46334000D01*
X58071936Y-51746500D02*
X59276064Y-51746500D01*
X58071936Y-49926500D02*
X59276064Y-49926500D01*
X55520000Y-51721936D02*
X55520000Y-52926064D01*
X53700000Y-51721936D02*
X53700000Y-52926064D01*
X42069936Y-53234000D02*
X43274064Y-53234000D01*
X42069936Y-51414000D02*
X43274064Y-51414000D01*
X42069936Y-55478000D02*
X43274064Y-55478000D01*
X42069936Y-57298000D02*
X43274064Y-57298000D01*
X42069936Y-49678000D02*
X43274064Y-49678000D01*
X42069936Y-47858000D02*
X43274064Y-47858000D01*
X36481936Y-57298000D02*
X37686064Y-57298000D01*
X36481936Y-55478000D02*
X37686064Y-55478000D01*
D10*
X31304000Y-85857000D02*
G75*
G03X31404000Y-85857000I50000J0D01*
G01*
X31404000Y-85857000D02*
G75*
G03X31304000Y-85857000I-50000J0D01*
G01*
X31404000Y-85857000D02*
X31404000Y-85857000D01*
X31304000Y-85857000D02*
X31304000Y-85857000D01*
X33004000Y-85357000D02*
X33004000Y-83557000D01*
X31004000Y-85357000D02*
X31004000Y-83557000D01*
D14*
X26477142Y-79160666D02*
X26524761Y-79208285D01*
X26572380Y-79351142D01*
X26572380Y-79446380D01*
X26524761Y-79589238D01*
X26429523Y-79684476D01*
X26334285Y-79732095D01*
X26143809Y-79779714D01*
X26000952Y-79779714D01*
X25810476Y-79732095D01*
X25715238Y-79684476D01*
X25620000Y-79589238D01*
X25572380Y-79446380D01*
X25572380Y-79351142D01*
X25620000Y-79208285D01*
X25667619Y-79160666D01*
X26572380Y-78208285D02*
X26572380Y-78779714D01*
X26572380Y-78494000D02*
X25572380Y-78494000D01*
X25715238Y-78589238D01*
X25810476Y-78684476D01*
X25858095Y-78779714D01*
X64095333Y-43833142D02*
X64047714Y-43880761D01*
X63904857Y-43928380D01*
X63809619Y-43928380D01*
X63666761Y-43880761D01*
X63571523Y-43785523D01*
X63523904Y-43690285D01*
X63476285Y-43499809D01*
X63476285Y-43356952D01*
X63523904Y-43166476D01*
X63571523Y-43071238D01*
X63666761Y-42976000D01*
X63809619Y-42928380D01*
X63904857Y-42928380D01*
X64047714Y-42976000D01*
X64095333Y-43023619D01*
X64476285Y-43023619D02*
X64523904Y-42976000D01*
X64619142Y-42928380D01*
X64857238Y-42928380D01*
X64952476Y-42976000D01*
X65000095Y-43023619D01*
X65047714Y-43118857D01*
X65047714Y-43214095D01*
X65000095Y-43356952D01*
X64428666Y-43928380D01*
X65047714Y-43928380D01*
X64095333Y-49421142D02*
X64047714Y-49468761D01*
X63904857Y-49516380D01*
X63809619Y-49516380D01*
X63666761Y-49468761D01*
X63571523Y-49373523D01*
X63523904Y-49278285D01*
X63476285Y-49087809D01*
X63476285Y-48944952D01*
X63523904Y-48754476D01*
X63571523Y-48659238D01*
X63666761Y-48564000D01*
X63809619Y-48516380D01*
X63904857Y-48516380D01*
X64047714Y-48564000D01*
X64095333Y-48611619D01*
X64428666Y-48516380D02*
X65047714Y-48516380D01*
X64714380Y-48897333D01*
X64857238Y-48897333D01*
X64952476Y-48944952D01*
X65000095Y-48992571D01*
X65047714Y-49087809D01*
X65047714Y-49325904D01*
X65000095Y-49421142D01*
X64952476Y-49468761D01*
X64857238Y-49516380D01*
X64571523Y-49516380D01*
X64476285Y-49468761D01*
X64428666Y-49421142D01*
X64857333Y-76853142D02*
X64809714Y-76900761D01*
X64666857Y-76948380D01*
X64571619Y-76948380D01*
X64428761Y-76900761D01*
X64333523Y-76805523D01*
X64285904Y-76710285D01*
X64238285Y-76519809D01*
X64238285Y-76376952D01*
X64285904Y-76186476D01*
X64333523Y-76091238D01*
X64428761Y-75996000D01*
X64571619Y-75948380D01*
X64666857Y-75948380D01*
X64809714Y-75996000D01*
X64857333Y-76043619D01*
X65714476Y-76281714D02*
X65714476Y-76948380D01*
X65476380Y-75900761D02*
X65238285Y-76615047D01*
X65857333Y-76615047D01*
X64095333Y-46373142D02*
X64047714Y-46420761D01*
X63904857Y-46468380D01*
X63809619Y-46468380D01*
X63666761Y-46420761D01*
X63571523Y-46325523D01*
X63523904Y-46230285D01*
X63476285Y-46039809D01*
X63476285Y-45896952D01*
X63523904Y-45706476D01*
X63571523Y-45611238D01*
X63666761Y-45516000D01*
X63809619Y-45468380D01*
X63904857Y-45468380D01*
X64047714Y-45516000D01*
X64095333Y-45563619D01*
X65000095Y-45468380D02*
X64523904Y-45468380D01*
X64476285Y-45944571D01*
X64523904Y-45896952D01*
X64619142Y-45849333D01*
X64857238Y-45849333D01*
X64952476Y-45896952D01*
X65000095Y-45944571D01*
X65047714Y-46039809D01*
X65047714Y-46277904D01*
X65000095Y-46373142D01*
X64952476Y-46420761D01*
X64857238Y-46468380D01*
X64619142Y-46468380D01*
X64523904Y-46420761D01*
X64476285Y-46373142D01*
X64095333Y-52977142D02*
X64047714Y-53024761D01*
X63904857Y-53072380D01*
X63809619Y-53072380D01*
X63666761Y-53024761D01*
X63571523Y-52929523D01*
X63523904Y-52834285D01*
X63476285Y-52643809D01*
X63476285Y-52500952D01*
X63523904Y-52310476D01*
X63571523Y-52215238D01*
X63666761Y-52120000D01*
X63809619Y-52072380D01*
X63904857Y-52072380D01*
X64047714Y-52120000D01*
X64095333Y-52167619D01*
X64952476Y-52072380D02*
X64762000Y-52072380D01*
X64666761Y-52120000D01*
X64619142Y-52167619D01*
X64523904Y-52310476D01*
X64476285Y-52500952D01*
X64476285Y-52881904D01*
X64523904Y-52977142D01*
X64571523Y-53024761D01*
X64666761Y-53072380D01*
X64857238Y-53072380D01*
X64952476Y-53024761D01*
X65000095Y-52977142D01*
X65047714Y-52881904D01*
X65047714Y-52643809D01*
X65000095Y-52548571D01*
X64952476Y-52500952D01*
X64857238Y-52453333D01*
X64666761Y-52453333D01*
X64571523Y-52500952D01*
X64523904Y-52548571D01*
X64476285Y-52643809D01*
X42505333Y-44257142D02*
X42457714Y-44304761D01*
X42314857Y-44352380D01*
X42219619Y-44352380D01*
X42076761Y-44304761D01*
X41981523Y-44209523D01*
X41933904Y-44114285D01*
X41886285Y-43923809D01*
X41886285Y-43780952D01*
X41933904Y-43590476D01*
X41981523Y-43495238D01*
X42076761Y-43400000D01*
X42219619Y-43352380D01*
X42314857Y-43352380D01*
X42457714Y-43400000D01*
X42505333Y-43447619D01*
X42838666Y-43352380D02*
X43505333Y-43352380D01*
X43076761Y-44352380D01*
X36409333Y-44257142D02*
X36361714Y-44304761D01*
X36218857Y-44352380D01*
X36123619Y-44352380D01*
X35980761Y-44304761D01*
X35885523Y-44209523D01*
X35837904Y-44114285D01*
X35790285Y-43923809D01*
X35790285Y-43780952D01*
X35837904Y-43590476D01*
X35885523Y-43495238D01*
X35980761Y-43400000D01*
X36123619Y-43352380D01*
X36218857Y-43352380D01*
X36361714Y-43400000D01*
X36409333Y-43447619D01*
X36980761Y-43780952D02*
X36885523Y-43733333D01*
X36837904Y-43685714D01*
X36790285Y-43590476D01*
X36790285Y-43542857D01*
X36837904Y-43447619D01*
X36885523Y-43400000D01*
X36980761Y-43352380D01*
X37171238Y-43352380D01*
X37266476Y-43400000D01*
X37314095Y-43447619D01*
X37361714Y-43542857D01*
X37361714Y-43590476D01*
X37314095Y-43685714D01*
X37266476Y-43733333D01*
X37171238Y-43780952D01*
X36980761Y-43780952D01*
X36885523Y-43828571D01*
X36837904Y-43876190D01*
X36790285Y-43971428D01*
X36790285Y-44161904D01*
X36837904Y-44257142D01*
X36885523Y-44304761D01*
X36980761Y-44352380D01*
X37171238Y-44352380D01*
X37266476Y-44304761D01*
X37314095Y-44257142D01*
X37361714Y-44161904D01*
X37361714Y-43971428D01*
X37314095Y-43876190D01*
X37266476Y-43828571D01*
X37171238Y-43780952D01*
X36409333Y-50353142D02*
X36361714Y-50400761D01*
X36218857Y-50448380D01*
X36123619Y-50448380D01*
X35980761Y-50400761D01*
X35885523Y-50305523D01*
X35837904Y-50210285D01*
X35790285Y-50019809D01*
X35790285Y-49876952D01*
X35837904Y-49686476D01*
X35885523Y-49591238D01*
X35980761Y-49496000D01*
X36123619Y-49448380D01*
X36218857Y-49448380D01*
X36361714Y-49496000D01*
X36409333Y-49543619D01*
X36885523Y-50448380D02*
X37076000Y-50448380D01*
X37171238Y-50400761D01*
X37218857Y-50353142D01*
X37314095Y-50210285D01*
X37361714Y-50019809D01*
X37361714Y-49638857D01*
X37314095Y-49543619D01*
X37266476Y-49496000D01*
X37171238Y-49448380D01*
X36980761Y-49448380D01*
X36885523Y-49496000D01*
X36837904Y-49543619D01*
X36790285Y-49638857D01*
X36790285Y-49876952D01*
X36837904Y-49972190D01*
X36885523Y-50019809D01*
X36980761Y-50067428D01*
X37171238Y-50067428D01*
X37266476Y-50019809D01*
X37314095Y-49972190D01*
X37361714Y-49876952D01*
X35933142Y-47305142D02*
X35885523Y-47352761D01*
X35742666Y-47400380D01*
X35647428Y-47400380D01*
X35504571Y-47352761D01*
X35409333Y-47257523D01*
X35361714Y-47162285D01*
X35314095Y-46971809D01*
X35314095Y-46828952D01*
X35361714Y-46638476D01*
X35409333Y-46543238D01*
X35504571Y-46448000D01*
X35647428Y-46400380D01*
X35742666Y-46400380D01*
X35885523Y-46448000D01*
X35933142Y-46495619D01*
X36885523Y-47400380D02*
X36314095Y-47400380D01*
X36599809Y-47400380D02*
X36599809Y-46400380D01*
X36504571Y-46543238D01*
X36409333Y-46638476D01*
X36314095Y-46686095D01*
X37504571Y-46400380D02*
X37599809Y-46400380D01*
X37695047Y-46448000D01*
X37742666Y-46495619D01*
X37790285Y-46590857D01*
X37837904Y-46781333D01*
X37837904Y-47019428D01*
X37790285Y-47209904D01*
X37742666Y-47305142D01*
X37695047Y-47352761D01*
X37599809Y-47400380D01*
X37504571Y-47400380D01*
X37409333Y-47352761D01*
X37361714Y-47305142D01*
X37314095Y-47209904D01*
X37266476Y-47019428D01*
X37266476Y-46781333D01*
X37314095Y-46590857D01*
X37361714Y-46495619D01*
X37409333Y-46448000D01*
X37504571Y-46400380D01*
X28725904Y-60100380D02*
X28725904Y-59100380D01*
X28964000Y-59100380D01*
X29106857Y-59148000D01*
X29202095Y-59243238D01*
X29249714Y-59338476D01*
X29297333Y-59528952D01*
X29297333Y-59671809D01*
X29249714Y-59862285D01*
X29202095Y-59957523D01*
X29106857Y-60052761D01*
X28964000Y-60100380D01*
X28725904Y-60100380D01*
X30249714Y-60100380D02*
X29678285Y-60100380D01*
X29964000Y-60100380D02*
X29964000Y-59100380D01*
X29868761Y-59243238D01*
X29773523Y-59338476D01*
X29678285Y-59386095D01*
D15*
X28526619Y-56200523D02*
X28526619Y-54930523D01*
X28829000Y-54930523D01*
X29010428Y-54991000D01*
X29131380Y-55111952D01*
X29191857Y-55232904D01*
X29252333Y-55474809D01*
X29252333Y-55656238D01*
X29191857Y-55898142D01*
X29131380Y-56019095D01*
X29010428Y-56140047D01*
X28829000Y-56200523D01*
X28526619Y-56200523D01*
X29736142Y-55051476D02*
X29796619Y-54991000D01*
X29917571Y-54930523D01*
X30219952Y-54930523D01*
X30340904Y-54991000D01*
X30401380Y-55051476D01*
X30461857Y-55172428D01*
X30461857Y-55293380D01*
X30401380Y-55474809D01*
X29675666Y-56200523D01*
X30461857Y-56200523D01*
X59248523Y-43911761D02*
X57978523Y-43911761D01*
X59127571Y-42581285D02*
X59188047Y-42641761D01*
X59248523Y-42823190D01*
X59248523Y-42944142D01*
X59188047Y-43125571D01*
X59067095Y-43246523D01*
X58946142Y-43307000D01*
X58704238Y-43367476D01*
X58522809Y-43367476D01*
X58280904Y-43307000D01*
X58159952Y-43246523D01*
X58039000Y-43125571D01*
X57978523Y-42944142D01*
X57978523Y-42823190D01*
X58039000Y-42641761D01*
X58099476Y-42581285D01*
X59248523Y-41371761D02*
X59248523Y-42097476D01*
X59248523Y-41734619D02*
X57978523Y-41734619D01*
X58159952Y-41855571D01*
X58280904Y-41976523D01*
X58341380Y-42097476D01*
X67238638Y-86045523D02*
X67238638Y-84775523D01*
X68569114Y-85924571D02*
X68508638Y-85985047D01*
X68327209Y-86045523D01*
X68206257Y-86045523D01*
X68024828Y-85985047D01*
X67903876Y-85864095D01*
X67843400Y-85743142D01*
X67782923Y-85501238D01*
X67782923Y-85319809D01*
X67843400Y-85077904D01*
X67903876Y-84956952D01*
X68024828Y-84836000D01*
X68206257Y-84775523D01*
X68327209Y-84775523D01*
X68508638Y-84836000D01*
X68569114Y-84896476D01*
X69052923Y-84896476D02*
X69113400Y-84836000D01*
X69234352Y-84775523D01*
X69536733Y-84775523D01*
X69657685Y-84836000D01*
X69718161Y-84896476D01*
X69778638Y-85017428D01*
X69778638Y-85138380D01*
X69718161Y-85319809D01*
X68992447Y-86045523D01*
X69778638Y-86045523D01*
X39746523Y-62235761D02*
X38476523Y-62235761D01*
X39625571Y-60905285D02*
X39686047Y-60965761D01*
X39746523Y-61147190D01*
X39746523Y-61268142D01*
X39686047Y-61449571D01*
X39565095Y-61570523D01*
X39444142Y-61631000D01*
X39202238Y-61691476D01*
X39020809Y-61691476D01*
X38778904Y-61631000D01*
X38657952Y-61570523D01*
X38537000Y-61449571D01*
X38476523Y-61268142D01*
X38476523Y-61147190D01*
X38537000Y-60965761D01*
X38597476Y-60905285D01*
X38476523Y-60481952D02*
X38476523Y-59695761D01*
X38960333Y-60119095D01*
X38960333Y-59937666D01*
X39020809Y-59816714D01*
X39081285Y-59756238D01*
X39202238Y-59695761D01*
X39504619Y-59695761D01*
X39625571Y-59756238D01*
X39686047Y-59816714D01*
X39746523Y-59937666D01*
X39746523Y-60300523D01*
X39686047Y-60421476D01*
X39625571Y-60481952D01*
D14*
X25062380Y-74247333D02*
X25776666Y-74247333D01*
X25919523Y-74294952D01*
X26014761Y-74390190D01*
X26062380Y-74533047D01*
X26062380Y-74628285D01*
X26062380Y-73247333D02*
X26062380Y-73818761D01*
X26062380Y-73533047D02*
X25062380Y-73533047D01*
X25205238Y-73628285D01*
X25300476Y-73723523D01*
X25348095Y-73818761D01*
X67314380Y-58753333D02*
X68028666Y-58753333D01*
X68171523Y-58800952D01*
X68266761Y-58896190D01*
X68314380Y-59039047D01*
X68314380Y-59134285D01*
X67409619Y-58324761D02*
X67362000Y-58277142D01*
X67314380Y-58181904D01*
X67314380Y-57943809D01*
X67362000Y-57848571D01*
X67409619Y-57800952D01*
X67504857Y-57753333D01*
X67600095Y-57753333D01*
X67742952Y-57800952D01*
X68314380Y-58372380D01*
X68314380Y-57753333D01*
X57578666Y-71544380D02*
X57578666Y-72258666D01*
X57531047Y-72401523D01*
X57435809Y-72496761D01*
X57292952Y-72544380D01*
X57197714Y-72544380D01*
X57959619Y-71544380D02*
X58578666Y-71544380D01*
X58245333Y-71925333D01*
X58388190Y-71925333D01*
X58483428Y-71972952D01*
X58531047Y-72020571D01*
X58578666Y-72115809D01*
X58578666Y-72353904D01*
X58531047Y-72449142D01*
X58483428Y-72496761D01*
X58388190Y-72544380D01*
X58102476Y-72544380D01*
X58007238Y-72496761D01*
X57959619Y-72449142D01*
X42422380Y-40973333D02*
X43136666Y-40973333D01*
X43279523Y-41020952D01*
X43374761Y-41116190D01*
X43422380Y-41259047D01*
X43422380Y-41354285D01*
X42755714Y-40068571D02*
X43422380Y-40068571D01*
X42374761Y-40306666D02*
X43089047Y-40544761D01*
X43089047Y-39925714D01*
X26598666Y-43858380D02*
X26598666Y-44572666D01*
X26551047Y-44715523D01*
X26455809Y-44810761D01*
X26312952Y-44858380D01*
X26217714Y-44858380D01*
X27074857Y-44858380D02*
X27074857Y-43858380D01*
X27455809Y-43858380D01*
X27551047Y-43906000D01*
X27598666Y-43953619D01*
X27646285Y-44048857D01*
X27646285Y-44191714D01*
X27598666Y-44286952D01*
X27551047Y-44334571D01*
X27455809Y-44382190D01*
X27074857Y-44382190D01*
X28598666Y-44858380D02*
X28027238Y-44858380D01*
X28312952Y-44858380D02*
X28312952Y-43858380D01*
X28217714Y-44001238D01*
X28122476Y-44096476D01*
X28027238Y-44144095D01*
X30662666Y-43858380D02*
X30662666Y-44572666D01*
X30615047Y-44715523D01*
X30519809Y-44810761D01*
X30376952Y-44858380D01*
X30281714Y-44858380D01*
X31138857Y-44858380D02*
X31138857Y-43858380D01*
X31519809Y-43858380D01*
X31615047Y-43906000D01*
X31662666Y-43953619D01*
X31710285Y-44048857D01*
X31710285Y-44191714D01*
X31662666Y-44286952D01*
X31615047Y-44334571D01*
X31519809Y-44382190D01*
X31138857Y-44382190D01*
X32091238Y-43953619D02*
X32138857Y-43906000D01*
X32234095Y-43858380D01*
X32472190Y-43858380D01*
X32567428Y-43906000D01*
X32615047Y-43953619D01*
X32662666Y-44048857D01*
X32662666Y-44144095D01*
X32615047Y-44286952D01*
X32043619Y-44858380D01*
X32662666Y-44858380D01*
X32471381Y-79043665D02*
X31995191Y-79376999D01*
X32471381Y-79615094D02*
X31471381Y-79615094D01*
X31471381Y-79234141D01*
X31519001Y-79138903D01*
X31566620Y-79091284D01*
X31661858Y-79043665D01*
X31804715Y-79043665D01*
X31899953Y-79091284D01*
X31947572Y-79138903D01*
X31995191Y-79234141D01*
X31995191Y-79615094D01*
X32471381Y-78091284D02*
X32471381Y-78662713D01*
X32471381Y-78376999D02*
X31471381Y-78376999D01*
X31614239Y-78472237D01*
X31709477Y-78567475D01*
X31757096Y-78662713D01*
X33260380Y-79160666D02*
X32784190Y-79494000D01*
X33260380Y-79732095D02*
X32260380Y-79732095D01*
X32260380Y-79351142D01*
X32308000Y-79255904D01*
X32355619Y-79208285D01*
X32450857Y-79160666D01*
X32593714Y-79160666D01*
X32688952Y-79208285D01*
X32736571Y-79255904D01*
X32784190Y-79351142D01*
X32784190Y-79732095D01*
X32355619Y-78779714D02*
X32308000Y-78732095D01*
X32260380Y-78636857D01*
X32260380Y-78398761D01*
X32308000Y-78303523D01*
X32355619Y-78255904D01*
X32450857Y-78208285D01*
X32546095Y-78208285D01*
X32688952Y-78255904D01*
X33260380Y-78827333D01*
X33260380Y-78208285D01*
X35761381Y-79043665D02*
X35285191Y-79376999D01*
X35761381Y-79615094D02*
X34761381Y-79615094D01*
X34761381Y-79234141D01*
X34809001Y-79138903D01*
X34856620Y-79091284D01*
X34951858Y-79043665D01*
X35094715Y-79043665D01*
X35189953Y-79091284D01*
X35237572Y-79138903D01*
X35285191Y-79234141D01*
X35285191Y-79615094D01*
X34761381Y-78710332D02*
X34761381Y-78091284D01*
X35142334Y-78424618D01*
X35142334Y-78281760D01*
X35189953Y-78186522D01*
X35237572Y-78138903D01*
X35332810Y-78091284D01*
X35570905Y-78091284D01*
X35666143Y-78138903D01*
X35713762Y-78186522D01*
X35761381Y-78281760D01*
X35761381Y-78567475D01*
X35713762Y-78662713D01*
X35666143Y-78710332D01*
X58507333Y-49516380D02*
X58174000Y-49040190D01*
X57935904Y-49516380D02*
X57935904Y-48516380D01*
X58316857Y-48516380D01*
X58412095Y-48564000D01*
X58459714Y-48611619D01*
X58507333Y-48706857D01*
X58507333Y-48849714D01*
X58459714Y-48944952D01*
X58412095Y-48992571D01*
X58316857Y-49040190D01*
X57935904Y-49040190D01*
X59364476Y-48849714D02*
X59364476Y-49516380D01*
X59126380Y-48468761D02*
X58888285Y-49183047D01*
X59507333Y-49183047D01*
X58507333Y-49468880D02*
X58174000Y-48992690D01*
X57935904Y-49468880D02*
X57935904Y-48468880D01*
X58316857Y-48468880D01*
X58412095Y-48516500D01*
X58459714Y-48564119D01*
X58507333Y-48659357D01*
X58507333Y-48802214D01*
X58459714Y-48897452D01*
X58412095Y-48945071D01*
X58316857Y-48992690D01*
X57935904Y-48992690D01*
X59412095Y-48468880D02*
X58935904Y-48468880D01*
X58888285Y-48945071D01*
X58935904Y-48897452D01*
X59031142Y-48849833D01*
X59269238Y-48849833D01*
X59364476Y-48897452D01*
X59412095Y-48945071D01*
X59459714Y-49040309D01*
X59459714Y-49278404D01*
X59412095Y-49373642D01*
X59364476Y-49421261D01*
X59269238Y-49468880D01*
X59031142Y-49468880D01*
X58935904Y-49421261D01*
X58888285Y-49373642D01*
X56882380Y-52490666D02*
X56406190Y-52824000D01*
X56882380Y-53062095D02*
X55882380Y-53062095D01*
X55882380Y-52681142D01*
X55930000Y-52585904D01*
X55977619Y-52538285D01*
X56072857Y-52490666D01*
X56215714Y-52490666D01*
X56310952Y-52538285D01*
X56358571Y-52585904D01*
X56406190Y-52681142D01*
X56406190Y-53062095D01*
X55882380Y-51633523D02*
X55882380Y-51824000D01*
X55930000Y-51919238D01*
X55977619Y-51966857D01*
X56120476Y-52062095D01*
X56310952Y-52109714D01*
X56691904Y-52109714D01*
X56787142Y-52062095D01*
X56834761Y-52014476D01*
X56882380Y-51919238D01*
X56882380Y-51728761D01*
X56834761Y-51633523D01*
X56787142Y-51585904D01*
X56691904Y-51538285D01*
X56453809Y-51538285D01*
X56358571Y-51585904D01*
X56310952Y-51633523D01*
X56263333Y-51728761D01*
X56263333Y-51919238D01*
X56310952Y-52014476D01*
X56358571Y-52062095D01*
X56453809Y-52109714D01*
X42505333Y-50956380D02*
X42172000Y-50480190D01*
X41933904Y-50956380D02*
X41933904Y-49956380D01*
X42314857Y-49956380D01*
X42410095Y-50004000D01*
X42457714Y-50051619D01*
X42505333Y-50146857D01*
X42505333Y-50289714D01*
X42457714Y-50384952D01*
X42410095Y-50432571D01*
X42314857Y-50480190D01*
X41933904Y-50480190D01*
X42838666Y-49956380D02*
X43505333Y-49956380D01*
X43076761Y-50956380D01*
X42505333Y-55020380D02*
X42172000Y-54544190D01*
X41933904Y-55020380D02*
X41933904Y-54020380D01*
X42314857Y-54020380D01*
X42410095Y-54068000D01*
X42457714Y-54115619D01*
X42505333Y-54210857D01*
X42505333Y-54353714D01*
X42457714Y-54448952D01*
X42410095Y-54496571D01*
X42314857Y-54544190D01*
X41933904Y-54544190D01*
X43076761Y-54448952D02*
X42981523Y-54401333D01*
X42933904Y-54353714D01*
X42886285Y-54258476D01*
X42886285Y-54210857D01*
X42933904Y-54115619D01*
X42981523Y-54068000D01*
X43076761Y-54020380D01*
X43267238Y-54020380D01*
X43362476Y-54068000D01*
X43410095Y-54115619D01*
X43457714Y-54210857D01*
X43457714Y-54258476D01*
X43410095Y-54353714D01*
X43362476Y-54401333D01*
X43267238Y-54448952D01*
X43076761Y-54448952D01*
X42981523Y-54496571D01*
X42933904Y-54544190D01*
X42886285Y-54639428D01*
X42886285Y-54829904D01*
X42933904Y-54925142D01*
X42981523Y-54972761D01*
X43076761Y-55020380D01*
X43267238Y-55020380D01*
X43362476Y-54972761D01*
X43410095Y-54925142D01*
X43457714Y-54829904D01*
X43457714Y-54639428D01*
X43410095Y-54544190D01*
X43362476Y-54496571D01*
X43267238Y-54448952D01*
X42505333Y-47400380D02*
X42172000Y-46924190D01*
X41933904Y-47400380D02*
X41933904Y-46400380D01*
X42314857Y-46400380D01*
X42410095Y-46448000D01*
X42457714Y-46495619D01*
X42505333Y-46590857D01*
X42505333Y-46733714D01*
X42457714Y-46828952D01*
X42410095Y-46876571D01*
X42314857Y-46924190D01*
X41933904Y-46924190D01*
X42981523Y-47400380D02*
X43172000Y-47400380D01*
X43267238Y-47352761D01*
X43314857Y-47305142D01*
X43410095Y-47162285D01*
X43457714Y-46971809D01*
X43457714Y-46590857D01*
X43410095Y-46495619D01*
X43362476Y-46448000D01*
X43267238Y-46400380D01*
X43076761Y-46400380D01*
X42981523Y-46448000D01*
X42933904Y-46495619D01*
X42886285Y-46590857D01*
X42886285Y-46828952D01*
X42933904Y-46924190D01*
X42981523Y-46971809D01*
X43076761Y-47019428D01*
X43267238Y-47019428D01*
X43362476Y-46971809D01*
X43410095Y-46924190D01*
X43457714Y-46828952D01*
X36441142Y-55020380D02*
X36107809Y-54544190D01*
X35869714Y-55020380D02*
X35869714Y-54020380D01*
X36250666Y-54020380D01*
X36345904Y-54068000D01*
X36393523Y-54115619D01*
X36441142Y-54210857D01*
X36441142Y-54353714D01*
X36393523Y-54448952D01*
X36345904Y-54496571D01*
X36250666Y-54544190D01*
X35869714Y-54544190D01*
X37393523Y-55020380D02*
X36822095Y-55020380D01*
X37107809Y-55020380D02*
X37107809Y-54020380D01*
X37012571Y-54163238D01*
X36917333Y-54258476D01*
X36822095Y-54306095D01*
X38012571Y-54020380D02*
X38107809Y-54020380D01*
X38203047Y-54068000D01*
X38250666Y-54115619D01*
X38298285Y-54210857D01*
X38345904Y-54401333D01*
X38345904Y-54639428D01*
X38298285Y-54829904D01*
X38250666Y-54925142D01*
X38203047Y-54972761D01*
X38107809Y-55020380D01*
X38012571Y-55020380D01*
X37917333Y-54972761D01*
X37869714Y-54925142D01*
X37822095Y-54829904D01*
X37774476Y-54639428D01*
X37774476Y-54401333D01*
X37822095Y-54210857D01*
X37869714Y-54115619D01*
X37917333Y-54068000D01*
X38012571Y-54020380D01*
D15*
X31308523Y-85549619D02*
X32336619Y-85549619D01*
X32457571Y-85489142D01*
X32518047Y-85428666D01*
X32578523Y-85307714D01*
X32578523Y-85065809D01*
X32518047Y-84944857D01*
X32457571Y-84884380D01*
X32336619Y-84823904D01*
X31308523Y-84823904D01*
X32578523Y-83553904D02*
X32578523Y-84279619D01*
X32578523Y-83916761D02*
X31308523Y-83916761D01*
X31489952Y-84037714D01*
X31610904Y-84158666D01*
X31671380Y-84279619D01*
M02*
