G04 #@! TF.GenerationSoftware,KiCad,Pcbnew,(5.1.5)-3*
G04 #@! TF.CreationDate,2021-02-20T21:47:20+01:00*
G04 #@! TF.ProjectId,brievenbusmelder,62726965-7665-46e6-9275-736d656c6465,rev?*
G04 #@! TF.SameCoordinates,Original*
G04 #@! TF.FileFunction,Soldermask,Bot*
G04 #@! TF.FilePolarity,Negative*
%FSLAX46Y46*%
G04 Gerber Fmt 4.6, Leading zero omitted, Abs format (unit mm)*
G04 Created by KiCad (PCBNEW (5.1.5)-3) date 2021-02-20 21:47:20*
%MOMM*%
%LPD*%
G04 APERTURE LIST*
%ADD10C,0.100000*%
G04 APERTURE END LIST*
D10*
G36*
X58025512Y-81145927D02*
G01*
X58174812Y-81175624D01*
X58338784Y-81243544D01*
X58486354Y-81342147D01*
X58611853Y-81467646D01*
X58710456Y-81615216D01*
X58778376Y-81779188D01*
X58813000Y-81953259D01*
X58813000Y-82130741D01*
X58778376Y-82304812D01*
X58710456Y-82468784D01*
X58611853Y-82616354D01*
X58486354Y-82741853D01*
X58338784Y-82840456D01*
X58174812Y-82908376D01*
X58025512Y-82938073D01*
X58000742Y-82943000D01*
X57823258Y-82943000D01*
X57798488Y-82938073D01*
X57649188Y-82908376D01*
X57485216Y-82840456D01*
X57337646Y-82741853D01*
X57212147Y-82616354D01*
X57113544Y-82468784D01*
X57045624Y-82304812D01*
X57011000Y-82130741D01*
X57011000Y-81953259D01*
X57045624Y-81779188D01*
X57113544Y-81615216D01*
X57212147Y-81467646D01*
X57337646Y-81342147D01*
X57485216Y-81243544D01*
X57649188Y-81175624D01*
X57798488Y-81145927D01*
X57823258Y-81141000D01*
X58000742Y-81141000D01*
X58025512Y-81145927D01*
G37*
G36*
X58025512Y-78605927D02*
G01*
X58174812Y-78635624D01*
X58338784Y-78703544D01*
X58486354Y-78802147D01*
X58611853Y-78927646D01*
X58710456Y-79075216D01*
X58778376Y-79239188D01*
X58813000Y-79413259D01*
X58813000Y-79590741D01*
X58778376Y-79764812D01*
X58710456Y-79928784D01*
X58611853Y-80076354D01*
X58486354Y-80201853D01*
X58338784Y-80300456D01*
X58174812Y-80368376D01*
X58025512Y-80398073D01*
X58000742Y-80403000D01*
X57823258Y-80403000D01*
X57798488Y-80398073D01*
X57649188Y-80368376D01*
X57485216Y-80300456D01*
X57337646Y-80201853D01*
X57212147Y-80076354D01*
X57113544Y-79928784D01*
X57045624Y-79764812D01*
X57011000Y-79590741D01*
X57011000Y-79413259D01*
X57045624Y-79239188D01*
X57113544Y-79075216D01*
X57212147Y-78927646D01*
X57337646Y-78802147D01*
X57485216Y-78703544D01*
X57649188Y-78635624D01*
X57798488Y-78605927D01*
X57823258Y-78601000D01*
X58000742Y-78601000D01*
X58025512Y-78605927D01*
G37*
G36*
X51733797Y-76634567D02*
G01*
X51788575Y-76657257D01*
X51788577Y-76657258D01*
X51837876Y-76690198D01*
X51879802Y-76732124D01*
X51912742Y-76781423D01*
X51912743Y-76781425D01*
X51935433Y-76836203D01*
X51947000Y-76894353D01*
X51947000Y-76953647D01*
X51935433Y-77011797D01*
X51919301Y-77050742D01*
X51912742Y-77066577D01*
X51879802Y-77115876D01*
X51837876Y-77157802D01*
X51788577Y-77190742D01*
X51788576Y-77190743D01*
X51788575Y-77190743D01*
X51745668Y-77208516D01*
X51724057Y-77220067D01*
X51705115Y-77235613D01*
X51689570Y-77254555D01*
X51678019Y-77276165D01*
X51670906Y-77299614D01*
X51668504Y-77324000D01*
X51670906Y-77348387D01*
X51678019Y-77371835D01*
X51689570Y-77393446D01*
X51705116Y-77412388D01*
X51724058Y-77427933D01*
X51745668Y-77439484D01*
X51788575Y-77457257D01*
X51788577Y-77457258D01*
X51837876Y-77490198D01*
X51879802Y-77532124D01*
X51882628Y-77536354D01*
X51912743Y-77581425D01*
X51935433Y-77636203D01*
X51947000Y-77694353D01*
X51947000Y-77753647D01*
X51935433Y-77811797D01*
X51914224Y-77863000D01*
X51912742Y-77866577D01*
X51879802Y-77915876D01*
X51837876Y-77957802D01*
X51788577Y-77990742D01*
X51788576Y-77990743D01*
X51788575Y-77990743D01*
X51745668Y-78008516D01*
X51724057Y-78020067D01*
X51705115Y-78035613D01*
X51689570Y-78054555D01*
X51678019Y-78076165D01*
X51670906Y-78099614D01*
X51668504Y-78124000D01*
X51670906Y-78148387D01*
X51678019Y-78171835D01*
X51689570Y-78193446D01*
X51705116Y-78212388D01*
X51724058Y-78227933D01*
X51745668Y-78239484D01*
X51788575Y-78257257D01*
X51788577Y-78257258D01*
X51837876Y-78290198D01*
X51879802Y-78332124D01*
X51912742Y-78381423D01*
X51912743Y-78381425D01*
X51935433Y-78436203D01*
X51947000Y-78494353D01*
X51947000Y-78553647D01*
X51935433Y-78611797D01*
X51925563Y-78635624D01*
X51912742Y-78666577D01*
X51879802Y-78715876D01*
X51837876Y-78757802D01*
X51788577Y-78790742D01*
X51788576Y-78790743D01*
X51788575Y-78790743D01*
X51733797Y-78813433D01*
X51675647Y-78825000D01*
X51616353Y-78825000D01*
X51558203Y-78813433D01*
X51503425Y-78790743D01*
X51503424Y-78790743D01*
X51503423Y-78790742D01*
X51454124Y-78757802D01*
X51412198Y-78715876D01*
X51379258Y-78666577D01*
X51366437Y-78635624D01*
X51356567Y-78611797D01*
X51345000Y-78553647D01*
X51345000Y-78494353D01*
X51356567Y-78436203D01*
X51379257Y-78381425D01*
X51379258Y-78381423D01*
X51412198Y-78332124D01*
X51454124Y-78290198D01*
X51503423Y-78257258D01*
X51503425Y-78257257D01*
X51546332Y-78239484D01*
X51567943Y-78227933D01*
X51586885Y-78212387D01*
X51602430Y-78193445D01*
X51613981Y-78171835D01*
X51621094Y-78148386D01*
X51623496Y-78124000D01*
X51621094Y-78099613D01*
X51613981Y-78076165D01*
X51602430Y-78054554D01*
X51586884Y-78035612D01*
X51567942Y-78020067D01*
X51546332Y-78008516D01*
X51503425Y-77990743D01*
X51503424Y-77990743D01*
X51503423Y-77990742D01*
X51454124Y-77957802D01*
X51412198Y-77915876D01*
X51379258Y-77866577D01*
X51377776Y-77863000D01*
X51356567Y-77811797D01*
X51345000Y-77753647D01*
X51345000Y-77694353D01*
X51356567Y-77636203D01*
X51379257Y-77581425D01*
X51409372Y-77536354D01*
X51412198Y-77532124D01*
X51454124Y-77490198D01*
X51503423Y-77457258D01*
X51503425Y-77457257D01*
X51546332Y-77439484D01*
X51567943Y-77427933D01*
X51586885Y-77412387D01*
X51602430Y-77393445D01*
X51613981Y-77371835D01*
X51621094Y-77348386D01*
X51623496Y-77324000D01*
X51621094Y-77299613D01*
X51613981Y-77276165D01*
X51602430Y-77254554D01*
X51586884Y-77235612D01*
X51567942Y-77220067D01*
X51546332Y-77208516D01*
X51503425Y-77190743D01*
X51503424Y-77190743D01*
X51503423Y-77190742D01*
X51454124Y-77157802D01*
X51412198Y-77115876D01*
X51379258Y-77066577D01*
X51372699Y-77050742D01*
X51356567Y-77011797D01*
X51345000Y-76953647D01*
X51345000Y-76894353D01*
X51356567Y-76836203D01*
X51379257Y-76781425D01*
X51379258Y-76781423D01*
X51412198Y-76732124D01*
X51454124Y-76690198D01*
X51503423Y-76657258D01*
X51503425Y-76657257D01*
X51558203Y-76634567D01*
X51616353Y-76623000D01*
X51675647Y-76623000D01*
X51733797Y-76634567D01*
G37*
G36*
X49533797Y-76634567D02*
G01*
X49588575Y-76657257D01*
X49588577Y-76657258D01*
X49637876Y-76690198D01*
X49679802Y-76732124D01*
X49712742Y-76781423D01*
X49712743Y-76781425D01*
X49735433Y-76836203D01*
X49747000Y-76894353D01*
X49747000Y-76953647D01*
X49735433Y-77011797D01*
X49719301Y-77050742D01*
X49712742Y-77066577D01*
X49679802Y-77115876D01*
X49637876Y-77157802D01*
X49588577Y-77190742D01*
X49588576Y-77190743D01*
X49588575Y-77190743D01*
X49545668Y-77208516D01*
X49524057Y-77220067D01*
X49505115Y-77235613D01*
X49489570Y-77254555D01*
X49478019Y-77276165D01*
X49470906Y-77299614D01*
X49468504Y-77324000D01*
X49470906Y-77348387D01*
X49478019Y-77371835D01*
X49489570Y-77393446D01*
X49505116Y-77412388D01*
X49524058Y-77427933D01*
X49545668Y-77439484D01*
X49588575Y-77457257D01*
X49588577Y-77457258D01*
X49637876Y-77490198D01*
X49679802Y-77532124D01*
X49682628Y-77536354D01*
X49712743Y-77581425D01*
X49735433Y-77636203D01*
X49747000Y-77694353D01*
X49747000Y-77753647D01*
X49735433Y-77811797D01*
X49714224Y-77863000D01*
X49712742Y-77866577D01*
X49679802Y-77915876D01*
X49637876Y-77957802D01*
X49588577Y-77990742D01*
X49588576Y-77990743D01*
X49588575Y-77990743D01*
X49545668Y-78008516D01*
X49524057Y-78020067D01*
X49505115Y-78035613D01*
X49489570Y-78054555D01*
X49478019Y-78076165D01*
X49470906Y-78099614D01*
X49468504Y-78124000D01*
X49470906Y-78148387D01*
X49478019Y-78171835D01*
X49489570Y-78193446D01*
X49505116Y-78212388D01*
X49524058Y-78227933D01*
X49545668Y-78239484D01*
X49588575Y-78257257D01*
X49588577Y-78257258D01*
X49637876Y-78290198D01*
X49679802Y-78332124D01*
X49712742Y-78381423D01*
X49712743Y-78381425D01*
X49735433Y-78436203D01*
X49747000Y-78494353D01*
X49747000Y-78553647D01*
X49735433Y-78611797D01*
X49725563Y-78635624D01*
X49712742Y-78666577D01*
X49679802Y-78715876D01*
X49637876Y-78757802D01*
X49588577Y-78790742D01*
X49588576Y-78790743D01*
X49588575Y-78790743D01*
X49533797Y-78813433D01*
X49475647Y-78825000D01*
X49416353Y-78825000D01*
X49358203Y-78813433D01*
X49303425Y-78790743D01*
X49303424Y-78790743D01*
X49303423Y-78790742D01*
X49254124Y-78757802D01*
X49212198Y-78715876D01*
X49179258Y-78666577D01*
X49166437Y-78635624D01*
X49156567Y-78611797D01*
X49145000Y-78553647D01*
X49145000Y-78494353D01*
X49156567Y-78436203D01*
X49179257Y-78381425D01*
X49179258Y-78381423D01*
X49212198Y-78332124D01*
X49254124Y-78290198D01*
X49303423Y-78257258D01*
X49303425Y-78257257D01*
X49346332Y-78239484D01*
X49367943Y-78227933D01*
X49386885Y-78212387D01*
X49402430Y-78193445D01*
X49413981Y-78171835D01*
X49421094Y-78148386D01*
X49423496Y-78124000D01*
X49421094Y-78099613D01*
X49413981Y-78076165D01*
X49402430Y-78054554D01*
X49386884Y-78035612D01*
X49367942Y-78020067D01*
X49346332Y-78008516D01*
X49303425Y-77990743D01*
X49303424Y-77990743D01*
X49303423Y-77990742D01*
X49254124Y-77957802D01*
X49212198Y-77915876D01*
X49179258Y-77866577D01*
X49177776Y-77863000D01*
X49156567Y-77811797D01*
X49145000Y-77753647D01*
X49145000Y-77694353D01*
X49156567Y-77636203D01*
X49179257Y-77581425D01*
X49209372Y-77536354D01*
X49212198Y-77532124D01*
X49254124Y-77490198D01*
X49303423Y-77457258D01*
X49303425Y-77457257D01*
X49346332Y-77439484D01*
X49367943Y-77427933D01*
X49386885Y-77412387D01*
X49402430Y-77393445D01*
X49413981Y-77371835D01*
X49421094Y-77348386D01*
X49423496Y-77324000D01*
X49421094Y-77299613D01*
X49413981Y-77276165D01*
X49402430Y-77254554D01*
X49386884Y-77235612D01*
X49367942Y-77220067D01*
X49346332Y-77208516D01*
X49303425Y-77190743D01*
X49303424Y-77190743D01*
X49303423Y-77190742D01*
X49254124Y-77157802D01*
X49212198Y-77115876D01*
X49179258Y-77066577D01*
X49172699Y-77050742D01*
X49156567Y-77011797D01*
X49145000Y-76953647D01*
X49145000Y-76894353D01*
X49156567Y-76836203D01*
X49179257Y-76781425D01*
X49179258Y-76781423D01*
X49212198Y-76732124D01*
X49254124Y-76690198D01*
X49303423Y-76657258D01*
X49303425Y-76657257D01*
X49358203Y-76634567D01*
X49416353Y-76623000D01*
X49475647Y-76623000D01*
X49533797Y-76634567D01*
G37*
G36*
X58025512Y-76065927D02*
G01*
X58174812Y-76095624D01*
X58338784Y-76163544D01*
X58486354Y-76262147D01*
X58611853Y-76387646D01*
X58710456Y-76535216D01*
X58778376Y-76699188D01*
X58813000Y-76873259D01*
X58813000Y-77050741D01*
X58778376Y-77224812D01*
X58710456Y-77388784D01*
X58611853Y-77536354D01*
X58486354Y-77661853D01*
X58338784Y-77760456D01*
X58174812Y-77828376D01*
X58025512Y-77858073D01*
X58000742Y-77863000D01*
X57823258Y-77863000D01*
X57798488Y-77858073D01*
X57649188Y-77828376D01*
X57485216Y-77760456D01*
X57337646Y-77661853D01*
X57212147Y-77536354D01*
X57113544Y-77388784D01*
X57045624Y-77224812D01*
X57011000Y-77050741D01*
X57011000Y-76873259D01*
X57045624Y-76699188D01*
X57113544Y-76535216D01*
X57212147Y-76387646D01*
X57337646Y-76262147D01*
X57485216Y-76163544D01*
X57649188Y-76095624D01*
X57798488Y-76065927D01*
X57823258Y-76061000D01*
X58000742Y-76061000D01*
X58025512Y-76065927D01*
G37*
G36*
X58813000Y-75323000D02*
G01*
X57011000Y-75323000D01*
X57011000Y-73521000D01*
X58813000Y-73521000D01*
X58813000Y-75323000D01*
G37*
G36*
X30593512Y-73017927D02*
G01*
X30742812Y-73047624D01*
X30906784Y-73115544D01*
X31054354Y-73214147D01*
X31179853Y-73339646D01*
X31278456Y-73487216D01*
X31346376Y-73651188D01*
X31381000Y-73825259D01*
X31381000Y-74002741D01*
X31346376Y-74176812D01*
X31278456Y-74340784D01*
X31179853Y-74488354D01*
X31054354Y-74613853D01*
X30906784Y-74712456D01*
X30742812Y-74780376D01*
X30593512Y-74810073D01*
X30568742Y-74815000D01*
X30391258Y-74815000D01*
X30366488Y-74810073D01*
X30217188Y-74780376D01*
X30053216Y-74712456D01*
X29905646Y-74613853D01*
X29780147Y-74488354D01*
X29681544Y-74340784D01*
X29613624Y-74176812D01*
X29579000Y-74002741D01*
X29579000Y-73825259D01*
X29613624Y-73651188D01*
X29681544Y-73487216D01*
X29780147Y-73339646D01*
X29905646Y-73214147D01*
X30053216Y-73115544D01*
X30217188Y-73047624D01*
X30366488Y-73017927D01*
X30391258Y-73013000D01*
X30568742Y-73013000D01*
X30593512Y-73017927D01*
G37*
G36*
X28841000Y-74815000D02*
G01*
X27039000Y-74815000D01*
X27039000Y-73013000D01*
X28841000Y-73013000D01*
X28841000Y-74815000D01*
G37*
G36*
X33133512Y-73017927D02*
G01*
X33282812Y-73047624D01*
X33446784Y-73115544D01*
X33594354Y-73214147D01*
X33719853Y-73339646D01*
X33818456Y-73487216D01*
X33886376Y-73651188D01*
X33921000Y-73825259D01*
X33921000Y-74002741D01*
X33886376Y-74176812D01*
X33818456Y-74340784D01*
X33719853Y-74488354D01*
X33594354Y-74613853D01*
X33446784Y-74712456D01*
X33282812Y-74780376D01*
X33133512Y-74810073D01*
X33108742Y-74815000D01*
X32931258Y-74815000D01*
X32906488Y-74810073D01*
X32757188Y-74780376D01*
X32593216Y-74712456D01*
X32445646Y-74613853D01*
X32320147Y-74488354D01*
X32221544Y-74340784D01*
X32153624Y-74176812D01*
X32119000Y-74002741D01*
X32119000Y-73825259D01*
X32153624Y-73651188D01*
X32221544Y-73487216D01*
X32320147Y-73339646D01*
X32445646Y-73214147D01*
X32593216Y-73115544D01*
X32757188Y-73047624D01*
X32906488Y-73017927D01*
X32931258Y-73013000D01*
X33108742Y-73013000D01*
X33133512Y-73017927D01*
G37*
G36*
X38213512Y-73017927D02*
G01*
X38362812Y-73047624D01*
X38526784Y-73115544D01*
X38674354Y-73214147D01*
X38799853Y-73339646D01*
X38898456Y-73487216D01*
X38966376Y-73651188D01*
X39001000Y-73825259D01*
X39001000Y-74002741D01*
X38966376Y-74176812D01*
X38898456Y-74340784D01*
X38799853Y-74488354D01*
X38674354Y-74613853D01*
X38526784Y-74712456D01*
X38362812Y-74780376D01*
X38213512Y-74810073D01*
X38188742Y-74815000D01*
X38011258Y-74815000D01*
X37986488Y-74810073D01*
X37837188Y-74780376D01*
X37673216Y-74712456D01*
X37525646Y-74613853D01*
X37400147Y-74488354D01*
X37301544Y-74340784D01*
X37233624Y-74176812D01*
X37199000Y-74002741D01*
X37199000Y-73825259D01*
X37233624Y-73651188D01*
X37301544Y-73487216D01*
X37400147Y-73339646D01*
X37525646Y-73214147D01*
X37673216Y-73115544D01*
X37837188Y-73047624D01*
X37986488Y-73017927D01*
X38011258Y-73013000D01*
X38188742Y-73013000D01*
X38213512Y-73017927D01*
G37*
G36*
X35673512Y-73017927D02*
G01*
X35822812Y-73047624D01*
X35986784Y-73115544D01*
X36134354Y-73214147D01*
X36259853Y-73339646D01*
X36358456Y-73487216D01*
X36426376Y-73651188D01*
X36461000Y-73825259D01*
X36461000Y-74002741D01*
X36426376Y-74176812D01*
X36358456Y-74340784D01*
X36259853Y-74488354D01*
X36134354Y-74613853D01*
X35986784Y-74712456D01*
X35822812Y-74780376D01*
X35673512Y-74810073D01*
X35648742Y-74815000D01*
X35471258Y-74815000D01*
X35446488Y-74810073D01*
X35297188Y-74780376D01*
X35133216Y-74712456D01*
X34985646Y-74613853D01*
X34860147Y-74488354D01*
X34761544Y-74340784D01*
X34693624Y-74176812D01*
X34659000Y-74002741D01*
X34659000Y-73825259D01*
X34693624Y-73651188D01*
X34761544Y-73487216D01*
X34860147Y-73339646D01*
X34985646Y-73214147D01*
X35133216Y-73115544D01*
X35297188Y-73047624D01*
X35446488Y-73017927D01*
X35471258Y-73013000D01*
X35648742Y-73013000D01*
X35673512Y-73017927D01*
G37*
G36*
X33577797Y-68120567D02*
G01*
X33632575Y-68143257D01*
X33632577Y-68143258D01*
X33681876Y-68176198D01*
X33723802Y-68218124D01*
X33756742Y-68267423D01*
X33756743Y-68267425D01*
X33774516Y-68310332D01*
X33786067Y-68331943D01*
X33801613Y-68350885D01*
X33820555Y-68366430D01*
X33842165Y-68377981D01*
X33865614Y-68385094D01*
X33890000Y-68387496D01*
X33914387Y-68385094D01*
X33937835Y-68377981D01*
X33959446Y-68366430D01*
X33978388Y-68350884D01*
X33993933Y-68331942D01*
X34005484Y-68310332D01*
X34023257Y-68267425D01*
X34023258Y-68267423D01*
X34056198Y-68218124D01*
X34098124Y-68176198D01*
X34147423Y-68143258D01*
X34147425Y-68143257D01*
X34202203Y-68120567D01*
X34260353Y-68109000D01*
X34319647Y-68109000D01*
X34377797Y-68120567D01*
X34432575Y-68143257D01*
X34432577Y-68143258D01*
X34481876Y-68176198D01*
X34523802Y-68218124D01*
X34556742Y-68267423D01*
X34556743Y-68267425D01*
X34574516Y-68310332D01*
X34586067Y-68331943D01*
X34601613Y-68350885D01*
X34620555Y-68366430D01*
X34642165Y-68377981D01*
X34665614Y-68385094D01*
X34690000Y-68387496D01*
X34714387Y-68385094D01*
X34737835Y-68377981D01*
X34759446Y-68366430D01*
X34778388Y-68350884D01*
X34793933Y-68331942D01*
X34805484Y-68310332D01*
X34823257Y-68267425D01*
X34823258Y-68267423D01*
X34856198Y-68218124D01*
X34898124Y-68176198D01*
X34947423Y-68143258D01*
X34947425Y-68143257D01*
X35002203Y-68120567D01*
X35060353Y-68109000D01*
X35119647Y-68109000D01*
X35177797Y-68120567D01*
X35232575Y-68143257D01*
X35232577Y-68143258D01*
X35281876Y-68176198D01*
X35323802Y-68218124D01*
X35356742Y-68267423D01*
X35356743Y-68267425D01*
X35379433Y-68322203D01*
X35391000Y-68380353D01*
X35391000Y-68439647D01*
X35379433Y-68497797D01*
X35356743Y-68552575D01*
X35356742Y-68552577D01*
X35323802Y-68601876D01*
X35281876Y-68643802D01*
X35232577Y-68676742D01*
X35232576Y-68676743D01*
X35232575Y-68676743D01*
X35177797Y-68699433D01*
X35119647Y-68711000D01*
X35060353Y-68711000D01*
X35002203Y-68699433D01*
X34947425Y-68676743D01*
X34947424Y-68676743D01*
X34947423Y-68676742D01*
X34898124Y-68643802D01*
X34856198Y-68601876D01*
X34823258Y-68552577D01*
X34823257Y-68552575D01*
X34805484Y-68509668D01*
X34793933Y-68488057D01*
X34778387Y-68469115D01*
X34759445Y-68453570D01*
X34737835Y-68442019D01*
X34714386Y-68434906D01*
X34690000Y-68432504D01*
X34665613Y-68434906D01*
X34642165Y-68442019D01*
X34620554Y-68453570D01*
X34601612Y-68469116D01*
X34586067Y-68488058D01*
X34574516Y-68509668D01*
X34556743Y-68552575D01*
X34556742Y-68552577D01*
X34523802Y-68601876D01*
X34481876Y-68643802D01*
X34432577Y-68676742D01*
X34432576Y-68676743D01*
X34432575Y-68676743D01*
X34377797Y-68699433D01*
X34319647Y-68711000D01*
X34260353Y-68711000D01*
X34202203Y-68699433D01*
X34147425Y-68676743D01*
X34147424Y-68676743D01*
X34147423Y-68676742D01*
X34098124Y-68643802D01*
X34056198Y-68601876D01*
X34023258Y-68552577D01*
X34023257Y-68552575D01*
X34005484Y-68509668D01*
X33993933Y-68488057D01*
X33978387Y-68469115D01*
X33959445Y-68453570D01*
X33937835Y-68442019D01*
X33914386Y-68434906D01*
X33890000Y-68432504D01*
X33865613Y-68434906D01*
X33842165Y-68442019D01*
X33820554Y-68453570D01*
X33801612Y-68469116D01*
X33786067Y-68488058D01*
X33774516Y-68509668D01*
X33756743Y-68552575D01*
X33756742Y-68552577D01*
X33723802Y-68601876D01*
X33681876Y-68643802D01*
X33632577Y-68676742D01*
X33632576Y-68676743D01*
X33632575Y-68676743D01*
X33577797Y-68699433D01*
X33519647Y-68711000D01*
X33460353Y-68711000D01*
X33402203Y-68699433D01*
X33347425Y-68676743D01*
X33347424Y-68676743D01*
X33347423Y-68676742D01*
X33298124Y-68643802D01*
X33256198Y-68601876D01*
X33223258Y-68552577D01*
X33223257Y-68552575D01*
X33200567Y-68497797D01*
X33189000Y-68439647D01*
X33189000Y-68380353D01*
X33200567Y-68322203D01*
X33223257Y-68267425D01*
X33223258Y-68267423D01*
X33256198Y-68218124D01*
X33298124Y-68176198D01*
X33347423Y-68143258D01*
X33347425Y-68143257D01*
X33402203Y-68120567D01*
X33460353Y-68109000D01*
X33519647Y-68109000D01*
X33577797Y-68120567D01*
G37*
G36*
X61009797Y-68120567D02*
G01*
X61064575Y-68143257D01*
X61064577Y-68143258D01*
X61113876Y-68176198D01*
X61155802Y-68218124D01*
X61188742Y-68267423D01*
X61188743Y-68267425D01*
X61206516Y-68310332D01*
X61218067Y-68331943D01*
X61233613Y-68350885D01*
X61252555Y-68366430D01*
X61274165Y-68377981D01*
X61297614Y-68385094D01*
X61322000Y-68387496D01*
X61346387Y-68385094D01*
X61369835Y-68377981D01*
X61391446Y-68366430D01*
X61410388Y-68350884D01*
X61425933Y-68331942D01*
X61437484Y-68310332D01*
X61455257Y-68267425D01*
X61455258Y-68267423D01*
X61488198Y-68218124D01*
X61530124Y-68176198D01*
X61579423Y-68143258D01*
X61579425Y-68143257D01*
X61634203Y-68120567D01*
X61692353Y-68109000D01*
X61751647Y-68109000D01*
X61809797Y-68120567D01*
X61864575Y-68143257D01*
X61864577Y-68143258D01*
X61913876Y-68176198D01*
X61955802Y-68218124D01*
X61988742Y-68267423D01*
X61988743Y-68267425D01*
X62006516Y-68310332D01*
X62018067Y-68331943D01*
X62033613Y-68350885D01*
X62052555Y-68366430D01*
X62074165Y-68377981D01*
X62097614Y-68385094D01*
X62122000Y-68387496D01*
X62146387Y-68385094D01*
X62169835Y-68377981D01*
X62191446Y-68366430D01*
X62210388Y-68350884D01*
X62225933Y-68331942D01*
X62237484Y-68310332D01*
X62255257Y-68267425D01*
X62255258Y-68267423D01*
X62288198Y-68218124D01*
X62330124Y-68176198D01*
X62379423Y-68143258D01*
X62379425Y-68143257D01*
X62434203Y-68120567D01*
X62492353Y-68109000D01*
X62551647Y-68109000D01*
X62609797Y-68120567D01*
X62664575Y-68143257D01*
X62664577Y-68143258D01*
X62713876Y-68176198D01*
X62755802Y-68218124D01*
X62788742Y-68267423D01*
X62788743Y-68267425D01*
X62811433Y-68322203D01*
X62823000Y-68380353D01*
X62823000Y-68439647D01*
X62811433Y-68497797D01*
X62788743Y-68552575D01*
X62788742Y-68552577D01*
X62755802Y-68601876D01*
X62713876Y-68643802D01*
X62664577Y-68676742D01*
X62664576Y-68676743D01*
X62664575Y-68676743D01*
X62609797Y-68699433D01*
X62551647Y-68711000D01*
X62492353Y-68711000D01*
X62434203Y-68699433D01*
X62379425Y-68676743D01*
X62379424Y-68676743D01*
X62379423Y-68676742D01*
X62330124Y-68643802D01*
X62288198Y-68601876D01*
X62255258Y-68552577D01*
X62255257Y-68552575D01*
X62237484Y-68509668D01*
X62225933Y-68488057D01*
X62210387Y-68469115D01*
X62191445Y-68453570D01*
X62169835Y-68442019D01*
X62146386Y-68434906D01*
X62122000Y-68432504D01*
X62097613Y-68434906D01*
X62074165Y-68442019D01*
X62052554Y-68453570D01*
X62033612Y-68469116D01*
X62018067Y-68488058D01*
X62006516Y-68509668D01*
X61988743Y-68552575D01*
X61988742Y-68552577D01*
X61955802Y-68601876D01*
X61913876Y-68643802D01*
X61864577Y-68676742D01*
X61864576Y-68676743D01*
X61864575Y-68676743D01*
X61809797Y-68699433D01*
X61751647Y-68711000D01*
X61692353Y-68711000D01*
X61634203Y-68699433D01*
X61579425Y-68676743D01*
X61579424Y-68676743D01*
X61579423Y-68676742D01*
X61530124Y-68643802D01*
X61488198Y-68601876D01*
X61455258Y-68552577D01*
X61455257Y-68552575D01*
X61437484Y-68509668D01*
X61425933Y-68488057D01*
X61410387Y-68469115D01*
X61391445Y-68453570D01*
X61369835Y-68442019D01*
X61346386Y-68434906D01*
X61322000Y-68432504D01*
X61297613Y-68434906D01*
X61274165Y-68442019D01*
X61252554Y-68453570D01*
X61233612Y-68469116D01*
X61218067Y-68488058D01*
X61206516Y-68509668D01*
X61188743Y-68552575D01*
X61188742Y-68552577D01*
X61155802Y-68601876D01*
X61113876Y-68643802D01*
X61064577Y-68676742D01*
X61064576Y-68676743D01*
X61064575Y-68676743D01*
X61009797Y-68699433D01*
X60951647Y-68711000D01*
X60892353Y-68711000D01*
X60834203Y-68699433D01*
X60779425Y-68676743D01*
X60779424Y-68676743D01*
X60779423Y-68676742D01*
X60730124Y-68643802D01*
X60688198Y-68601876D01*
X60655258Y-68552577D01*
X60655257Y-68552575D01*
X60632567Y-68497797D01*
X60621000Y-68439647D01*
X60621000Y-68380353D01*
X60632567Y-68322203D01*
X60655257Y-68267425D01*
X60655258Y-68267423D01*
X60688198Y-68218124D01*
X60730124Y-68176198D01*
X60779423Y-68143258D01*
X60779425Y-68143257D01*
X60834203Y-68120567D01*
X60892353Y-68109000D01*
X60951647Y-68109000D01*
X61009797Y-68120567D01*
G37*
G36*
X33577797Y-65920567D02*
G01*
X33632575Y-65943257D01*
X33632577Y-65943258D01*
X33681876Y-65976198D01*
X33723802Y-66018124D01*
X33756742Y-66067423D01*
X33756743Y-66067425D01*
X33774516Y-66110332D01*
X33786067Y-66131943D01*
X33801613Y-66150885D01*
X33820555Y-66166430D01*
X33842165Y-66177981D01*
X33865614Y-66185094D01*
X33890000Y-66187496D01*
X33914387Y-66185094D01*
X33937835Y-66177981D01*
X33959446Y-66166430D01*
X33978388Y-66150884D01*
X33993933Y-66131942D01*
X34005484Y-66110332D01*
X34023257Y-66067425D01*
X34023258Y-66067423D01*
X34056198Y-66018124D01*
X34098124Y-65976198D01*
X34147423Y-65943258D01*
X34147425Y-65943257D01*
X34202203Y-65920567D01*
X34260353Y-65909000D01*
X34319647Y-65909000D01*
X34377797Y-65920567D01*
X34432575Y-65943257D01*
X34432577Y-65943258D01*
X34481876Y-65976198D01*
X34523802Y-66018124D01*
X34556742Y-66067423D01*
X34556743Y-66067425D01*
X34574516Y-66110332D01*
X34586067Y-66131943D01*
X34601613Y-66150885D01*
X34620555Y-66166430D01*
X34642165Y-66177981D01*
X34665614Y-66185094D01*
X34690000Y-66187496D01*
X34714387Y-66185094D01*
X34737835Y-66177981D01*
X34759446Y-66166430D01*
X34778388Y-66150884D01*
X34793933Y-66131942D01*
X34805484Y-66110332D01*
X34823257Y-66067425D01*
X34823258Y-66067423D01*
X34856198Y-66018124D01*
X34898124Y-65976198D01*
X34947423Y-65943258D01*
X34947425Y-65943257D01*
X35002203Y-65920567D01*
X35060353Y-65909000D01*
X35119647Y-65909000D01*
X35177797Y-65920567D01*
X35232575Y-65943257D01*
X35232577Y-65943258D01*
X35281876Y-65976198D01*
X35323802Y-66018124D01*
X35356742Y-66067423D01*
X35356743Y-66067425D01*
X35379433Y-66122203D01*
X35391000Y-66180353D01*
X35391000Y-66239647D01*
X35379433Y-66297797D01*
X35356743Y-66352575D01*
X35356742Y-66352577D01*
X35323802Y-66401876D01*
X35281876Y-66443802D01*
X35232577Y-66476742D01*
X35232576Y-66476743D01*
X35232575Y-66476743D01*
X35177797Y-66499433D01*
X35119647Y-66511000D01*
X35060353Y-66511000D01*
X35002203Y-66499433D01*
X34947425Y-66476743D01*
X34947424Y-66476743D01*
X34947423Y-66476742D01*
X34898124Y-66443802D01*
X34856198Y-66401876D01*
X34823258Y-66352577D01*
X34823257Y-66352575D01*
X34805484Y-66309668D01*
X34793933Y-66288057D01*
X34778387Y-66269115D01*
X34759445Y-66253570D01*
X34737835Y-66242019D01*
X34714386Y-66234906D01*
X34690000Y-66232504D01*
X34665613Y-66234906D01*
X34642165Y-66242019D01*
X34620554Y-66253570D01*
X34601612Y-66269116D01*
X34586067Y-66288058D01*
X34574516Y-66309668D01*
X34556743Y-66352575D01*
X34556742Y-66352577D01*
X34523802Y-66401876D01*
X34481876Y-66443802D01*
X34432577Y-66476742D01*
X34432576Y-66476743D01*
X34432575Y-66476743D01*
X34377797Y-66499433D01*
X34319647Y-66511000D01*
X34260353Y-66511000D01*
X34202203Y-66499433D01*
X34147425Y-66476743D01*
X34147424Y-66476743D01*
X34147423Y-66476742D01*
X34098124Y-66443802D01*
X34056198Y-66401876D01*
X34023258Y-66352577D01*
X34023257Y-66352575D01*
X34005484Y-66309668D01*
X33993933Y-66288057D01*
X33978387Y-66269115D01*
X33959445Y-66253570D01*
X33937835Y-66242019D01*
X33914386Y-66234906D01*
X33890000Y-66232504D01*
X33865613Y-66234906D01*
X33842165Y-66242019D01*
X33820554Y-66253570D01*
X33801612Y-66269116D01*
X33786067Y-66288058D01*
X33774516Y-66309668D01*
X33756743Y-66352575D01*
X33756742Y-66352577D01*
X33723802Y-66401876D01*
X33681876Y-66443802D01*
X33632577Y-66476742D01*
X33632576Y-66476743D01*
X33632575Y-66476743D01*
X33577797Y-66499433D01*
X33519647Y-66511000D01*
X33460353Y-66511000D01*
X33402203Y-66499433D01*
X33347425Y-66476743D01*
X33347424Y-66476743D01*
X33347423Y-66476742D01*
X33298124Y-66443802D01*
X33256198Y-66401876D01*
X33223258Y-66352577D01*
X33223257Y-66352575D01*
X33200567Y-66297797D01*
X33189000Y-66239647D01*
X33189000Y-66180353D01*
X33200567Y-66122203D01*
X33223257Y-66067425D01*
X33223258Y-66067423D01*
X33256198Y-66018124D01*
X33298124Y-65976198D01*
X33347423Y-65943258D01*
X33347425Y-65943257D01*
X33402203Y-65920567D01*
X33460353Y-65909000D01*
X33519647Y-65909000D01*
X33577797Y-65920567D01*
G37*
G36*
X61009797Y-65920567D02*
G01*
X61064575Y-65943257D01*
X61064577Y-65943258D01*
X61113876Y-65976198D01*
X61155802Y-66018124D01*
X61188742Y-66067423D01*
X61188743Y-66067425D01*
X61206516Y-66110332D01*
X61218067Y-66131943D01*
X61233613Y-66150885D01*
X61252555Y-66166430D01*
X61274165Y-66177981D01*
X61297614Y-66185094D01*
X61322000Y-66187496D01*
X61346387Y-66185094D01*
X61369835Y-66177981D01*
X61391446Y-66166430D01*
X61410388Y-66150884D01*
X61425933Y-66131942D01*
X61437484Y-66110332D01*
X61455257Y-66067425D01*
X61455258Y-66067423D01*
X61488198Y-66018124D01*
X61530124Y-65976198D01*
X61579423Y-65943258D01*
X61579425Y-65943257D01*
X61634203Y-65920567D01*
X61692353Y-65909000D01*
X61751647Y-65909000D01*
X61809797Y-65920567D01*
X61864575Y-65943257D01*
X61864577Y-65943258D01*
X61913876Y-65976198D01*
X61955802Y-66018124D01*
X61988742Y-66067423D01*
X61988743Y-66067425D01*
X62006516Y-66110332D01*
X62018067Y-66131943D01*
X62033613Y-66150885D01*
X62052555Y-66166430D01*
X62074165Y-66177981D01*
X62097614Y-66185094D01*
X62122000Y-66187496D01*
X62146387Y-66185094D01*
X62169835Y-66177981D01*
X62191446Y-66166430D01*
X62210388Y-66150884D01*
X62225933Y-66131942D01*
X62237484Y-66110332D01*
X62255257Y-66067425D01*
X62255258Y-66067423D01*
X62288198Y-66018124D01*
X62330124Y-65976198D01*
X62379423Y-65943258D01*
X62379425Y-65943257D01*
X62434203Y-65920567D01*
X62492353Y-65909000D01*
X62551647Y-65909000D01*
X62609797Y-65920567D01*
X62664575Y-65943257D01*
X62664577Y-65943258D01*
X62713876Y-65976198D01*
X62755802Y-66018124D01*
X62788742Y-66067423D01*
X62788743Y-66067425D01*
X62811433Y-66122203D01*
X62823000Y-66180353D01*
X62823000Y-66239647D01*
X62811433Y-66297797D01*
X62788743Y-66352575D01*
X62788742Y-66352577D01*
X62755802Y-66401876D01*
X62713876Y-66443802D01*
X62664577Y-66476742D01*
X62664576Y-66476743D01*
X62664575Y-66476743D01*
X62609797Y-66499433D01*
X62551647Y-66511000D01*
X62492353Y-66511000D01*
X62434203Y-66499433D01*
X62379425Y-66476743D01*
X62379424Y-66476743D01*
X62379423Y-66476742D01*
X62330124Y-66443802D01*
X62288198Y-66401876D01*
X62255258Y-66352577D01*
X62255257Y-66352575D01*
X62237484Y-66309668D01*
X62225933Y-66288057D01*
X62210387Y-66269115D01*
X62191445Y-66253570D01*
X62169835Y-66242019D01*
X62146386Y-66234906D01*
X62122000Y-66232504D01*
X62097613Y-66234906D01*
X62074165Y-66242019D01*
X62052554Y-66253570D01*
X62033612Y-66269116D01*
X62018067Y-66288058D01*
X62006516Y-66309668D01*
X61988743Y-66352575D01*
X61988742Y-66352577D01*
X61955802Y-66401876D01*
X61913876Y-66443802D01*
X61864577Y-66476742D01*
X61864576Y-66476743D01*
X61864575Y-66476743D01*
X61809797Y-66499433D01*
X61751647Y-66511000D01*
X61692353Y-66511000D01*
X61634203Y-66499433D01*
X61579425Y-66476743D01*
X61579424Y-66476743D01*
X61579423Y-66476742D01*
X61530124Y-66443802D01*
X61488198Y-66401876D01*
X61455258Y-66352577D01*
X61455257Y-66352575D01*
X61437484Y-66309668D01*
X61425933Y-66288057D01*
X61410387Y-66269115D01*
X61391445Y-66253570D01*
X61369835Y-66242019D01*
X61346386Y-66234906D01*
X61322000Y-66232504D01*
X61297613Y-66234906D01*
X61274165Y-66242019D01*
X61252554Y-66253570D01*
X61233612Y-66269116D01*
X61218067Y-66288058D01*
X61206516Y-66309668D01*
X61188743Y-66352575D01*
X61188742Y-66352577D01*
X61155802Y-66401876D01*
X61113876Y-66443802D01*
X61064577Y-66476742D01*
X61064576Y-66476743D01*
X61064575Y-66476743D01*
X61009797Y-66499433D01*
X60951647Y-66511000D01*
X60892353Y-66511000D01*
X60834203Y-66499433D01*
X60779425Y-66476743D01*
X60779424Y-66476743D01*
X60779423Y-66476742D01*
X60730124Y-66443802D01*
X60688198Y-66401876D01*
X60655258Y-66352577D01*
X60655257Y-66352575D01*
X60632567Y-66297797D01*
X60621000Y-66239647D01*
X60621000Y-66180353D01*
X60632567Y-66122203D01*
X60655257Y-66067425D01*
X60655258Y-66067423D01*
X60688198Y-66018124D01*
X60730124Y-65976198D01*
X60779423Y-65943258D01*
X60779425Y-65943257D01*
X60834203Y-65920567D01*
X60892353Y-65909000D01*
X60951647Y-65909000D01*
X61009797Y-65920567D01*
G37*
G36*
X60565512Y-57523927D02*
G01*
X60714812Y-57553624D01*
X60878784Y-57621544D01*
X61026354Y-57720147D01*
X61151853Y-57845646D01*
X61250456Y-57993216D01*
X61318376Y-58157188D01*
X61353000Y-58331259D01*
X61353000Y-58508741D01*
X61318376Y-58682812D01*
X61250456Y-58846784D01*
X61151853Y-58994354D01*
X61026354Y-59119853D01*
X60878784Y-59218456D01*
X60714812Y-59286376D01*
X60565512Y-59316073D01*
X60540742Y-59321000D01*
X60363258Y-59321000D01*
X60338488Y-59316073D01*
X60189188Y-59286376D01*
X60025216Y-59218456D01*
X59877646Y-59119853D01*
X59752147Y-58994354D01*
X59653544Y-58846784D01*
X59585624Y-58682812D01*
X59551000Y-58508741D01*
X59551000Y-58331259D01*
X59585624Y-58157188D01*
X59653544Y-57993216D01*
X59752147Y-57845646D01*
X59877646Y-57720147D01*
X60025216Y-57621544D01*
X60189188Y-57553624D01*
X60338488Y-57523927D01*
X60363258Y-57519000D01*
X60540742Y-57519000D01*
X60565512Y-57523927D01*
G37*
G36*
X58025512Y-57523927D02*
G01*
X58174812Y-57553624D01*
X58338784Y-57621544D01*
X58486354Y-57720147D01*
X58611853Y-57845646D01*
X58710456Y-57993216D01*
X58778376Y-58157188D01*
X58813000Y-58331259D01*
X58813000Y-58508741D01*
X58778376Y-58682812D01*
X58710456Y-58846784D01*
X58611853Y-58994354D01*
X58486354Y-59119853D01*
X58338784Y-59218456D01*
X58174812Y-59286376D01*
X58025512Y-59316073D01*
X58000742Y-59321000D01*
X57823258Y-59321000D01*
X57798488Y-59316073D01*
X57649188Y-59286376D01*
X57485216Y-59218456D01*
X57337646Y-59119853D01*
X57212147Y-58994354D01*
X57113544Y-58846784D01*
X57045624Y-58682812D01*
X57011000Y-58508741D01*
X57011000Y-58331259D01*
X57045624Y-58157188D01*
X57113544Y-57993216D01*
X57212147Y-57845646D01*
X57337646Y-57720147D01*
X57485216Y-57621544D01*
X57649188Y-57553624D01*
X57798488Y-57523927D01*
X57823258Y-57519000D01*
X58000742Y-57519000D01*
X58025512Y-57523927D01*
G37*
G36*
X55485512Y-57523927D02*
G01*
X55634812Y-57553624D01*
X55798784Y-57621544D01*
X55946354Y-57720147D01*
X56071853Y-57845646D01*
X56170456Y-57993216D01*
X56238376Y-58157188D01*
X56273000Y-58331259D01*
X56273000Y-58508741D01*
X56238376Y-58682812D01*
X56170456Y-58846784D01*
X56071853Y-58994354D01*
X55946354Y-59119853D01*
X55798784Y-59218456D01*
X55634812Y-59286376D01*
X55485512Y-59316073D01*
X55460742Y-59321000D01*
X55283258Y-59321000D01*
X55258488Y-59316073D01*
X55109188Y-59286376D01*
X54945216Y-59218456D01*
X54797646Y-59119853D01*
X54672147Y-58994354D01*
X54573544Y-58846784D01*
X54505624Y-58682812D01*
X54471000Y-58508741D01*
X54471000Y-58331259D01*
X54505624Y-58157188D01*
X54573544Y-57993216D01*
X54672147Y-57845646D01*
X54797646Y-57720147D01*
X54945216Y-57621544D01*
X55109188Y-57553624D01*
X55258488Y-57523927D01*
X55283258Y-57519000D01*
X55460742Y-57519000D01*
X55485512Y-57523927D01*
G37*
G36*
X66433000Y-59321000D02*
G01*
X64631000Y-59321000D01*
X64631000Y-57519000D01*
X66433000Y-57519000D01*
X66433000Y-59321000D01*
G37*
G36*
X63105512Y-57523927D02*
G01*
X63254812Y-57553624D01*
X63418784Y-57621544D01*
X63566354Y-57720147D01*
X63691853Y-57845646D01*
X63790456Y-57993216D01*
X63858376Y-58157188D01*
X63893000Y-58331259D01*
X63893000Y-58508741D01*
X63858376Y-58682812D01*
X63790456Y-58846784D01*
X63691853Y-58994354D01*
X63566354Y-59119853D01*
X63418784Y-59218456D01*
X63254812Y-59286376D01*
X63105512Y-59316073D01*
X63080742Y-59321000D01*
X62903258Y-59321000D01*
X62878488Y-59316073D01*
X62729188Y-59286376D01*
X62565216Y-59218456D01*
X62417646Y-59119853D01*
X62292147Y-58994354D01*
X62193544Y-58846784D01*
X62125624Y-58682812D01*
X62091000Y-58508741D01*
X62091000Y-58331259D01*
X62125624Y-58157188D01*
X62193544Y-57993216D01*
X62292147Y-57845646D01*
X62417646Y-57720147D01*
X62565216Y-57621544D01*
X62729188Y-57553624D01*
X62878488Y-57523927D01*
X62903258Y-57519000D01*
X63080742Y-57519000D01*
X63105512Y-57523927D01*
G37*
G36*
X29687579Y-56158955D02*
G01*
X29827072Y-56216735D01*
X29827074Y-56216736D01*
X29952615Y-56300620D01*
X30059380Y-56407385D01*
X30143265Y-56532928D01*
X30201045Y-56672421D01*
X30230500Y-56820504D01*
X30230500Y-56971496D01*
X30201045Y-57119579D01*
X30143265Y-57259072D01*
X30143264Y-57259074D01*
X30059380Y-57384615D01*
X29952615Y-57491380D01*
X29827074Y-57575264D01*
X29827073Y-57575265D01*
X29827072Y-57575265D01*
X29687579Y-57633045D01*
X29539496Y-57662500D01*
X29388504Y-57662500D01*
X29240421Y-57633045D01*
X29100928Y-57575265D01*
X29100927Y-57575265D01*
X29100926Y-57575264D01*
X28975385Y-57491380D01*
X28868620Y-57384615D01*
X28784736Y-57259074D01*
X28784735Y-57259072D01*
X28726955Y-57119579D01*
X28697500Y-56971496D01*
X28697500Y-56820504D01*
X28726955Y-56672421D01*
X28784735Y-56532928D01*
X28868620Y-56407385D01*
X28975385Y-56300620D01*
X29100926Y-56216736D01*
X29100928Y-56216735D01*
X29240421Y-56158955D01*
X29388504Y-56129500D01*
X29539496Y-56129500D01*
X29687579Y-56158955D01*
G37*
G36*
X29687579Y-53618955D02*
G01*
X29827072Y-53676735D01*
X29827074Y-53676736D01*
X29952615Y-53760620D01*
X30059380Y-53867385D01*
X30143265Y-53992928D01*
X30201045Y-54132421D01*
X30230500Y-54280504D01*
X30230500Y-54431496D01*
X30201045Y-54579579D01*
X30143265Y-54719072D01*
X30143264Y-54719074D01*
X30059380Y-54844615D01*
X29952615Y-54951380D01*
X29827074Y-55035264D01*
X29827073Y-55035265D01*
X29827072Y-55035265D01*
X29687579Y-55093045D01*
X29539496Y-55122500D01*
X29388504Y-55122500D01*
X29240421Y-55093045D01*
X29100928Y-55035265D01*
X29100927Y-55035265D01*
X29100926Y-55035264D01*
X28975385Y-54951380D01*
X28868620Y-54844615D01*
X28784736Y-54719074D01*
X28784735Y-54719072D01*
X28726955Y-54579579D01*
X28697500Y-54431496D01*
X28697500Y-54280504D01*
X28726955Y-54132421D01*
X28784735Y-53992928D01*
X28868620Y-53867385D01*
X28975385Y-53760620D01*
X29100926Y-53676736D01*
X29100928Y-53676735D01*
X29240421Y-53618955D01*
X29388504Y-53589500D01*
X29539496Y-53589500D01*
X29687579Y-53618955D01*
G37*
G36*
X50717797Y-49710567D02*
G01*
X50772575Y-49733257D01*
X50772577Y-49733258D01*
X50821876Y-49766198D01*
X50863802Y-49808124D01*
X50896742Y-49857423D01*
X50896743Y-49857425D01*
X50919433Y-49912203D01*
X50931000Y-49970353D01*
X50931000Y-50029647D01*
X50919433Y-50087797D01*
X50896826Y-50142375D01*
X50896742Y-50142577D01*
X50863802Y-50191876D01*
X50821876Y-50233802D01*
X50772577Y-50266742D01*
X50772576Y-50266743D01*
X50772575Y-50266743D01*
X50729668Y-50284516D01*
X50708057Y-50296067D01*
X50689115Y-50311613D01*
X50673570Y-50330555D01*
X50662019Y-50352165D01*
X50654906Y-50375614D01*
X50652504Y-50400000D01*
X50654906Y-50424387D01*
X50662019Y-50447835D01*
X50673570Y-50469446D01*
X50689116Y-50488388D01*
X50708058Y-50503933D01*
X50729668Y-50515484D01*
X50772575Y-50533257D01*
X50772577Y-50533258D01*
X50821876Y-50566198D01*
X50863802Y-50608124D01*
X50896742Y-50657423D01*
X50896743Y-50657425D01*
X50919433Y-50712203D01*
X50931000Y-50770353D01*
X50931000Y-50829647D01*
X50919433Y-50887797D01*
X50896743Y-50942575D01*
X50896742Y-50942577D01*
X50863802Y-50991876D01*
X50821876Y-51033802D01*
X50772577Y-51066742D01*
X50772576Y-51066743D01*
X50772575Y-51066743D01*
X50729668Y-51084516D01*
X50708057Y-51096067D01*
X50689115Y-51111613D01*
X50673570Y-51130555D01*
X50662019Y-51152165D01*
X50654906Y-51175614D01*
X50652504Y-51200000D01*
X50654906Y-51224387D01*
X50662019Y-51247835D01*
X50673570Y-51269446D01*
X50689116Y-51288388D01*
X50708058Y-51303933D01*
X50729668Y-51315484D01*
X50772575Y-51333257D01*
X50772577Y-51333258D01*
X50821876Y-51366198D01*
X50863802Y-51408124D01*
X50896742Y-51457423D01*
X50896743Y-51457425D01*
X50919433Y-51512203D01*
X50931000Y-51570353D01*
X50931000Y-51629647D01*
X50919433Y-51687797D01*
X50896743Y-51742575D01*
X50896742Y-51742577D01*
X50863802Y-51791876D01*
X50821876Y-51833802D01*
X50772577Y-51866742D01*
X50772576Y-51866743D01*
X50772575Y-51866743D01*
X50717797Y-51889433D01*
X50659647Y-51901000D01*
X50600353Y-51901000D01*
X50542203Y-51889433D01*
X50487425Y-51866743D01*
X50487424Y-51866743D01*
X50487423Y-51866742D01*
X50438124Y-51833802D01*
X50396198Y-51791876D01*
X50363258Y-51742577D01*
X50363257Y-51742575D01*
X50340567Y-51687797D01*
X50329000Y-51629647D01*
X50329000Y-51570353D01*
X50340567Y-51512203D01*
X50363257Y-51457425D01*
X50363258Y-51457423D01*
X50396198Y-51408124D01*
X50438124Y-51366198D01*
X50487423Y-51333258D01*
X50487425Y-51333257D01*
X50530332Y-51315484D01*
X50551943Y-51303933D01*
X50570885Y-51288387D01*
X50586430Y-51269445D01*
X50597981Y-51247835D01*
X50605094Y-51224386D01*
X50607496Y-51200000D01*
X50605094Y-51175613D01*
X50597981Y-51152165D01*
X50586430Y-51130554D01*
X50570884Y-51111612D01*
X50551942Y-51096067D01*
X50530332Y-51084516D01*
X50487425Y-51066743D01*
X50487424Y-51066743D01*
X50487423Y-51066742D01*
X50438124Y-51033802D01*
X50396198Y-50991876D01*
X50363258Y-50942577D01*
X50363257Y-50942575D01*
X50340567Y-50887797D01*
X50329000Y-50829647D01*
X50329000Y-50770353D01*
X50340567Y-50712203D01*
X50363257Y-50657425D01*
X50363258Y-50657423D01*
X50396198Y-50608124D01*
X50438124Y-50566198D01*
X50487423Y-50533258D01*
X50487425Y-50533257D01*
X50530332Y-50515484D01*
X50551943Y-50503933D01*
X50570885Y-50488387D01*
X50586430Y-50469445D01*
X50597981Y-50447835D01*
X50605094Y-50424386D01*
X50607496Y-50400000D01*
X50605094Y-50375613D01*
X50597981Y-50352165D01*
X50586430Y-50330554D01*
X50570884Y-50311612D01*
X50551942Y-50296067D01*
X50530332Y-50284516D01*
X50487425Y-50266743D01*
X50487424Y-50266743D01*
X50487423Y-50266742D01*
X50438124Y-50233802D01*
X50396198Y-50191876D01*
X50363258Y-50142577D01*
X50363174Y-50142375D01*
X50340567Y-50087797D01*
X50329000Y-50029647D01*
X50329000Y-49970353D01*
X50340567Y-49912203D01*
X50363257Y-49857425D01*
X50363258Y-49857423D01*
X50396198Y-49808124D01*
X50438124Y-49766198D01*
X50487423Y-49733258D01*
X50487425Y-49733257D01*
X50542203Y-49710567D01*
X50600353Y-49699000D01*
X50659647Y-49699000D01*
X50717797Y-49710567D01*
G37*
G36*
X48517797Y-49710567D02*
G01*
X48572575Y-49733257D01*
X48572577Y-49733258D01*
X48621876Y-49766198D01*
X48663802Y-49808124D01*
X48696742Y-49857423D01*
X48696743Y-49857425D01*
X48719433Y-49912203D01*
X48731000Y-49970353D01*
X48731000Y-50029647D01*
X48719433Y-50087797D01*
X48696826Y-50142375D01*
X48696742Y-50142577D01*
X48663802Y-50191876D01*
X48621876Y-50233802D01*
X48572577Y-50266742D01*
X48572576Y-50266743D01*
X48572575Y-50266743D01*
X48529668Y-50284516D01*
X48508057Y-50296067D01*
X48489115Y-50311613D01*
X48473570Y-50330555D01*
X48462019Y-50352165D01*
X48454906Y-50375614D01*
X48452504Y-50400000D01*
X48454906Y-50424387D01*
X48462019Y-50447835D01*
X48473570Y-50469446D01*
X48489116Y-50488388D01*
X48508058Y-50503933D01*
X48529668Y-50515484D01*
X48572575Y-50533257D01*
X48572577Y-50533258D01*
X48621876Y-50566198D01*
X48663802Y-50608124D01*
X48696742Y-50657423D01*
X48696743Y-50657425D01*
X48719433Y-50712203D01*
X48731000Y-50770353D01*
X48731000Y-50829647D01*
X48719433Y-50887797D01*
X48696743Y-50942575D01*
X48696742Y-50942577D01*
X48663802Y-50991876D01*
X48621876Y-51033802D01*
X48572577Y-51066742D01*
X48572576Y-51066743D01*
X48572575Y-51066743D01*
X48529668Y-51084516D01*
X48508057Y-51096067D01*
X48489115Y-51111613D01*
X48473570Y-51130555D01*
X48462019Y-51152165D01*
X48454906Y-51175614D01*
X48452504Y-51200000D01*
X48454906Y-51224387D01*
X48462019Y-51247835D01*
X48473570Y-51269446D01*
X48489116Y-51288388D01*
X48508058Y-51303933D01*
X48529668Y-51315484D01*
X48572575Y-51333257D01*
X48572577Y-51333258D01*
X48621876Y-51366198D01*
X48663802Y-51408124D01*
X48696742Y-51457423D01*
X48696743Y-51457425D01*
X48719433Y-51512203D01*
X48731000Y-51570353D01*
X48731000Y-51629647D01*
X48719433Y-51687797D01*
X48696743Y-51742575D01*
X48696742Y-51742577D01*
X48663802Y-51791876D01*
X48621876Y-51833802D01*
X48572577Y-51866742D01*
X48572576Y-51866743D01*
X48572575Y-51866743D01*
X48517797Y-51889433D01*
X48459647Y-51901000D01*
X48400353Y-51901000D01*
X48342203Y-51889433D01*
X48287425Y-51866743D01*
X48287424Y-51866743D01*
X48287423Y-51866742D01*
X48238124Y-51833802D01*
X48196198Y-51791876D01*
X48163258Y-51742577D01*
X48163257Y-51742575D01*
X48140567Y-51687797D01*
X48129000Y-51629647D01*
X48129000Y-51570353D01*
X48140567Y-51512203D01*
X48163257Y-51457425D01*
X48163258Y-51457423D01*
X48196198Y-51408124D01*
X48238124Y-51366198D01*
X48287423Y-51333258D01*
X48287425Y-51333257D01*
X48330332Y-51315484D01*
X48351943Y-51303933D01*
X48370885Y-51288387D01*
X48386430Y-51269445D01*
X48397981Y-51247835D01*
X48405094Y-51224386D01*
X48407496Y-51200000D01*
X48405094Y-51175613D01*
X48397981Y-51152165D01*
X48386430Y-51130554D01*
X48370884Y-51111612D01*
X48351942Y-51096067D01*
X48330332Y-51084516D01*
X48287425Y-51066743D01*
X48287424Y-51066743D01*
X48287423Y-51066742D01*
X48238124Y-51033802D01*
X48196198Y-50991876D01*
X48163258Y-50942577D01*
X48163257Y-50942575D01*
X48140567Y-50887797D01*
X48129000Y-50829647D01*
X48129000Y-50770353D01*
X48140567Y-50712203D01*
X48163257Y-50657425D01*
X48163258Y-50657423D01*
X48196198Y-50608124D01*
X48238124Y-50566198D01*
X48287423Y-50533258D01*
X48287425Y-50533257D01*
X48330332Y-50515484D01*
X48351943Y-50503933D01*
X48370885Y-50488387D01*
X48386430Y-50469445D01*
X48397981Y-50447835D01*
X48405094Y-50424386D01*
X48407496Y-50400000D01*
X48405094Y-50375613D01*
X48397981Y-50352165D01*
X48386430Y-50330554D01*
X48370884Y-50311612D01*
X48351942Y-50296067D01*
X48330332Y-50284516D01*
X48287425Y-50266743D01*
X48287424Y-50266743D01*
X48287423Y-50266742D01*
X48238124Y-50233802D01*
X48196198Y-50191876D01*
X48163258Y-50142577D01*
X48163174Y-50142375D01*
X48140567Y-50087797D01*
X48129000Y-50029647D01*
X48129000Y-49970353D01*
X48140567Y-49912203D01*
X48163257Y-49857425D01*
X48163258Y-49857423D01*
X48196198Y-49808124D01*
X48238124Y-49766198D01*
X48287423Y-49733258D01*
X48287425Y-49733257D01*
X48342203Y-49710567D01*
X48400353Y-49699000D01*
X48459647Y-49699000D01*
X48517797Y-49710567D01*
G37*
G36*
X31609512Y-48379927D02*
G01*
X31758812Y-48409624D01*
X31922784Y-48477544D01*
X32070354Y-48576147D01*
X32195853Y-48701646D01*
X32294456Y-48849216D01*
X32362376Y-49013188D01*
X32397000Y-49187259D01*
X32397000Y-49364741D01*
X32362376Y-49538812D01*
X32294456Y-49702784D01*
X32195853Y-49850354D01*
X32070354Y-49975853D01*
X31922784Y-50074456D01*
X31758812Y-50142376D01*
X31609512Y-50172073D01*
X31584742Y-50177000D01*
X31407258Y-50177000D01*
X31382488Y-50172073D01*
X31233188Y-50142376D01*
X31069216Y-50074456D01*
X30921646Y-49975853D01*
X30796147Y-49850354D01*
X30697544Y-49702784D01*
X30629624Y-49538812D01*
X30595000Y-49364741D01*
X30595000Y-49187259D01*
X30629624Y-49013188D01*
X30697544Y-48849216D01*
X30796147Y-48701646D01*
X30921646Y-48576147D01*
X31069216Y-48477544D01*
X31233188Y-48409624D01*
X31382488Y-48379927D01*
X31407258Y-48375000D01*
X31584742Y-48375000D01*
X31609512Y-48379927D01*
G37*
G36*
X27545512Y-48379927D02*
G01*
X27694812Y-48409624D01*
X27858784Y-48477544D01*
X28006354Y-48576147D01*
X28131853Y-48701646D01*
X28230456Y-48849216D01*
X28298376Y-49013188D01*
X28333000Y-49187259D01*
X28333000Y-49364741D01*
X28298376Y-49538812D01*
X28230456Y-49702784D01*
X28131853Y-49850354D01*
X28006354Y-49975853D01*
X27858784Y-50074456D01*
X27694812Y-50142376D01*
X27545512Y-50172073D01*
X27520742Y-50177000D01*
X27343258Y-50177000D01*
X27318488Y-50172073D01*
X27169188Y-50142376D01*
X27005216Y-50074456D01*
X26857646Y-49975853D01*
X26732147Y-49850354D01*
X26633544Y-49702784D01*
X26565624Y-49538812D01*
X26531000Y-49364741D01*
X26531000Y-49187259D01*
X26565624Y-49013188D01*
X26633544Y-48849216D01*
X26732147Y-48701646D01*
X26857646Y-48576147D01*
X27005216Y-48477544D01*
X27169188Y-48409624D01*
X27318488Y-48379927D01*
X27343258Y-48375000D01*
X27520742Y-48375000D01*
X27545512Y-48379927D01*
G37*
G36*
X28333000Y-47637000D02*
G01*
X26531000Y-47637000D01*
X26531000Y-45835000D01*
X28333000Y-45835000D01*
X28333000Y-47637000D01*
G37*
G36*
X32397000Y-47637000D02*
G01*
X30595000Y-47637000D01*
X30595000Y-45835000D01*
X32397000Y-45835000D01*
X32397000Y-47637000D01*
G37*
G36*
X41541000Y-41541000D02*
G01*
X39739000Y-41541000D01*
X39739000Y-39739000D01*
X41541000Y-39739000D01*
X41541000Y-41541000D01*
G37*
G36*
X38213512Y-39743927D02*
G01*
X38362812Y-39773624D01*
X38526784Y-39841544D01*
X38674354Y-39940147D01*
X38799853Y-40065646D01*
X38898456Y-40213216D01*
X38966376Y-40377188D01*
X39001000Y-40551259D01*
X39001000Y-40728741D01*
X38966376Y-40902812D01*
X38898456Y-41066784D01*
X38799853Y-41214354D01*
X38674354Y-41339853D01*
X38526784Y-41438456D01*
X38362812Y-41506376D01*
X38213512Y-41536073D01*
X38188742Y-41541000D01*
X38011258Y-41541000D01*
X37986488Y-41536073D01*
X37837188Y-41506376D01*
X37673216Y-41438456D01*
X37525646Y-41339853D01*
X37400147Y-41214354D01*
X37301544Y-41066784D01*
X37233624Y-40902812D01*
X37199000Y-40728741D01*
X37199000Y-40551259D01*
X37233624Y-40377188D01*
X37301544Y-40213216D01*
X37400147Y-40065646D01*
X37525646Y-39940147D01*
X37673216Y-39841544D01*
X37837188Y-39773624D01*
X37986488Y-39743927D01*
X38011258Y-39739000D01*
X38188742Y-39739000D01*
X38213512Y-39743927D01*
G37*
G36*
X35673512Y-39743927D02*
G01*
X35822812Y-39773624D01*
X35986784Y-39841544D01*
X36134354Y-39940147D01*
X36259853Y-40065646D01*
X36358456Y-40213216D01*
X36426376Y-40377188D01*
X36461000Y-40551259D01*
X36461000Y-40728741D01*
X36426376Y-40902812D01*
X36358456Y-41066784D01*
X36259853Y-41214354D01*
X36134354Y-41339853D01*
X35986784Y-41438456D01*
X35822812Y-41506376D01*
X35673512Y-41536073D01*
X35648742Y-41541000D01*
X35471258Y-41541000D01*
X35446488Y-41536073D01*
X35297188Y-41506376D01*
X35133216Y-41438456D01*
X34985646Y-41339853D01*
X34860147Y-41214354D01*
X34761544Y-41066784D01*
X34693624Y-40902812D01*
X34659000Y-40728741D01*
X34659000Y-40551259D01*
X34693624Y-40377188D01*
X34761544Y-40213216D01*
X34860147Y-40065646D01*
X34985646Y-39940147D01*
X35133216Y-39841544D01*
X35297188Y-39773624D01*
X35446488Y-39743927D01*
X35471258Y-39739000D01*
X35648742Y-39739000D01*
X35673512Y-39743927D01*
G37*
G36*
X33133512Y-39743927D02*
G01*
X33282812Y-39773624D01*
X33446784Y-39841544D01*
X33594354Y-39940147D01*
X33719853Y-40065646D01*
X33818456Y-40213216D01*
X33886376Y-40377188D01*
X33921000Y-40551259D01*
X33921000Y-40728741D01*
X33886376Y-40902812D01*
X33818456Y-41066784D01*
X33719853Y-41214354D01*
X33594354Y-41339853D01*
X33446784Y-41438456D01*
X33282812Y-41506376D01*
X33133512Y-41536073D01*
X33108742Y-41541000D01*
X32931258Y-41541000D01*
X32906488Y-41536073D01*
X32757188Y-41506376D01*
X32593216Y-41438456D01*
X32445646Y-41339853D01*
X32320147Y-41214354D01*
X32221544Y-41066784D01*
X32153624Y-40902812D01*
X32119000Y-40728741D01*
X32119000Y-40551259D01*
X32153624Y-40377188D01*
X32221544Y-40213216D01*
X32320147Y-40065646D01*
X32445646Y-39940147D01*
X32593216Y-39841544D01*
X32757188Y-39773624D01*
X32906488Y-39743927D01*
X32931258Y-39739000D01*
X33108742Y-39739000D01*
X33133512Y-39743927D01*
G37*
G36*
X30593512Y-39743927D02*
G01*
X30742812Y-39773624D01*
X30906784Y-39841544D01*
X31054354Y-39940147D01*
X31179853Y-40065646D01*
X31278456Y-40213216D01*
X31346376Y-40377188D01*
X31381000Y-40551259D01*
X31381000Y-40728741D01*
X31346376Y-40902812D01*
X31278456Y-41066784D01*
X31179853Y-41214354D01*
X31054354Y-41339853D01*
X30906784Y-41438456D01*
X30742812Y-41506376D01*
X30593512Y-41536073D01*
X30568742Y-41541000D01*
X30391258Y-41541000D01*
X30366488Y-41536073D01*
X30217188Y-41506376D01*
X30053216Y-41438456D01*
X29905646Y-41339853D01*
X29780147Y-41214354D01*
X29681544Y-41066784D01*
X29613624Y-40902812D01*
X29579000Y-40728741D01*
X29579000Y-40551259D01*
X29613624Y-40377188D01*
X29681544Y-40213216D01*
X29780147Y-40065646D01*
X29905646Y-39940147D01*
X30053216Y-39841544D01*
X30217188Y-39773624D01*
X30366488Y-39743927D01*
X30391258Y-39739000D01*
X30568742Y-39739000D01*
X30593512Y-39743927D01*
G37*
M02*
