G04 #@! TF.GenerationSoftware,KiCad,Pcbnew,(5.1.5)-3*
G04 #@! TF.CreationDate,2021-02-20T21:47:20+01:00*
G04 #@! TF.ProjectId,brievenbusmelder,62726965-7665-46e6-9275-736d656c6465,rev?*
G04 #@! TF.SameCoordinates,Original*
G04 #@! TF.FileFunction,Profile,NP*
%FSLAX46Y46*%
G04 Gerber Fmt 4.6, Leading zero omitted, Abs format (unit mm)*
G04 Created by KiCad (PCBNEW (5.1.5)-3) date 2021-02-20 21:47:20*
%MOMM*%
%LPD*%
G04 APERTURE LIST*
%ADD10C,0.050000*%
G04 APERTURE END LIST*
D10*
X73914000Y-68580000D02*
X64008000Y-68580000D01*
X73914000Y-86614000D02*
X73914000Y-68580000D01*
X51816000Y-86614000D02*
X73914000Y-86614000D01*
X51816000Y-80010000D02*
X51816000Y-86614000D01*
X70358000Y-66040000D02*
X64008000Y-66040000D01*
X70358000Y-33782000D02*
X70358000Y-66040000D01*
X50800000Y-33528000D02*
X70358000Y-33782000D01*
X50800000Y-48514000D02*
X50800000Y-33528000D01*
X50800000Y-66040000D02*
X50800000Y-53086000D01*
X59436000Y-66040000D02*
X50800000Y-66040000D01*
X64008000Y-68580000D02*
G75*
G02X64008000Y-66040000I0J1270000D01*
G01*
X59436000Y-66040000D02*
G75*
G02X59436000Y-68580000I0J-1270000D01*
G01*
X51816000Y-68580000D02*
X59436000Y-68580000D01*
X51816000Y-75438000D02*
X51816000Y-68580000D01*
X49276000Y-91440000D02*
X49276000Y-80010000D01*
X23368000Y-91440000D02*
X49276000Y-91440000D01*
X23368000Y-68580000D02*
X23368000Y-91440000D01*
X32004000Y-68580000D02*
X23368000Y-68580000D01*
X49276000Y-80010000D02*
G75*
G02X51816000Y-80010000I1270000J0D01*
G01*
X51816000Y-75438000D02*
G75*
G02X49276000Y-75438000I-1270000J0D01*
G01*
X49276000Y-68580000D02*
X49276000Y-75438000D01*
X36576000Y-68580000D02*
X49276000Y-68580000D01*
X48260000Y-33528000D02*
X48260000Y-48514000D01*
X23368000Y-33528000D02*
X48260000Y-33528000D01*
X23368000Y-66040000D02*
X23368000Y-33528000D01*
X32004000Y-66040000D02*
X23368000Y-66040000D01*
X48260000Y-53086000D02*
X48260000Y-66040000D01*
X36576000Y-66040000D02*
X48260000Y-66040000D01*
X36576000Y-68580000D02*
G75*
G02X36576000Y-66040000I0J1270000D01*
G01*
X32004000Y-66040000D02*
G75*
G02X32004000Y-68580000I0J-1270000D01*
G01*
X50800000Y-48514000D02*
G75*
G02X48260000Y-48514000I-1270000J0D01*
G01*
X48260000Y-53086000D02*
G75*
G02X50800000Y-53086000I1270000J0D01*
G01*
M02*
