G04 #@! TF.GenerationSoftware,KiCad,Pcbnew,(5.1.5)-3*
G04 #@! TF.CreationDate,2021-02-20T21:47:20+01:00*
G04 #@! TF.ProjectId,brievenbusmelder,62726965-7665-46e6-9275-736d656c6465,rev?*
G04 #@! TF.SameCoordinates,Original*
G04 #@! TF.FileFunction,Copper,L2,Bot*
G04 #@! TF.FilePolarity,Positive*
%FSLAX46Y46*%
G04 Gerber Fmt 4.6, Leading zero omitted, Abs format (unit mm)*
G04 Created by KiCad (PCBNEW (5.1.5)-3) date 2021-02-20 21:47:20*
%MOMM*%
%LPD*%
G04 APERTURE LIST*
%ADD10C,1.431000*%
%ADD11O,1.700000X1.700000*%
%ADD12R,1.700000X1.700000*%
%ADD13C,0.800000*%
%ADD14C,0.250000*%
G04 APERTURE END LIST*
D10*
X29464000Y-54356000D03*
X29464000Y-56896000D03*
D11*
X38100000Y-73914000D03*
X35560000Y-73914000D03*
X33020000Y-73914000D03*
X30480000Y-73914000D03*
D12*
X27940000Y-73914000D03*
D11*
X55372000Y-58420000D03*
X57912000Y-58420000D03*
X60452000Y-58420000D03*
X62992000Y-58420000D03*
D12*
X65532000Y-58420000D03*
D11*
X57912000Y-82042000D03*
X57912000Y-79502000D03*
X57912000Y-76962000D03*
D12*
X57912000Y-74422000D03*
X40640000Y-40640000D03*
D11*
X38100000Y-40640000D03*
X35560000Y-40640000D03*
X33020000Y-40640000D03*
X30480000Y-40640000D03*
X27432000Y-49276000D03*
D12*
X27432000Y-46736000D03*
X31496000Y-46736000D03*
D11*
X31496000Y-49276000D03*
D13*
X25400000Y-77470000D03*
X29210000Y-76200000D03*
X55092600Y-56159400D03*
X56337200Y-52628800D03*
X42672000Y-61468000D03*
X32512000Y-58928000D03*
X57099200Y-56337200D03*
X55448200Y-47726600D03*
X62534800Y-55880000D03*
X55727600Y-45694600D03*
X43942000Y-50673000D03*
X38862000Y-42926000D03*
X44196000Y-54483000D03*
X36576000Y-42672000D03*
X32004000Y-82296000D03*
X35560000Y-76098400D03*
X34036000Y-82804000D03*
X35483800Y-78232000D03*
D14*
X26670000Y-76200000D02*
X25400000Y-77470000D01*
X29210000Y-76200000D02*
X26670000Y-76200000D01*
X55092600Y-53873400D02*
X56337200Y-52628800D01*
X55092600Y-56159400D02*
X55092600Y-53873400D01*
X35052000Y-61468000D02*
X32512000Y-58928000D01*
X42672000Y-61468000D02*
X35052000Y-61468000D01*
X57099200Y-49377600D02*
X55448200Y-47726600D01*
X57099200Y-56337200D02*
X57099200Y-49377600D01*
X62534800Y-52501800D02*
X55727600Y-45694600D01*
X62534800Y-55880000D02*
X62534800Y-52501800D01*
X38862000Y-45593000D02*
X43942000Y-50673000D01*
X38862000Y-42926000D02*
X38862000Y-45593000D01*
X36576000Y-46863000D02*
X44196000Y-54483000D01*
X36576000Y-42672000D02*
X36576000Y-46863000D01*
X32004000Y-82296000D02*
X32004000Y-80645000D01*
X35560000Y-77089000D02*
X35560000Y-76098400D01*
X32004000Y-80645000D02*
X35560000Y-77089000D01*
X34036000Y-79679800D02*
X35483800Y-78232000D01*
X34036000Y-82804000D02*
X34036000Y-79679800D01*
M02*
